<svg version="1.1" xmlns="http://www.w3.org/2000/svg" viewBox="0 0 401.1244684456234 1058.747834366648" width="401.1244684456234" height="1058.747834366648" class="excalidraw-svg"><!-- svg-source:excalidraw --><metadata></metadata><defs><style class="style-fonts">
      </style></defs><rect x="0" y="0" width="401.1244684456234" height="1058.747834366648" fill="#ffffff"></rect><g stroke-linecap="round" transform="translate(43.89999204907144 39.95266014737234) rotate(0 7.6148681640625 391.8750228881836)"><path d="M3.81 0 C5.75 0.09, 8.59 0.23, 11.42 0 M3.81 0 C5.17 0.01, 6.76 0.16, 11.42 0 M11.42 0 C15.86 0.97, 14.47 0.14, 15.23 3.81 M11.42 0 C13.68 2.29, 14.98 2.75, 15.23 3.81 M15.23 3.81 C17.34 223.77, 16.88 442.12, 15.23 779.94 M15.23 3.81 C14.88 166.65, 15.1 329.67, 15.23 779.94 M15.23 779.94 C16.19 781.19, 12.74 783.03, 11.42 783.75 M15.23 779.94 C13.61 782.74, 12.01 781.59, 11.42 783.75 M11.42 783.75 C9.07 784.25, 6.03 783.48, 3.81 783.75 M11.42 783.75 C8.51 783.71, 5.87 783.85, 3.81 783.75 M3.81 783.75 C2.19 782.96, 0.95 782.81, 0 779.94 M3.81 783.75 C0.95 785.42, -1.81 780.27, 0 779.94 M0 779.94 C-1.41 609.85, -1.27 438.05, 0 3.81 M0 779.94 C-2.27 599.04, -1.93 418.96, 0 3.81 M0 3.81 C-1.71 2.31, -0.25 -0.15, 3.81 0 M0 3.81 C0.78 0.3, 2.46 0.85, 3.81 0" stroke="#e03131" stroke-width="2" fill="none"></path></g><g stroke-linecap="round" transform="translate(57.17124665625744 9.999999999999943) rotate(0 19.023155859226335 18.772432367425182)"><path d="M20.64 -0.33 C24.6 -0.36, 29.32 1.85, 32.25 4.77 C35.18 7.69, 37.75 13.15, 38.22 17.18 C38.7 21.22, 37.45 25.74, 35.1 28.99 C32.74 32.25, 27.95 35.58, 24.09 36.73 C20.22 37.88, 15.51 37.53, 11.88 35.91 C8.25 34.29, 4.13 30.65, 2.29 27.01 C0.46 23.37, -0.04 17.89, 0.87 14.06 C1.79 10.23, 4.46 6.39, 7.79 4.03 C11.12 1.67, 18.59 0.46, 20.87 -0.12 C23.16 -0.7, 21.53 0.2, 21.5 0.55 M17.95 -0.43 C21.64 -0.99, 26.5 0.81, 29.66 3.25 C32.82 5.69, 35.95 10.38, 36.93 14.21 C37.9 18.03, 37.15 22.64, 35.53 26.2 C33.91 29.76, 30.83 33.73, 27.2 35.55 C23.57 37.37, 17.66 38.17, 13.77 37.12 C9.87 36.07, 6.14 32.5, 3.82 29.23 C1.5 25.97, -0.53 21.44, -0.16 17.54 C0.2 13.63, 3.06 8.74, 6.02 5.8 C8.98 2.86, 15.56 0.77, 17.58 -0.11 C19.61 -0.99, 18.07 0.24, 18.15 0.53" stroke="#e03131" stroke-width="2" fill="none"></path></g><g stroke-linecap="round" transform="translate(59.65173378241866 718.0178752856086) rotate(0 16.41849617791368 3.3596563770593093)"><path d="M1.68 0 C9.89 -0.38, 20.58 -0.77, 31.16 0 M1.68 0 C11.51 0.16, 20.21 -0.37, 31.16 0 M31.16 0 C32.16 1, 32.73 1.2, 32.84 1.68 M31.16 0 C32.08 0.76, 32.22 0.63, 32.84 1.68 M32.84 1.68 C32.68 2.93, 32.75 4.21, 32.84 5.04 M32.84 1.68 C32.89 2.53, 32.8 3.46, 32.84 5.04 M32.84 5.04 C32.13 6.27, 31.43 5.78, 31.16 6.72 M32.84 5.04 C33.36 5.65, 32.09 7.14, 31.16 6.72 M31.16 6.72 C21.14 7.06, 10.09 6.66, 1.68 6.72 M31.16 6.72 C23.2 6.54, 15.01 6.82, 1.68 6.72 M1.68 6.72 C0.42 7.44, -0.79 5.2, 0 5.04 M1.68 6.72 C-0.36 7.42, 0.18 6.87, 0 5.04 M0 5.04 C-0.13 3.93, -0.04 2.58, 0 1.68 M0 5.04 C-0.09 4.37, -0.08 3.61, 0 1.68 M0 1.68 C0.34 0.14, 1.08 0.37, 1.68 0 M0 1.68 C0.53 1.6, 0.62 0.46, 1.68 0" stroke="#e03131" stroke-width="2" fill="none"></path></g><g stroke-linecap="round" transform="translate(92.66793319504905 55.91662204079245) rotate(0 3.404931676327976 355.27385492514594)"><path d="M1.7 0 C2.95 -0.12, 3.95 -0.14, 5.11 0 M1.7 0 C2.89 -0.06, 4.13 0.08, 5.11 0 M5.11 0 C6.13 0.64, 6.64 1.23, 6.81 1.7 M5.11 0 C5.62 0.07, 7.69 -0.02, 6.81 1.7 M6.81 1.7 C5.34 180.24, 5.42 359, 6.81 708.85 M6.81 1.7 C7.37 203.38, 7.35 405.23, 6.81 708.85 M6.81 708.85 C5.96 709.04, 6.7 710.11, 5.11 710.55 M6.81 708.85 C6.63 710.4, 7.02 710.35, 5.11 710.55 M5.11 710.55 C4.31 710.55, 3.26 710.68, 1.7 710.55 M5.11 710.55 C4.08 710.56, 2.96 710.6, 1.7 710.55 M1.7 710.55 C-0.22 709.59, -0.8 710.59, 0 708.85 M1.7 710.55 C0.75 711.26, 0.79 710.89, 0 708.85 M0 708.85 C0.88 549.73, 0.6 390.91, 0 1.7 M0 708.85 C1.06 474.92, 1.28 240.93, 0 1.7 M0 1.7 C0.52 0.94, 1.03 0.9, 1.7 0 M0 1.7 C0.06 1.03, 0.54 0.73, 1.7 0" stroke="#e03131" stroke-width="2" fill="none"></path></g><g stroke-linecap="round" transform="translate(100.13082880176512 43.478078115704136) rotate(0 4.552425393770193 362.2693081930198)"><path d="M2.28 0 C3.52 -0.18, 4.83 0.23, 6.83 0 M2.28 0 C3.85 0.13, 5.44 0.09, 6.83 0 M6.83 0 C8.17 0.66, 8.56 0.82, 9.1 2.28 M6.83 0 C9.23 -0.59, 8.56 -0.28, 9.1 2.28 M9.1 2.28 C8.29 210.36, 8.35 418.18, 9.1 722.26 M9.1 2.28 C8.09 171.8, 8.06 341.09, 9.1 722.26 M9.1 722.26 C9.56 723.34, 8.19 724.9, 6.83 724.54 M9.1 722.26 C9.88 723.58, 7.95 725.49, 6.83 724.54 M6.83 724.54 C5.24 724.7, 3.77 724.64, 2.28 724.54 M6.83 724.54 C5.63 724.62, 4.37 724.43, 2.28 724.54 M2.28 724.54 C-0.04 725.15, 0.16 724.4, 0 722.26 M2.28 724.54 C1.55 725.45, -0.86 723.01, 0 722.26 M0 722.26 C-0.09 452.82, 0.39 182.23, 0 2.28 M0 722.26 C1.16 468.58, 1.2 215.14, 0 2.28 M0 2.28 C0.46 1.66, 0.82 0.4, 2.28 0 M0 2.28 C-0.03 1.49, 1.08 0.94, 2.28 0" stroke="#e03131" stroke-width="2" fill="none"></path></g><g stroke-linecap="round" transform="translate(10.931604641417266 125.55981628683162) rotate(0 4.2139908492638085 14.204289427865632)"><path d="M2.11 0 C3.19 0.22, 4.12 -0.06, 6.32 0 M2.11 0 C3.12 0.05, 4.14 0.05, 6.32 0 M6.32 0 C7.18 0.06, 9.2 0.19, 8.43 2.11 M6.32 0 C7.18 -1.04, 8.3 0.15, 8.43 2.11 M8.43 2.11 C8.24 9.84, 7.75 15.99, 8.43 26.3 M8.43 2.11 C7.92 8.02, 8.57 14.65, 8.43 26.3 M8.43 26.3 C8.27 28.07, 8.4 28.24, 6.32 28.41 M8.43 26.3 C8.03 28.65, 8.17 29.11, 6.32 28.41 M6.32 28.41 C5.09 28.52, 3.71 28.52, 2.11 28.41 M6.32 28.41 C4.9 28.32, 3.57 28.49, 2.11 28.41 M2.11 28.41 C0.86 29.03, 0.69 28.49, 0 26.3 M2.11 28.41 C-0.16 27.63, 0.86 27.49, 0 26.3 M0 26.3 C0.41 17.87, 0.63 10.39, 0 2.11 M0 26.3 C0.22 19.41, 0.19 12.6, 0 2.11 M0 2.11 C0.06 1.1, 0.68 0.64, 2.11 0 M0 2.11 C0.32 1.64, 0.73 -0.59, 2.11 0" stroke="#e03131" stroke-width="2" fill="none"></path></g><g stroke-linecap="round" transform="translate(20.81150292099602 136.5065257805281) rotate(0 10.954766837576528 3.588738865905654)"><path d="M1.79 0 C6.16 -0.44, 9.12 -0.2, 20.12 0 M1.79 0 C9.04 0.24, 16.2 -0.03, 20.12 0 M20.12 0 C22.08 -0.51, 21.43 -0.3, 21.91 1.79 M20.12 0 C21.18 -0.56, 21.9 0.25, 21.91 1.79 M21.91 1.79 C21.79 2.96, 21.84 4.23, 21.91 5.38 M21.91 1.79 C21.94 2.87, 21.88 4.06, 21.91 5.38 M21.91 5.38 C22.59 6.41, 20.97 8, 20.12 7.18 M21.91 5.38 C22.36 7.28, 21.31 6.92, 20.12 7.18 M20.12 7.18 C12.95 7.65, 6.67 7.09, 1.79 7.18 M20.12 7.18 C12.92 7.37, 6.54 7.37, 1.79 7.18 M1.79 7.18 C1.29 7.97, -0.75 5.91, 0 5.38 M1.79 7.18 C1.46 6.97, 0.15 5.57, 0 5.38 M0 5.38 C0.09 3.81, -0.02 2.58, 0 1.79 M0 5.38 C0.03 4.54, 0 3.57, 0 1.79 M0 1.79 C-0.03 1.24, 0.88 0.82, 1.79 0 M0 1.79 C0.03 0.01, 0.4 -0.62, 1.79 0" stroke="#e03131" stroke-width="2" fill="none"></path></g><g stroke-linecap="round" transform="translate(10 160.491188000315) rotate(0 4.2139908492638085 14.204289427865632)"><path d="M2.11 0 C3.65 -0.02, 5.65 -0.01, 6.32 0 M2.11 0 C3.59 -0.01, 5.26 -0.07, 6.32 0 M6.32 0 C7.25 -0.9, 8.31 0.22, 8.43 2.11 M6.32 0 C7.72 -0.35, 9.08 0.53, 8.43 2.11 M8.43 2.11 C7.99 9.82, 8.46 18.1, 8.43 26.3 M8.43 2.11 C8.4 7.28, 8.82 12, 8.43 26.3 M8.43 26.3 C8.08 28.53, 8.11 29.02, 6.32 28.41 M8.43 26.3 C8.42 27.45, 8.54 28.56, 6.32 28.41 M6.32 28.41 C4.9 28.39, 3.56 28.25, 2.11 28.41 M6.32 28.41 C5.48 28.49, 4.68 28.5, 2.11 28.41 M2.11 28.41 C-0.05 27.73, 0.75 27.52, 0 26.3 M2.11 28.41 C0.85 27.4, 1.14 28.06, 0 26.3 M0 26.3 C-0.14 21.45, -0.48 16.44, 0 2.11 M0 26.3 C-0.03 18.35, -0.07 10.31, 0 2.11 M0 2.11 C0.28 1.52, 0.73 -0.51, 2.11 0 M0 2.11 C-0.2 0.08, 0.1 -0.35, 2.11 0" stroke="#e03131" stroke-width="2" fill="none"></path></g><g stroke-linecap="round" transform="translate(19.879898279578754 171.43789749401148) rotate(0 10.954766837576528 3.588738865905654)"><path d="M1.79 0 C7.51 -0.09, 11.98 -0.15, 20.12 0 M1.79 0 C8.86 -0.24, 15 -0.42, 20.12 0 M20.12 0 C21.2 -0.48, 21.9 0.3, 21.91 1.79 M20.12 0 C21.96 -0.17, 22.46 -0.14, 21.91 1.79 M21.91 1.79 C21.92 2.5, 21.73 3.59, 21.91 5.38 M21.91 1.79 C21.97 2.7, 21.88 3.7, 21.91 5.38 M21.91 5.38 C22.3 7.19, 21.31 6.96, 20.12 7.18 M21.91 5.38 C22.73 6.73, 21.84 6.72, 20.12 7.18 M20.12 7.18 C14.41 6.44, 6.5 6.43, 1.79 7.18 M20.12 7.18 C13.81 7.6, 6.53 6.93, 1.79 7.18 M1.79 7.18 C1.35 6.99, 0.13 5.7, 0 5.38 M1.79 7.18 C1.74 7.53, -0.98 7.18, 0 5.38 M0 5.38 C-0.07 4.67, 0.07 3.86, 0 1.79 M0 5.38 C0 4.04, 0.02 2.66, 0 1.79 M0 1.79 C0.03 0.09, 0.43 -0.54, 1.79 0 M0 1.79 C-0.6 0.25, 1.21 0.26, 1.79 0" stroke="#e03131" stroke-width="2" fill="none"></path></g><g stroke-linecap="round" transform="translate(12.138297558857062 578.156579925969) rotate(0 4.2139908492638085 14.204289427865632)"><path d="M2.11 0 C3.46 -0.03, 4.67 -0.11, 6.32 0 M2.11 0 C3.35 -0.08, 4.68 -0.04, 6.32 0 M6.32 0 C7.72 -0.3, 8.99 0.56, 8.43 2.11 M6.32 0 C8.28 -0.74, 7.73 0.29, 8.43 2.11 M8.43 2.11 C7.5 8.11, 8 13.05, 8.43 26.3 M8.43 2.11 C8.34 10.65, 8.7 18.68, 8.43 26.3 M8.43 26.3 C8.42 27.48, 8.44 28.54, 6.32 28.41 M8.43 26.3 C8.96 27.25, 8.27 28.6, 6.32 28.41 M6.32 28.41 C4.91 28.22, 4.04 28.43, 2.11 28.41 M6.32 28.41 C4.72 28.35, 3.35 28.41, 2.11 28.41 M2.11 28.41 C0.83 27.53, 0.99 28.01, 0 26.3 M2.11 28.41 C-0.28 29.01, -0.87 27.62, 0 26.3 M0 26.3 C0.42 18.69, 0.95 10.2, 0 2.11 M0 26.3 C0.14 18.48, 0.02 9.59, 0 2.11 M0 2.11 C-0.17 0.16, 0.18 -0.3, 2.11 0 M0 2.11 C0.61 0.97, 0.58 0.07, 2.11 0" stroke="#e03131" stroke-width="2" fill="none"></path></g><g stroke-linecap="round" transform="translate(22.018195838435815 589.1032894196655) rotate(0 10.954766837576528 3.588738865905654)"><path d="M1.79 0 C7.7 -0.48, 12.45 0.72, 20.12 0 M1.79 0 C6.3 -0.14, 10.9 -0.06, 20.12 0 M20.12 0 C21.88 -0.15, 22.39 -0.05, 21.91 1.79 M20.12 0 C20.61 -0.42, 21.1 0.73, 21.91 1.79 M21.91 1.79 C21.81 2.54, 21.96 3.46, 21.91 5.38 M21.91 1.79 C21.94 2.87, 21.9 3.81, 21.91 5.38 M21.91 5.38 C22.62 6.71, 21.77 6.78, 20.12 7.18 M21.91 5.38 C22.45 6.77, 21.15 8.01, 20.12 7.18 M20.12 7.18 C16.62 7.25, 12.58 7.74, 1.79 7.18 M20.12 7.18 C13.52 7.03, 6.29 6.71, 1.79 7.18 M1.79 7.18 C1.59 7.49, -0.85 7.1, 0 5.38 M1.79 7.18 C-0.28 7.09, 0.39 6.1, 0 5.38 M0 5.38 C0.16 4.13, 0.07 2.85, 0 1.79 M0 5.38 C0 4.03, -0.02 2.72, 0 1.79 M0 1.79 C-0.52 0.3, 1.13 0.23, 1.79 0 M0 1.79 C-0.12 0.66, 1.1 0.07, 1.79 0" stroke="#e03131" stroke-width="2" fill="none"></path></g><g transform="translate(233.24362240204619 643.0208854448163) rotate(0 0 0.06747167008137467)" stroke="none"><path fill="#1e1e1e" d="M 1.12,0.07 Q 1.12,0.07 1.09,0.25 1.06,0.43 0.98,0.59 0.89,0.76 0.76,0.88 0.63,1.01 0.46,1.08 0.30,1.16 0.12,1.18 -0.06,1.20 -0.23,1.16 -0.41,1.12 -0.57,1.03 -0.73,0.93 -0.84,0.79 -0.96,0.65 -1.03,0.48 -1.10,0.32 -1.11,0.13 -1.12,-0.04 -1.07,-0.22 -1.02,-0.39 -0.92,-0.54 -0.81,-0.69 -0.67,-0.80 -0.52,-0.91 -0.35,-0.97 -0.18,-1.03 0.00,-1.03 0.18,-1.03 0.35,-0.97 0.52,-0.91 0.67,-0.80 0.81,-0.69 0.92,-0.54 1.02,-0.39 1.07,-0.22 1.12,-0.04 1.11,0.13 1.10,0.32 1.03,0.49 0.96,0.65 0.84,0.79 0.73,0.93 0.57,1.03 0.41,1.12 0.23,1.16 0.06,1.20 -0.12,1.18 -0.30,1.16 -0.46,1.08 -0.63,1.01 -0.76,0.88 -0.89,0.76 -0.98,0.59 -1.06,0.43 -1.09,0.25 -1.12,0.07 -1.12,0.07 -1.12,0.07 -1.12,-0.05 -1.11,-0.19 -1.07,-0.32 -1.03,-0.45 -0.96,-0.57 -0.89,-0.69 -0.80,-0.78 -0.70,-0.88 -0.58,-0.95 -0.47,-1.02 -0.34,-1.06 -0.21,-1.11 -0.07,-1.12 0.05,-1.12 0.19,-1.10 0.32,-1.08 0.45,-1.02 0.57,-0.97 0.68,-0.88 0.79,-0.80 0.87,-0.69 0.96,-0.59 1.02,-0.46 1.07,-0.34 1.10,-0.21 1.12,-0.07 1.12,0.00 L 1.12,0.07 Z"></path></g><g stroke-linecap="round" transform="translate(57.7662871710246 99.64606223434924) rotate(0 16.41849617791368 3.3596563770593093)"><path d="M1.68 0 C8.42 -0.59, 15.28 -0.23, 31.16 0 M1.68 0 C9.38 -0.03, 16.76 -0.28, 31.16 0 M31.16 0 C31.67 -0.36, 32.13 0.67, 32.84 1.68 M31.16 0 C31.3 -1.08, 33.36 0.05, 32.84 1.68 M32.84 1.68 C32.81 2.58, 32.98 3.65, 32.84 5.04 M32.84 1.68 C32.9 2.9, 32.88 4.07, 32.84 5.04 M32.84 5.04 C33.31 6.32, 32.14 7.44, 31.16 6.72 M32.84 5.04 C31.93 5.05, 31.36 7.42, 31.16 6.72 M31.16 6.72 C22.64 6.07, 11.87 7.57, 1.68 6.72 M31.16 6.72 C23.35 6.74, 14.13 6.85, 1.68 6.72 M1.68 6.72 C-0.2 6.64, 0.34 5.74, 0 5.04 M1.68 6.72 C1.16 7.15, 0.53 7.2, 0 5.04 M0 5.04 C0.1 4.06, 0.13 2.99, 0 1.68 M0 5.04 C-0.04 4.18, 0.05 3.39, 0 1.68 M0 1.68 C-0.1 0.62, 0.99 0.06, 1.68 0 M0 1.68 C0.63 1.61, 1.45 -0.06, 1.68 0" stroke="#e03131" stroke-width="2" fill="none"></path></g><g stroke-linecap="round" transform="translate(66.99158001210185 710.9969065463173) rotate(0 10.005448267764507 10.42799202678927)"><path d="M5 0 C7.87 -0.07, 12.06 0.04, 15.01 0 M5 0 C7.94 -0.31, 10.1 -0.17, 15.01 0 M15.01 0 C16.93 0.22, 18.31 -0.21, 20.01 5 M15.01 0 C19.39 -1.02, 19.64 2.5, 20.01 5 M20.01 5 C20.89 9.41, 20.66 12.98, 20.01 15.85 M20.01 5 C20.34 7.8, 20.35 11.12, 20.01 15.85 M20.01 15.85 C19.73 20.64, 16.77 18.93, 15.01 20.86 M20.01 15.85 C18.17 20.6, 18.71 22.28, 15.01 20.86 M15.01 20.86 C10.64 21.53, 7.44 20.91, 5 20.86 M15.01 20.86 C12.46 21.15, 10.38 20.85, 5 20.86 M5 20.86 C2.35 20.02, 1.04 19.93, 0 15.85 M5 20.86 C2.74 22.93, 0.13 20.11, 0 15.85 M0 15.85 C0.82 12.65, -0.63 9.21, 0 5 M0 15.85 C0.35 13.31, 0 10.55, 0 5 M0 5 C0.87 1.79, 2.76 1.82, 5 0 M0 5 C1.79 1.55, 0.28 -1.99, 5 0" stroke="#e03131" stroke-width="2" fill="none"></path></g><g stroke-linecap="round" transform="translate(122.5754773050952 232.3910345965117) rotate(0 7.6148681640625 391.8750228881836)"><path d="M3.81 0 C7.21 -0.63, 9.58 -0.61, 11.42 0 M3.81 0 C5.78 0.25, 7.66 0.28, 11.42 0 M11.42 0 C13.49 -0.2, 17 1.12, 15.23 3.81 M11.42 0 C14.13 -0.96, 17.36 1.11, 15.23 3.81 M15.23 3.81 C15.84 178.94, 15.25 355.31, 15.23 779.94 M15.23 3.81 C12.65 296.14, 12.34 588.08, 15.23 779.94 M15.23 779.94 C17.07 784.45, 14.65 784.01, 11.42 783.75 M15.23 779.94 C15.27 781.08, 13.33 783.12, 11.42 783.75 M11.42 783.75 C10.43 783.79, 7.78 784.49, 3.81 783.75 M11.42 783.75 C9.52 784.12, 8.01 783.57, 3.81 783.75 M3.81 783.75 C0.41 782.25, 1.93 781.59, 0 779.94 M3.81 783.75 C1.78 783.09, -1.9 783.07, 0 779.94 M0 779.94 C-1.76 550.66, -2.78 322.46, 0 3.81 M0 779.94 C1.32 621.26, 2.02 463.16, 0 3.81 M0 3.81 C-0.94 0.72, 2.93 -1.63, 3.81 0 M0 3.81 C0.74 2.93, 2.97 -2.11, 3.81 0" stroke="#2f9e44" stroke-width="2" fill="none"></path></g><g stroke-linecap="round" transform="translate(135.8467319122812 202.4383744491393) rotate(0 19.02315585922633 18.772432367425182)"><path d="M14.62 0.45 C18.43 -0.63, 24.36 0.17, 28.08 2.01 C31.79 3.84, 35.41 7.66, 36.91 11.47 C38.42 15.27, 38.4 20.99, 37.12 24.85 C35.83 28.72, 32.68 32.47, 29.21 34.64 C25.75 36.8, 20.38 38.44, 16.34 37.85 C12.3 37.26, 7.68 34.16, 4.97 31.09 C2.26 28.03, 0.23 23.47, 0.08 19.46 C-0.07 15.45, 1.57 10.2, 4.08 7.04 C6.59 3.88, 13.12 1.64, 15.15 0.5 C17.19 -0.63, 16.15 -0.05, 16.29 0.23 M19.99 0.74 C24.02 0.68, 28.75 2.24, 31.72 4.67 C34.69 7.1, 37.24 11.4, 37.82 15.33 C38.39 19.25, 37.36 24.76, 35.15 28.19 C32.94 31.62, 28.25 34.44, 24.54 35.88 C20.82 37.33, 16.56 38.28, 12.87 36.86 C9.18 35.44, 4.37 31.04, 2.39 27.37 C0.42 23.7, 0.23 18.62, 1.01 14.84 C1.79 11.06, 4.06 7.09, 7.1 4.72 C10.14 2.35, 17.1 1.42, 19.24 0.62 C21.39 -0.18, 20.02 -0.19, 19.97 -0.07" stroke="#2f9e44" stroke-width="2" fill="none"></path></g><g stroke-linecap="round" transform="translate(138.32721903844242 910.456249734748) rotate(0 16.418496177913685 3.3596563770593093)"><path d="M1.68 0 C7.44 0.11, 13.47 0.13, 31.16 0 M1.68 0 C12.04 -0.14, 23.08 -0.13, 31.16 0 M31.16 0 C32.35 -0.42, 33.76 0.49, 32.84 1.68 M31.16 0 C31.43 0.14, 32.52 0.91, 32.84 1.68 M32.84 1.68 C32.96 2.34, 32.92 3.26, 32.84 5.04 M32.84 1.68 C32.9 2.79, 32.85 3.75, 32.84 5.04 M32.84 5.04 C32.85 5.55, 32 6.45, 31.16 6.72 M32.84 5.04 C31.71 5.21, 33.22 7.55, 31.16 6.72 M31.16 6.72 C21.85 6.97, 14.28 6.77, 1.68 6.72 M31.16 6.72 C19.66 6.26, 9.08 6.41, 1.68 6.72 M1.68 6.72 C0.78 6.43, -0.83 6.41, 0 5.04 M1.68 6.72 C0.5 7.57, -0.49 6.94, 0 5.04 M0 5.04 C-0.15 4.1, 0.07 3.2, 0 1.68 M0 5.04 C-0.06 4.14, 0.05 3.21, 0 1.68 M0 1.68 C0.32 1.28, 1.3 -0.92, 1.68 0 M0 1.68 C0.73 -0.57, 0.52 -0.93, 1.68 0" stroke="#2f9e44" stroke-width="2" fill="none"></path></g><g stroke-linecap="round" transform="translate(171.3434184510728 248.3549964899318) rotate(0 3.404931676327976 355.273854925146)"><path d="M1.7 0 C2.33 0, 3.24 -0.04, 5.11 0 M1.7 0 C3.02 0, 4.19 -0.03, 5.11 0 M5.11 0 C7.17 -0.07, 6.07 0.69, 6.81 1.7 M5.11 0 C5.93 0.35, 6.1 0.06, 6.81 1.7 M6.81 1.7 C8.1 235.5, 7.92 469.04, 6.81 708.85 M6.81 1.7 C8.18 153.34, 8.11 304.81, 6.81 708.85 M6.81 708.85 C6.53 709.71, 5.26 709.72, 5.11 710.55 M6.81 708.85 C7.75 710.81, 6.21 709.7, 5.11 710.55 M5.11 710.55 C3.89 710.54, 2.6 710.7, 1.7 710.55 M5.11 710.55 C4.37 710.5, 3.49 710.51, 1.7 710.55 M1.7 710.55 C-0.26 710.8, -0.05 710.72, 0 708.85 M1.7 710.55 C0.07 711.33, -0.53 709.3, 0 708.85 M0 708.85 C1.49 466.5, 1.2 225.18, 0 1.7 M0 708.85 C0.83 447.67, 0.73 186.97, 0 1.7 M0 1.7 C0.74 -0.35, 1.2 -0.98, 1.7 0 M0 1.7 C-0.04 -0.36, 1.41 -1.07, 1.7 0" stroke="#2f9e44" stroke-width="2" fill="none"></path></g><g stroke-linecap="round" transform="translate(178.80631405778888 235.9164525648435) rotate(0 4.552425393770193 362.2693081930198)"><path d="M2.28 0 C3.76 -0.05, 5.14 -0.05, 6.83 0 M2.28 0 C3.6 -0.05, 5.02 -0.01, 6.83 0 M6.83 0 C7.61 0.12, 8.83 1.07, 9.1 2.28 M6.83 0 C7.64 -0.5, 9.46 1.64, 9.1 2.28 M9.1 2.28 C9.88 159.1, 9.51 317, 9.1 722.26 M9.1 2.28 C9.61 289, 9.55 575.91, 9.1 722.26 M9.1 722.26 C8.13 722.95, 9.17 725.26, 6.83 724.54 M9.1 722.26 C9.08 722.94, 9.38 723.92, 6.83 724.54 M6.83 724.54 C5.6 724.74, 3.85 724.44, 2.28 724.54 M6.83 724.54 C5.83 724.5, 4.69 724.56, 2.28 724.54 M2.28 724.54 C0.71 725.28, -0.43 724.46, 0 722.26 M2.28 724.54 C0.23 723.86, 0.49 722.68, 0 722.26 M0 722.26 C-0.64 544.76, -0.21 366.32, 0 2.28 M0 722.26 C-1.13 526.14, -1.05 329.55, 0 2.28 M0 2.28 C0.63 -0.22, 0.73 -0.81, 2.28 0 M0 2.28 C0.84 -0.31, 1.35 0.99, 2.28 0" stroke="#2f9e44" stroke-width="2" fill="none"></path></g><g stroke-linecap="round" transform="translate(89.60708989744103 317.998190735971) rotate(0 4.2139908492638085 14.204289427865632)"><path d="M2.11 0 C3.5 -0.04, 4.61 0.19, 6.32 0 M2.11 0 C3.44 0, 4.5 0.02, 6.32 0 M6.32 0 C7.45 0.31, 7.81 0.27, 8.43 2.11 M6.32 0 C8.08 0.88, 7.49 1.3, 8.43 2.11 M8.43 2.11 C7.58 10.03, 9.42 16.46, 8.43 26.3 M8.43 2.11 C8.29 9.55, 7.94 16.84, 8.43 26.3 M8.43 26.3 C9.25 28.43, 7.7 27.68, 6.32 28.41 M8.43 26.3 C9.46 27.09, 7.86 29.17, 6.32 28.41 M6.32 28.41 C4.96 28.34, 3.7 28.63, 2.11 28.41 M6.32 28.41 C5.16 28.43, 4.16 28.48, 2.11 28.41 M2.11 28.41 C0.27 29.09, -0.46 27.12, 0 26.3 M2.11 28.41 C1.19 27.31, -0.61 28.09, 0 26.3 M0 26.3 C0.74 20.54, -0.23 16.54, 0 2.11 M0 26.3 C0.33 20.55, 0.28 15.23, 0 2.11 M0 2.11 C-0.03 -0.11, 1.43 -0.93, 2.11 0 M0 2.11 C0.59 1.69, -0.33 0.44, 2.11 0" stroke="#2f9e44" stroke-width="2" fill="none"></path></g><g stroke-linecap="round" transform="translate(99.48698817701978 328.9449002296675) rotate(0 10.954766837576528 3.588738865905654)"><path d="M1.79 0 C6.78 0.83, 11.89 0.09, 20.12 0 M1.79 0 C6.19 0.06, 11.14 0.15, 20.12 0 M20.12 0 C20.69 -0.44, 22.22 1.36, 21.91 1.79 M20.12 0 C20.37 0.6, 21.79 0.67, 21.91 1.79 M21.91 1.79 C22.07 2.62, 21.92 3.32, 21.91 5.38 M21.91 1.79 C21.82 2.58, 21.98 3.58, 21.91 5.38 M21.91 5.38 C21.88 5.85, 22.21 6.64, 20.12 7.18 M21.91 5.38 C22.05 7.34, 21.22 8.13, 20.12 7.18 M20.12 7.18 C12.28 8.02, 5.42 7.34, 1.79 7.18 M20.12 7.18 C15.12 7.54, 9.98 7.51, 1.79 7.18 M1.79 7.18 C0.14 6.59, 0.42 5.62, 0 5.38 M1.79 7.18 C-0.01 7.57, -0.93 6.14, 0 5.38 M0 5.38 C-0.06 4.12, -0.16 2.62, 0 1.79 M0 5.38 C0.04 3.96, -0.02 2.64, 0 1.79 M0 1.79 C0.73 -0.33, 1.11 0.86, 1.79 0 M0 1.79 C-1.03 1.04, 0.69 1.15, 1.79 0" stroke="#2f9e44" stroke-width="2" fill="none"></path></g><g stroke-linecap="round" transform="translate(88.67548525602376 352.92956244945435) rotate(0 4.2139908492638085 14.204289427865632)"><path d="M2.11 0 C3.26 0, 4.35 0.18, 6.32 0 M2.11 0 C3.31 0.03, 4.51 -0.05, 6.32 0 M6.32 0 C8.03 0.77, 7.61 1.22, 8.43 2.11 M6.32 0 C7.6 0.07, 7.41 -0.28, 8.43 2.11 M8.43 2.11 C8.68 11.61, 7.94 20.8, 8.43 26.3 M8.43 2.11 C8.72 9.07, 8.3 14.94, 8.43 26.3 M8.43 26.3 C9.32 27.17, 7.84 29.07, 6.32 28.41 M8.43 26.3 C8.34 28.66, 8.76 27.72, 6.32 28.41 M6.32 28.41 C5.14 28.48, 4.09 28.25, 2.11 28.41 M6.32 28.41 C4.9 28.5, 3.53 28.36, 2.11 28.41 M2.11 28.41 C1.12 27.45, -0.53 28.04, 0 26.3 M2.11 28.41 C-0.23 27.97, 1.08 28.5, 0 26.3 M0 26.3 C-0.78 20.5, 0.76 14.79, 0 2.11 M0 26.3 C-0.09 20.86, 0.29 15.76, 0 2.11 M0 2.11 C0.51 1.56, -0.2 0.38, 2.11 0 M0 2.11 C0.09 1.85, 0.04 0.58, 2.11 0" stroke="#2f9e44" stroke-width="2" fill="none"></path></g><g stroke-linecap="round" transform="translate(98.55538353560252 363.87627194315087) rotate(0 10.954766837576528 3.588738865905654)"><path d="M1.79 0 C8.53 0.84, 15.96 -0.68, 20.12 0 M1.79 0 C7.23 -0.23, 13.36 0.32, 20.12 0 M20.12 0 C20.49 0.52, 21.8 0.66, 21.91 1.79 M20.12 0 C20.3 -0.98, 22.97 1.73, 21.91 1.79 M21.91 1.79 C21.8 2.95, 21.86 4.02, 21.91 5.38 M21.91 1.79 C21.92 2.51, 22 3.3, 21.91 5.38 M21.91 5.38 C22.03 7.24, 21.23 8, 20.12 7.18 M21.91 5.38 C22.94 5.89, 20.82 6.32, 20.12 7.18 M20.12 7.18 C12.59 6.44, 5.81 7.15, 1.79 7.18 M20.12 7.18 C13.05 6.97, 6.6 6.8, 1.79 7.18 M1.79 7.18 C0.07 7.51, -0.81 6.2, 0 5.38 M1.79 7.18 C1.68 7.97, -0.54 6.26, 0 5.38 M0 5.38 C0.14 4.14, -0.15 2.75, 0 1.79 M0 5.38 C0.07 4.58, 0.05 4.01, 0 1.79 M0 1.79 C-0.9 0.98, 0.68 1, 1.79 0 M0 1.79 C-0.67 1.18, -0.46 -1.09, 1.79 0" stroke="#2f9e44" stroke-width="2" fill="none"></path></g><g stroke-linecap="round" transform="translate(90.81378281488082 770.5949543751084) rotate(0 4.2139908492638085 14.204289427865632)"><path d="M2.11 0 C3.39 -0.17, 4.72 -0.08, 6.32 0 M2.11 0 C3.53 0.09, 4.81 0.06, 6.32 0 M6.32 0 C7.62 0.06, 7.55 -0.15, 8.43 2.11 M6.32 0 C8.78 1.13, 8.83 0.85, 8.43 2.11 M8.43 2.11 C8.08 8.43, 7.53 17.53, 8.43 26.3 M8.43 2.11 C8.87 10.85, 8.48 20.46, 8.43 26.3 M8.43 26.3 C8.35 28.53, 8.63 27.81, 6.32 28.41 M8.43 26.3 C7.94 26.84, 8.84 27.9, 6.32 28.41 M6.32 28.41 C5.02 28.38, 3.76 28.3, 2.11 28.41 M6.32 28.41 C4.82 28.3, 3.17 28.43, 2.11 28.41 M2.11 28.41 C-0.11 28.03, 0.94 28.4, 0 26.3 M2.11 28.41 C0.16 28.09, 0.95 26.77, 0 26.3 M0 26.3 C-1 18.89, -1.07 10.19, 0 2.11 M0 26.3 C0.17 21.44, -0.54 15.9, 0 2.11 M0 2.11 C0.08 1.7, 0.12 0.5, 2.11 0 M0 2.11 C-1.06 -0.39, 0.21 0.04, 2.11 0" stroke="#2f9e44" stroke-width="2" fill="none"></path></g><g stroke-linecap="round" transform="translate(100.69368109445958 781.5416638688049) rotate(0 10.954766837576528 3.5887388659056683)"><path d="M1.79 0 C9.1 -0.18, 16.46 -0.5, 20.12 0 M1.79 0 C6.12 0.17, 11.14 -0.04, 20.12 0 M20.12 0 C20.43 -0.86, 22.83 1.58, 21.91 1.79 M20.12 0 C21.71 0.15, 21.93 -0.1, 21.91 1.79 M21.91 1.79 C21.76 2.92, 22.03 3.75, 21.91 5.38 M21.91 1.79 C21.94 2.67, 21.92 3.5, 21.91 5.38 M21.91 5.38 C22.81 5.98, 20.88 6.43, 20.12 7.18 M21.91 5.38 C23.02 6.07, 21.57 6.85, 20.12 7.18 M20.12 7.18 C16.82 6.78, 12.78 6.75, 1.79 7.18 M20.12 7.18 C15.46 7.24, 10.91 6.92, 1.79 7.18 M1.79 7.18 C1.54 7.87, -0.47 6.31, 0 5.38 M1.79 7.18 C1.55 6.24, 0.37 7.41, 0 5.38 M0 5.38 C-0.16 4.04, -0.13 2.83, 0 1.79 M0 5.38 C-0.09 4.67, 0 3.99, 0 1.79 M0 1.79 C-0.58 1.1, -0.33 -0.95, 1.79 0 M0 1.79 C-0.49 0.63, 0.15 0.01, 1.79 0" stroke="#2f9e44" stroke-width="2" fill="none"></path></g><g transform="translate(311.91910765806995 835.4592598939555) rotate(0 0 0.06747167008137467)" stroke="none"><path fill="#2f9e44" d="M 1.12,0.07 Q 1.12,0.07 1.09,0.25 1.06,0.43 0.98,0.59 0.89,0.76 0.76,0.88 0.63,1.01 0.46,1.08 0.30,1.16 0.12,1.18 -0.06,1.20 -0.23,1.16 -0.41,1.12 -0.57,1.03 -0.73,0.93 -0.84,0.79 -0.96,0.65 -1.03,0.48 -1.10,0.32 -1.11,0.13 -1.12,-0.04 -1.07,-0.22 -1.02,-0.39 -0.92,-0.54 -0.81,-0.69 -0.67,-0.80 -0.52,-0.91 -0.35,-0.97 -0.18,-1.03 0.00,-1.03 0.18,-1.03 0.35,-0.97 0.52,-0.91 0.67,-0.80 0.81,-0.69 0.92,-0.54 1.02,-0.39 1.07,-0.22 1.12,-0.04 1.11,0.13 1.10,0.32 1.03,0.49 0.96,0.65 0.84,0.79 0.73,0.93 0.57,1.03 0.41,1.12 0.23,1.16 0.06,1.20 -0.12,1.18 -0.30,1.16 -0.46,1.08 -0.63,1.01 -0.76,0.88 -0.89,0.76 -0.98,0.59 -1.06,0.43 -1.09,0.25 -1.12,0.07 -1.12,0.07 -1.12,0.07 -1.12,-0.05 -1.11,-0.19 -1.07,-0.32 -1.03,-0.45 -0.96,-0.57 -0.89,-0.69 -0.80,-0.78 -0.70,-0.88 -0.58,-0.95 -0.47,-1.02 -0.34,-1.06 -0.21,-1.11 -0.07,-1.12 0.05,-1.12 0.19,-1.10 0.32,-1.08 0.45,-1.02 0.57,-0.97 0.68,-0.88 0.79,-0.80 0.87,-0.69 0.96,-0.59 1.02,-0.46 1.07,-0.34 1.10,-0.21 1.12,-0.07 1.12,0.00 L 1.12,0.07 Z"></path></g><g stroke-linecap="round" transform="translate(136.44177242704836 292.0844366834886) rotate(0 16.418496177913685 3.3596563770593093)"><path d="M1.68 0 C9.28 0.4, 18.52 -0.73, 31.16 0 M1.68 0 C11.62 -0.44, 22.9 0.48, 31.16 0 M31.16 0 C32.62 0.13, 32.85 -0.05, 32.84 1.68 M31.16 0 C31.96 -0.31, 31.71 -0.39, 32.84 1.68 M32.84 1.68 C32.73 3.11, 32.76 4.27, 32.84 5.04 M32.84 1.68 C32.91 2.86, 32.8 4.08, 32.84 5.04 M32.84 5.04 C33.8 5.71, 32.5 6.43, 31.16 6.72 M32.84 5.04 C31.88 6.45, 32.22 7.57, 31.16 6.72 M31.16 6.72 C22.99 7.07, 15.04 6.12, 1.68 6.72 M31.16 6.72 C21.79 7.01, 11.25 6.53, 1.68 6.72 M1.68 6.72 C1.39 5.91, 0.32 6.88, 0 5.04 M1.68 6.72 C1.41 5.66, 0.73 5.03, 0 5.04 M0 5.04 C-0.14 4.13, 0.16 2.89, 0 1.68 M0 5.04 C-0.05 3.95, -0.08 2.69, 0 1.68 M0 1.68 C-0.43 0.59, 0.17 0.01, 1.68 0 M0 1.68 C0.74 0.11, 1.13 -0.66, 1.68 0" stroke="#2f9e44" stroke-width="2" fill="none"></path></g><g stroke-linecap="round" transform="translate(145.6670652681256 903.4352809954567) rotate(0 10.005448267764507 10.42799202678924)"><path d="M5 0 C8.15 -0.85, 10.29 -0.14, 15.01 0 M5 0 C8.52 0.58, 11.3 0.15, 15.01 0 M15.01 0 C18.38 -1.22, 19.46 1.12, 20.01 5 M15.01 0 C16.09 -1.91, 21.89 3.33, 20.01 5 M20.01 5 C19.35 8.36, 20.65 11.37, 20.01 15.85 M20.01 5 C19.88 8.75, 20.63 13.07, 20.01 15.85 M20.01 15.85 C20.45 18.62, 16.69 21.37, 15.01 20.86 M20.01 15.85 C19.89 20.9, 17.36 22.41, 15.01 20.86 M15.01 20.86 C11.51 20.37, 10.27 20.09, 5 20.86 M15.01 20.86 C12.15 20.79, 10.18 20.52, 5 20.86 M5 20.86 C2.31 22.3, 1.48 17.35, 0 15.85 M5 20.86 C3.12 18.6, -0.07 17.32, 0 15.85 M0 15.85 C1.03 10.83, 0.52 7.84, 0 5 M0 15.85 C-0.44 11, -0.17 7.2, 0 5 M0 5 C-0.78 1.69, 2.96 -0.78, 5 0 M0 5 C1.14 0.34, 1.5 2.13, 5 0" stroke="#2f9e44" stroke-width="2" fill="none"></path></g><g stroke-linecap="round" transform="translate(201.78083809264865 264.99778859028083) rotate(0 7.6148681640625 391.8750228881836)"><path d="M3.81 0 C5.98 0.35, 8.66 -0.41, 11.42 0 M3.81 0 C5.57 0.25, 7.51 -0.24, 11.42 0 M11.42 0 C12.45 1.94, 14.6 0.21, 15.23 3.81 M11.42 0 C15.81 1.09, 15.53 3.19, 15.23 3.81 M15.23 3.81 C12.63 258.21, 13.24 513.78, 15.23 779.94 M15.23 3.81 C17.72 175.93, 17.64 347.99, 15.23 779.94 M15.23 779.94 C14.96 781.14, 13.43 782.34, 11.42 783.75 M15.23 779.94 C17.34 783.6, 13.62 784.87, 11.42 783.75 M11.42 783.75 C9.58 784.52, 7.62 783.13, 3.81 783.75 M11.42 783.75 C9.35 783.73, 6.54 784.02, 3.81 783.75 M3.81 783.75 C2.56 783.01, 1.39 784.39, 0 779.94 M3.81 783.75 C3.48 784.9, 1.02 781.19, 0 779.94 M0 779.94 C-3.19 533.51, -3.26 288.28, 0 3.81 M0 779.94 C-0.54 482.25, -0.16 184.81, 0 3.81 M0 3.81 C-0.97 0.38, 0.21 1.34, 3.81 0 M0 3.81 C0.03 0.3, -0.18 2, 3.81 0" stroke="#1971c2" stroke-width="2" fill="none"></path></g><g stroke-linecap="round" transform="translate(215.05209269983465 235.04512844290844) rotate(0 19.02315585922633 18.772432367425182)"><path d="M16.03 -0.1 C19.9 -1.02, 25.72 0.2, 29.17 2.27 C32.61 4.33, 35.35 8.46, 36.7 12.31 C38.05 16.16, 38.72 21.48, 37.26 25.36 C35.8 29.25, 31.57 33.62, 27.96 35.61 C24.35 37.59, 19.49 38.08, 15.61 37.26 C11.72 36.44, 7.31 33.86, 4.64 30.71 C1.98 27.56, -0.37 22.45, -0.38 18.37 C-0.4 14.28, 1.7 9.18, 4.56 6.18 C7.42 3.18, 14.76 1.26, 16.77 0.38 C18.78 -0.51, 16.63 0.58, 16.61 0.87 M18.64 -0.5 C22.47 -0.86, 27.54 1, 30.84 3.69 C34.13 6.37, 37.61 11.51, 38.4 15.61 C39.18 19.71, 37.75 24.93, 35.53 28.28 C33.3 31.64, 28.74 34.42, 25.07 35.74 C21.4 37.06, 17.1 37.56, 13.49 36.22 C9.87 34.88, 5.7 31.09, 3.38 27.71 C1.06 24.32, -0.89 19.75, -0.44 15.93 C0.01 12.1, 2.74 7.43, 6.05 4.76 C9.36 2.09, 17.33 0.57, 19.44 -0.08 C21.55 -0.72, 18.73 0.6, 18.7 0.88" stroke="#1971c2" stroke-width="2" fill="none"></path></g><g stroke-linecap="round" transform="translate(217.53257982599587 943.0630037285172) rotate(0 16.418496177913685 3.3596563770593093)"><path d="M1.68 0 C11.29 0.24, 21.53 -0.57, 31.16 0 M1.68 0 C12.06 0.58, 23.05 -0.17, 31.16 0 M31.16 0 C33.08 0.47, 32.97 1.39, 32.84 1.68 M31.16 0 C32.6 -0.89, 32.71 0.27, 32.84 1.68 M32.84 1.68 C32.71 2.64, 32.81 3.39, 32.84 5.04 M32.84 1.68 C32.83 2.61, 32.82 3.6, 32.84 5.04 M32.84 5.04 C33.76 6.65, 32.13 7.21, 31.16 6.72 M32.84 5.04 C31.73 5.28, 33.36 6.28, 31.16 6.72 M31.16 6.72 C19.8 5.87, 8.32 7.51, 1.68 6.72 M31.16 6.72 C22.95 6.63, 14.44 7.29, 1.68 6.72 M1.68 6.72 C1.52 7.22, 0.44 5.6, 0 5.04 M1.68 6.72 C0.75 7.65, 0.12 5.19, 0 5.04 M0 5.04 C0.16 4.35, 0.18 3.49, 0 1.68 M0 5.04 C-0.04 4.02, -0.05 3.13, 0 1.68 M0 1.68 C0.01 0.14, -0.07 0.87, 1.68 0 M0 1.68 C0.87 0.03, 0.9 -0.45, 1.68 0" stroke="#1971c2" stroke-width="2" fill="none"></path></g><g stroke-linecap="round" transform="translate(250.54877923862625 280.96175048370094) rotate(0 3.404931676327976 355.27385492514594)"><path d="M1.7 0 C2.5 -0.12, 3.43 -0.15, 5.11 0 M1.7 0 C2.48 -0.06, 3.38 0.02, 5.11 0 M5.11 0 C6.37 0.83, 7.09 -0.2, 6.81 1.7 M5.11 0 C6.12 -0.29, 6.22 1.15, 6.81 1.7 M6.81 1.7 C5.62 243.86, 5.68 485.85, 6.81 708.85 M6.81 1.7 C6.56 196.78, 6.8 392.24, 6.81 708.85 M6.81 708.85 C6.66 710.47, 5.28 709.78, 5.11 710.55 M6.81 708.85 C7.89 709.54, 7.3 709.49, 5.11 710.55 M5.11 710.55 C4.44 710.69, 3.67 710.52, 1.7 710.55 M5.11 710.55 C3.92 710.62, 2.69 710.58, 1.7 710.55 M1.7 710.55 C1.01 709.98, 0.17 710.79, 0 708.85 M1.7 710.55 C0.69 709.57, -1.07 708.91, 0 708.85 M0 708.85 C-0.79 521.23, -1.21 334.35, 0 1.7 M0 708.85 C0.58 462.78, 0.69 216.36, 0 1.7 M0 1.7 C-0.63 1.44, 1.32 -0.46, 1.7 0 M0 1.7 C0.34 0.11, 0.5 -0.36, 1.7 0" stroke="#1971c2" stroke-width="2" fill="none"></path></g><g stroke-linecap="round" transform="translate(258.0116748453423 268.5232065586126) rotate(0 4.552425393770193 362.2693081930198)"><path d="M2.28 0 C3.86 -0.18, 5 -0.16, 6.83 0 M2.28 0 C4.18 0.07, 5.91 0.11, 6.83 0 M6.83 0 C8.63 -0.77, 9 0.51, 9.1 2.28 M6.83 0 C7.76 0.58, 9.59 -0.14, 9.1 2.28 M9.1 2.28 C8.78 273.8, 8.71 545.24, 9.1 722.26 M9.1 2.28 C8.9 169.98, 8.69 337.59, 9.1 722.26 M9.1 722.26 C8.14 723.01, 9.29 724.16, 6.83 724.54 M9.1 722.26 C10.16 722.72, 7.3 724.76, 6.83 724.54 M6.83 724.54 C5.76 724.55, 4.9 724.71, 2.28 724.54 M6.83 724.54 C5.74 724.62, 4.48 724.5, 2.28 724.54 M2.28 724.54 C0.92 725.35, 0.1 722.93, 0 722.26 M2.28 724.54 C-0.31 723.47, -0.4 724.74, 0 722.26 M0 722.26 C-1.45 502.16, -1.23 281.83, 0 2.28 M0 722.26 C0.77 538.23, 0.64 354.53, 0 2.28 M0 2.28 C0.76 0.3, 1.06 -0.39, 2.28 0 M0 2.28 C-0.06 0.4, 0.02 -0.45, 2.28 0" stroke="#1971c2" stroke-width="2" fill="none"></path></g><g stroke-linecap="round" transform="translate(168.81245068499447 350.6049447297401) rotate(0 4.2139908492638085 14.204289427865632)"><path d="M2.11 0 C2.96 -0.14, 4.28 -0.05, 6.32 0 M2.11 0 C3.16 0.08, 4.22 -0.09, 6.32 0 M6.32 0 C7.62 -0.25, 7.92 1.21, 8.43 2.11 M6.32 0 C8.21 -0.9, 9.31 0.46, 8.43 2.11 M8.43 2.11 C8.18 9.79, 7.75 17.47, 8.43 26.3 M8.43 2.11 C8.47 7.91, 8.06 12.83, 8.43 26.3 M8.43 26.3 C9.37 27.33, 8.64 27.49, 6.32 28.41 M8.43 26.3 C7.38 27.93, 6.91 28.7, 6.32 28.41 M6.32 28.41 C4.81 28.54, 2.93 28.55, 2.11 28.41 M6.32 28.41 C4.7 28.36, 3.01 28.5, 2.11 28.41 M2.11 28.41 C0.81 27.56, -0.93 26.78, 0 26.3 M2.11 28.41 C0.3 29.37, 0.07 28.84, 0 26.3 M0 26.3 C0.49 20.74, -0.44 15.62, 0 2.11 M0 26.3 C-0.32 17.86, 0.38 8.32, 0 2.11 M0 2.11 C0.3 0.31, 0.65 -0.31, 2.11 0 M0 2.11 C-0.74 0.25, 1.66 -0.02, 2.11 0" stroke="#1971c2" stroke-width="2" fill="none"></path></g><g stroke-linecap="round" transform="translate(178.69234896457323 361.55165422343657) rotate(0 10.954766837576528 3.588738865905654)"><path d="M1.79 0 C6.62 -0.22, 9.17 0.81, 20.12 0 M1.79 0 C8.29 -0.43, 14.47 -0.19, 20.12 0 M20.12 0 C20.8 0.51, 22.33 -0.18, 21.91 1.79 M20.12 0 C22.2 -0.24, 22.17 0.53, 21.91 1.79 M21.91 1.79 C21.78 2.84, 21.78 4.14, 21.91 5.38 M21.91 1.79 C21.82 2.98, 21.99 4.26, 21.91 5.38 M21.91 5.38 C22.83 5.66, 20.4 7.37, 20.12 7.18 M21.91 5.38 C21.09 6.87, 22.38 7.06, 20.12 7.18 M20.12 7.18 C14.4 7.87, 10.23 8.12, 1.79 7.18 M20.12 7.18 C13.78 7.5, 7.34 6.74, 1.79 7.18 M1.79 7.18 C-0.33 6.25, -0.35 7.41, 0 5.38 M1.79 7.18 C0.66 8.31, -1.04 6.49, 0 5.38 M0 5.38 C-0.09 4.2, 0.11 3.21, 0 1.79 M0 5.38 C0.08 4.42, 0.04 3.5, 0 1.79 M0 1.79 C-0.05 0.29, -0.04 -0.39, 1.79 0 M0 1.79 C0.96 0.58, -0.32 0.93, 1.79 0" stroke="#1971c2" stroke-width="2" fill="none"></path></g><g stroke-linecap="round" transform="translate(167.8808460435772 385.5363164432235) rotate(0 4.2139908492638085 14.204289427865632)"><path d="M2.11 0 C2.94 0.18, 4.1 0.03, 6.32 0 M2.11 0 C3.71 -0.01, 5.28 0.07, 6.32 0 M6.32 0 C8.15 -0.78, 9.2 0.5, 8.43 2.11 M6.32 0 C7.99 -0.07, 8.47 0.43, 8.43 2.11 M8.43 2.11 C7.64 9.95, 8.83 15.82, 8.43 26.3 M8.43 2.11 C8.78 10.35, 8.77 18.52, 8.43 26.3 M8.43 26.3 C7.52 27.9, 7.01 28.66, 6.32 28.41 M8.43 26.3 C9.5 27.58, 7.65 29.18, 6.32 28.41 M6.32 28.41 C4.99 28.63, 3.36 28.52, 2.11 28.41 M6.32 28.41 C5.3 28.34, 4.17 28.33, 2.11 28.41 M2.11 28.41 C0.35 29.24, 0.06 28.69, 0 26.3 M2.11 28.41 C-0.34 28.32, 0.04 28.26, 0 26.3 M0 26.3 C0.72 20.23, -0.37 13.5, 0 2.11 M0 26.3 C0.06 16.75, -0.12 7.43, 0 2.11 M0 2.11 C-0.64 0.31, 1.54 -0.02, 2.11 0 M0 2.11 C-0.92 1.63, 1.54 -1.06, 2.11 0" stroke="#1971c2" stroke-width="2" fill="none"></path></g><g stroke-linecap="round" transform="translate(177.76074432315596 396.48302593691994) rotate(0 10.954766837576528 3.588738865905654)"><path d="M1.79 0 C7.15 0.05, 12.4 0.19, 20.12 0 M1.79 0 C5.64 0.26, 10.15 -0.34, 20.12 0 M20.12 0 C22.08 -0.21, 22.14 0.54, 21.91 1.79 M20.12 0 C21.35 -0.28, 21.75 -0.17, 21.91 1.79 M21.91 1.79 C21.98 2.75, 21.98 3.58, 21.91 5.38 M21.91 1.79 C22.01 2.51, 21.84 3.41, 21.91 5.38 M21.91 5.38 C21.2 6.83, 22.24 7.07, 20.12 7.18 M21.91 5.38 C21.84 7.35, 22.05 6.75, 20.12 7.18 M20.12 7.18 C13.8 7.67, 6.06 7.42, 1.79 7.18 M20.12 7.18 C12.71 6.67, 5.99 7.48, 1.79 7.18 M1.79 7.18 C0.66 8.17, -0.9 6.5, 0 5.38 M1.79 7.18 C0.64 7.73, -0.56 6.07, 0 5.38 M0 5.38 C-0.09 4.38, 0.14 3.75, 0 1.79 M0 5.38 C-0.01 4.44, -0.06 3.53, 0 1.79 M0 1.79 C0.84 0.58, -0.2 0.81, 1.79 0 M0 1.79 C0.83 -0.47, -0.52 -0.76, 1.79 0" stroke="#1971c2" stroke-width="2" fill="none"></path></g><g stroke-linecap="round" transform="translate(170.01914360243427 803.2017083688775) rotate(0 4.2139908492638085 14.204289427865632)"><path d="M2.11 0 C3.89 0.06, 5.15 -0.03, 6.32 0 M2.11 0 C3.31 -0.09, 4.51 -0.03, 6.32 0 M6.32 0 C7.96 -0.06, 8.46 0.46, 8.43 2.11 M6.32 0 C7.57 -0.77, 8.12 -0.11, 8.43 2.11 M8.43 2.11 C8.97 10.63, 7.72 22.01, 8.43 26.3 M8.43 2.11 C8.08 8.54, 8.18 14.91, 8.43 26.3 M8.43 26.3 C9.36 27.6, 7.66 29.08, 6.32 28.41 M8.43 26.3 C9.17 27.28, 8.53 29.5, 6.32 28.41 M6.32 28.41 C4.53 28.45, 3.15 28.44, 2.11 28.41 M6.32 28.41 C5.38 28.48, 4.51 28.49, 2.11 28.41 M2.11 28.41 C-0.2 28.33, 0.03 28.19, 0 26.3 M2.11 28.41 C0.14 27.9, -0.61 28.47, 0 26.3 M0 26.3 C0.92 19.76, -0.41 12.01, 0 2.11 M0 26.3 C-0.31 19.8, 0.42 13.68, 0 2.11 M0 2.11 C-0.8 1.51, 1.43 -0.93, 2.11 0 M0 2.11 C-1.12 -0.06, 0.66 -0.77, 2.11 0" stroke="#1971c2" stroke-width="2" fill="none"></path></g><g stroke-linecap="round" transform="translate(179.89904188201302 814.148417862574) rotate(0 10.954766837576528 3.58873886590564)"><path d="M1.79 0 C6.82 -0.13, 13.03 -0.5, 20.12 0 M1.79 0 C8.58 -0.02, 14.76 0.04, 20.12 0 M20.12 0 C21.35 -0.24, 21.77 -0.07, 21.91 1.79 M20.12 0 C21 -0.81, 22.97 1.16, 21.91 1.79 M21.91 1.79 C21.78 2.99, 21.85 4.01, 21.91 5.38 M21.91 1.79 C21.83 2.56, 21.98 3.28, 21.91 5.38 M21.91 5.38 C21.85 7.25, 21.95 6.81, 20.12 7.18 M21.91 5.38 C22.71 7.67, 22.42 7.75, 20.12 7.18 M20.12 7.18 C14.55 7.29, 6.72 6.34, 1.79 7.18 M20.12 7.18 C16.35 7.71, 12.12 7.22, 1.79 7.18 M1.79 7.18 C0.63 7.66, -0.49 6.13, 0 5.38 M1.79 7.18 C-0.01 7.95, 0.02 6.09, 0 5.38 M0 5.38 C-0.1 4.59, -0.09 3.67, 0 1.79 M0 5.38 C0.09 4.42, -0.06 3.53, 0 1.79 M0 1.79 C0.73 -0.33, -0.38 -0.66, 1.79 0 M0 1.79 C-0.04 -0.18, 0.11 0.61, 1.79 0" stroke="#1971c2" stroke-width="2" fill="none"></path></g><g transform="translate(391.1244684456234 868.0660138877247) rotate(0 0 0.06747167008137467)" stroke="none"><path fill="#1971c2" d="M 1.12,0.07 Q 1.12,0.07 1.09,0.25 1.06,0.43 0.98,0.59 0.89,0.76 0.76,0.88 0.63,1.01 0.46,1.08 0.30,1.16 0.12,1.18 -0.06,1.20 -0.23,1.16 -0.41,1.12 -0.57,1.03 -0.73,0.93 -0.84,0.79 -0.96,0.65 -1.03,0.48 -1.10,0.32 -1.11,0.13 -1.12,-0.04 -1.07,-0.22 -1.02,-0.39 -0.92,-0.54 -0.81,-0.69 -0.67,-0.80 -0.52,-0.91 -0.35,-0.97 -0.18,-1.03 0.00,-1.03 0.18,-1.03 0.35,-0.97 0.52,-0.91 0.67,-0.80 0.81,-0.69 0.92,-0.54 1.02,-0.39 1.07,-0.22 1.12,-0.04 1.11,0.13 1.10,0.32 1.03,0.49 0.96,0.65 0.84,0.79 0.73,0.93 0.57,1.03 0.41,1.12 0.23,1.16 0.06,1.20 -0.12,1.18 -0.30,1.16 -0.46,1.08 -0.63,1.01 -0.76,0.88 -0.89,0.76 -0.98,0.59 -1.06,0.43 -1.09,0.25 -1.12,0.07 -1.12,0.07 -1.12,0.07 -1.12,-0.05 -1.11,-0.19 -1.07,-0.32 -1.03,-0.45 -0.96,-0.57 -0.89,-0.69 -0.80,-0.78 -0.70,-0.88 -0.58,-0.95 -0.47,-1.02 -0.34,-1.06 -0.21,-1.11 -0.07,-1.12 0.05,-1.12 0.19,-1.10 0.32,-1.08 0.45,-1.02 0.57,-0.97 0.68,-0.88 0.79,-0.80 0.87,-0.69 0.96,-0.59 1.02,-0.46 1.07,-0.34 1.10,-0.21 1.12,-0.07 1.12,0.00 L 1.12,0.07 Z"></path></g><g stroke-linecap="round" transform="translate(215.6471332146018 324.69119067725774) rotate(0 16.418496177913685 3.3596563770593093)"><path d="M1.68 0 C11.11 -0.5, 21.54 0.44, 31.16 0 M1.68 0 C8.33 0, 14.77 -0.09, 31.16 0 M31.16 0 C32.14 -0.67, 32.57 -0.14, 32.84 1.68 M31.16 0 C33.33 0.56, 32.67 1.12, 32.84 1.68 M32.84 1.68 C32.76 2.52, 32.67 2.9, 32.84 5.04 M32.84 1.68 C32.9 2.74, 32.82 3.88, 32.84 5.04 M32.84 5.04 C33.48 5.79, 32.97 7.67, 31.16 6.72 M32.84 5.04 C33.94 6.73, 32.79 6.07, 31.16 6.72 M31.16 6.72 C20.98 5.81, 11.56 6.38, 1.68 6.72 M31.16 6.72 C19.4 6.83, 8.56 7.11, 1.68 6.72 M1.68 6.72 C0.07 6.27, -0.53 6.83, 0 5.04 M1.68 6.72 C0.58 6.23, -0.72 7.16, 0 5.04 M0 5.04 C-0.06 3.77, -0.04 2.41, 0 1.68 M0 5.04 C-0.08 4.23, 0.05 3.21, 0 1.68 M0 1.68 C-0.98 -0.1, 0.52 -0.67, 1.68 0 M0 1.68 C-0.49 1.17, 1.65 -0.23, 1.68 0" stroke="#1971c2" stroke-width="2" fill="none"></path></g><g stroke-linecap="round" transform="translate(224.87242605567906 936.0420349892257) rotate(0 10.005448267764507 10.427992026789298)"><path d="M5 0 C9.32 -0.82, 12.6 0.32, 15.01 0 M5 0 C7.5 -0.5, 9.95 -0.1, 15.01 0 M15.01 0 C19.02 -0.98, 18.65 1.12, 20.01 5 M15.01 0 C19.28 2.25, 17.77 0.74, 20.01 5 M20.01 5 C20.84 9.2, 20.19 12.94, 20.01 15.85 M20.01 5 C20.26 9.01, 20.54 13.48, 20.01 15.85 M20.01 15.85 C18.09 17.49, 17.92 20.15, 15.01 20.86 M20.01 15.85 C22.11 17.79, 19.48 20.16, 15.01 20.86 M15.01 20.86 C11.42 21.81, 9.37 20.94, 5 20.86 M15.01 20.86 C11.14 21.32, 7.11 20.66, 5 20.86 M5 20.86 C2.05 22.84, -0.65 18.83, 0 15.85 M5 20.86 C0.09 18.89, -1.14 19.41, 0 15.85 M0 15.85 C0.2 11.64, 0.22 10.22, 0 5 M0 15.85 C0.28 13.37, -0.16 9.62, 0 5 M0 5 C1.59 1.22, 3.05 -0.43, 5 0 M0 5 C-1.72 3.63, 1.32 -0.5, 5 0" stroke="#1971c2" stroke-width="2" fill="none"></path></g><g transform="translate(61.173710199470406 769.188862530111) rotate(0 -1.317570421882408 1.183231561303728)" stroke="none"><path fill="#1e1e1e" d="M -1.26,-0.35 Q -1.26,-0.35 -1.15,-0.76 -1.03,-1.18 -0.64,-1.65 -0.25,-2.11 0.51,-2.38 1.29,-2.65 1.84,-2.49 2.40,-2.32 2.79,-1.93 3.18,-1.53 3.32,-0.63 3.46,0.26 3.34,0.85 3.23,1.44 2.81,2.07 2.40,2.70 1.80,3.17 1.20,3.65 0.51,3.99 -0.16,4.33 -0.84,4.55 -1.51,4.77 -2.09,4.89 -2.68,5.00 -3.64,4.94 -4.60,4.88 -5.10,4.50 -5.60,4.12 -5.79,3.60 -5.99,3.09 -6.05,2.35 -6.11,1.61 -5.83,0.62 -5.55,-0.36 -5.23,-0.80 -4.91,-1.23 -4.06,-1.83 -3.20,-2.43 -2.41,-2.58 -1.63,-2.73 -0.89,-2.76 -0.16,-2.79 0.77,-2.24 1.71,-1.68 1.87,-0.94 2.02,-0.20 1.90,0.32 1.79,0.86 1.34,1.43 0.90,2.00 0.31,2.34 -0.28,2.68 -0.90,2.85 -1.53,3.02 -2.82,2.40 -4.10,1.77 -4.31,1.80 -4.52,1.83 -4.72,1.80 -4.93,1.78 -5.13,1.71 -5.32,1.63 -5.50,1.52 -5.67,1.40 -5.81,1.24 -5.95,1.09 -6.05,0.90 -6.14,0.72 -6.20,0.52 -6.25,0.31 -6.25,0.11 -6.25,-0.09 -6.20,-0.30 -6.15,-0.50 -6.06,-0.69 -5.96,-0.87 -5.82,-1.03 -5.69,-1.19 -5.52,-1.31 -5.35,-1.43 -5.15,-1.50 -4.96,-1.58 -5.61,-0.82 -6.25,-0.06 -6.18,-0.33 -6.11,-0.60 -5.96,-0.83 -5.81,-1.07 -5.59,-1.24 -5.37,-1.41 -5.10,-1.51 -4.84,-1.60 -4.56,-1.61 -4.28,-1.61 -4.01,-1.53 -3.74,-1.44 -3.52,-1.28 -3.29,-1.11 -3.13,-0.88 -2.97,-0.65 -2.89,-0.38 -2.81,-0.11 -2.82,0.16 -2.83,0.44 -2.93,0.70 -3.03,0.96 -3.21,1.18 -3.39,1.39 -3.62,1.54 -3.86,1.69 -4.13,1.76 -4.41,1.82 -4.69,1.80 -4.96,1.77 -5.22,1.66 -5.48,1.54 -5.68,1.35 -5.89,1.16 -6.03,0.92 -6.16,0.67 -6.21,0.40 -6.26,0.12 -6.22,-0.15 -6.18,-0.42 -6.05,-0.67 -5.93,-0.92 -5.73,-1.12 -5.53,-1.31 -5.27,-1.44 -5.02,-1.56 -4.74,-1.59 -4.46,-1.63 -4.19,-1.57 -3.91,-1.52 -3.67,-1.38 -3.43,-1.24 -3.24,-1.03 -3.06,-0.81 -2.95,-0.56 -2.84,-0.30 -3.47,0.73 -4.10,1.77 -4.31,1.80 -4.52,1.83 -4.72,1.80 -4.93,1.78 -5.13,1.71 -5.32,1.63 -5.50,1.52 -5.67,1.40 -5.81,1.24 -5.95,1.09 -6.05,0.90 -6.14,0.72 -6.20,0.52 -6.25,0.31 -6.25,0.11 -6.25,-0.09 -6.20,-0.30 -6.15,-0.50 -6.06,-0.69 -5.96,-0.87 -5.82,-1.03 -5.69,-1.19 -5.52,-1.31 -5.35,-1.43 -5.15,-1.50 -4.96,-1.58 -3.20,-0.92 -1.45,-0.27 -0.99,0.17 -0.53,0.62 -1.20,0.62 -1.87,0.62 -2.33,0.95 -2.78,1.28 -3.28,1.67 -3.77,2.05 -3.11,1.98 -2.45,1.92 -1.54,1.54 -0.64,1.16 -0.12,0.75 0.38,0.33 0.90,0.06 1.42,-0.20 1.34,0.07 1.26,0.35 1.20,0.50 1.14,0.64 1.05,0.77 0.95,0.90 0.83,1.00 0.71,1.10 0.57,1.17 0.42,1.24 0.27,1.27 0.11,1.31 -0.03,1.30 -0.19,1.30 -0.35,1.25 -0.50,1.21 -0.64,1.13 -0.78,1.06 -0.89,0.95 -1.01,0.84 -1.09,0.71 -1.18,0.57 -1.23,0.42 -1.28,0.27 -1.30,0.11 -1.31,-0.03 -1.29,-0.19 -1.26,-0.35 -1.26,-0.35 L -1.26,-0.35 Z"></path></g><g transform="translate(56.596198883327986 768.8975069592543) rotate(0 0.00005000000000165983 0.00004999999998744897)" stroke="none"><path fill="#1e1e1e" d="M 0.78,-0.78 Q 0.78,-0.78 0.88,-0.63 0.99,-0.49 1.04,-0.32 1.10,-0.14 1.09,0.02 1.09,0.20 1.02,0.37 0.96,0.54 0.85,0.68 0.74,0.82 0.59,0.92 0.43,1.02 0.26,1.06 0.09,1.10 -0.08,1.09 -0.26,1.07 -0.43,1.00 -0.59,0.93 -0.73,0.81 -0.86,0.69 -0.95,0.53 -1.04,0.38 -1.07,0.20 -1.10,0.02 -1.08,-0.14 -1.06,-0.32 -0.98,-0.48 -0.90,-0.64 -0.77,-0.77 -0.64,-0.90 -0.48,-0.98 -0.32,-1.06 -0.14,-1.08 0.03,-1.10 0.20,-1.07 0.38,-1.04 0.53,-0.95 0.69,-0.86 0.81,-0.73 0.93,-0.59 1.00,-0.43 1.07,-0.26 1.09,-0.08 1.10,0.09 1.06,0.26 1.01,0.43 0.92,0.59 0.82,0.74 0.68,0.85 0.54,0.96 0.37,1.02 0.20,1.09 0.02,1.09 -0.15,1.10 -0.32,1.04 -0.49,0.99 -0.63,0.88 -0.78,0.78 -0.78,0.78 -0.78,0.78 -0.86,0.67 -0.95,0.57 -1.00,0.45 -1.06,0.33 -1.08,0.19 -1.10,0.06 -1.10,-0.06 -1.09,-0.20 -1.05,-0.32 -1.01,-0.45 -0.94,-0.57 -0.87,-0.68 -0.77,-0.77 -0.68,-0.87 -0.57,-0.94 -0.45,-1.01 -0.32,-1.05 -0.20,-1.09 -0.06,-1.10 0.06,-1.10 0.19,-1.08 0.33,-1.06 0.45,-1.00 0.57,-0.95 0.67,-0.86 0.78,-0.78 0.78,-0.78 L 0.78,-0.78 Z"></path></g><g transform="translate(59.286373991838104 769.8557338776982) rotate(0 57.06847155094141 -284.8453998666773)" stroke="none"><path fill="#1e1e1e" d="M -1.22,0 Q -1.22,0 -1.18,-0.92 -1.14,-1.85 -1.16,-2.47 -1.18,-3.09 -1.23,-4.00 -1.28,-4.92 -1.32,-5.84 -1.35,-6.75 -1.36,-7.38 -1.36,-8.01 -1.34,-8.75 -1.33,-9.49 -1.31,-10.27 -1.29,-11.06 -1.27,-11.86 -1.25,-12.66 -1.24,-13.45 -1.22,-14.24 -1.22,-14.99 -1.21,-15.75 -1.21,-16.48 -1.21,-17.22 -1.21,-17.95 -1.21,-18.69 -1.21,-19.42 -1.21,-20.14 -1.22,-20.84 -1.22,-21.53 -1.23,-22.19 -1.24,-22.86 -1.25,-23.47 -1.26,-24.08 -1.30,-25.05 -1.34,-26.02 -1.36,-26.98 -1.39,-27.94 -1.42,-28.73 -1.45,-29.52 -1.49,-30.24 -1.53,-30.97 -1.46,-31.72 -1.40,-32.48 -1.42,-33.12 -1.44,-33.75 -1.46,-34.36 -1.48,-34.96 -1.50,-35.72 -1.52,-36.48 -1.49,-37.48 -1.47,-38.48 -1.40,-39.32 -1.33,-40.17 -1.18,-41.21 -1.04,-42.26 -0.90,-43.37 -0.76,-44.48 -0.67,-45.62 -0.58,-46.76 -0.52,-47.87 -0.46,-48.99 -0.42,-50.09 -0.38,-51.19 -0.35,-52.38 -0.32,-53.57 -0.26,-55.02 -0.20,-56.46 -0.09,-58.10 0.00,-59.73 0.11,-61.44 0.21,-63.15 0.31,-64.84 0.41,-66.52 0.54,-67.99 0.67,-69.45 0.76,-70.68 0.85,-71.91 0.93,-72.97 1.00,-74.02 1.08,-75.06 1.16,-76.09 1.24,-77.23 1.32,-78.36 1.38,-79.57 1.44,-80.78 1.47,-81.99 1.49,-83.19 1.51,-84.35 1.52,-85.51 1.52,-86.54 1.51,-87.57 1.48,-88.43 1.44,-89.29 1.40,-90.03 1.35,-90.78 1.31,-91.43 1.27,-92.08 1.23,-92.69 1.19,-93.29 1.15,-93.83 1.11,-94.36 1.08,-95.10 1.05,-95.84 1.14,-96.74 1.22,-97.63 1.30,-98.53 1.38,-99.43 1.70,-101.12 2.01,-102.80 2.72,-105.57 3.43,-108.34 4.49,-112.17 5.56,-116.00 6.75,-120.54 7.94,-125.08 9.14,-130.01 10.34,-134.94 11.46,-139.95 12.58,-144.95 13.50,-149.70 14.43,-154.45 15.22,-159.22 16.00,-163.99 16.73,-168.90 17.45,-173.81 18.15,-178.64 18.85,-183.47 19.45,-187.91 20.06,-192.35 20.61,-196.24 21.16,-200.12 21.68,-203.55 22.20,-206.98 22.64,-210.14 23.08,-213.29 23.48,-216.35 23.89,-219.41 24.32,-222.46 24.75,-225.51 25.27,-228.78 25.79,-232.05 26.37,-235.57 26.95,-239.08 27.47,-242.20 27.99,-245.32 28.37,-247.92 28.75,-250.52 28.96,-252.75 29.17,-254.99 29.26,-256.76 29.36,-258.53 29.39,-259.99 29.43,-261.46 29.45,-262.70 29.47,-263.94 29.46,-264.96 29.46,-265.99 29.41,-266.74 29.36,-267.49 29.26,-268.38 29.17,-269.27 29.22,-270.85 29.27,-272.43 29.53,-274.52 29.80,-276.60 30.51,-280.17 31.22,-283.74 32.30,-288.76 33.39,-293.78 34.61,-299.28 35.84,-304.78 37.12,-310.26 38.39,-315.74 39.63,-321.20 40.88,-326.67 42.17,-332.34 43.47,-338.02 44.85,-344.17 46.24,-350.32 47.60,-356.80 48.96,-363.28 50.05,-369.15 51.14,-375.02 51.95,-380.23 52.77,-385.44 53.43,-390.11 54.10,-394.78 54.61,-398.68 55.12,-402.58 55.51,-406.15 55.91,-409.72 56.26,-413.29 56.61,-416.86 56.99,-420.41 57.36,-423.96 57.74,-427.14 58.12,-430.32 58.50,-433.25 58.87,-436.18 59.24,-439.00 59.62,-441.82 59.97,-444.29 60.33,-446.76 60.67,-448.76 61.01,-450.76 61.32,-452.31 61.64,-453.86 61.91,-455.04 62.18,-456.21 62.30,-457.05 62.43,-457.88 62.44,-458.46 62.45,-459.03 62.45,-459.85 62.46,-460.67 62.51,-462.04 62.55,-463.42 62.58,-465.36 62.61,-467.30 62.63,-469.54 62.65,-471.77 62.66,-474.05 62.67,-476.34 62.75,-478.71 62.83,-481.07 62.98,-483.40 63.13,-485.73 63.35,-487.97 63.57,-490.22 63.81,-492.32 64.05,-494.42 64.27,-496.38 64.48,-498.34 64.68,-500.15 64.88,-501.96 65.05,-503.57 65.21,-505.18 65.36,-506.62 65.51,-508.05 65.62,-509.30 65.74,-510.55 65.82,-511.66 65.91,-512.77 65.98,-513.81 66.05,-514.84 66.07,-515.84 66.10,-516.84 66.15,-517.91 66.21,-518.98 66.32,-520.12 66.43,-521.26 66.53,-522.36 66.64,-523.46 66.75,-524.56 66.85,-525.67 67.03,-526.88 67.21,-528.10 67.46,-529.31 67.71,-530.52 67.98,-531.66 68.25,-532.81 68.69,-534.55 69.14,-536.30 69.50,-537.67 69.86,-539.04 70.18,-540.21 70.50,-541.37 70.88,-542.45 71.26,-543.54 71.70,-544.57 72.15,-545.60 72.63,-546.55 73.10,-547.51 73.62,-548.41 74.13,-549.30 74.64,-550.12 75.15,-550.93 75.65,-551.65 76.14,-552.38 76.64,-553.05 77.13,-553.72 77.62,-554.35 78.11,-554.97 78.61,-555.55 79.10,-556.12 79.54,-556.63 79.98,-557.14 80.36,-557.61 80.74,-558.07 81.38,-558.84 82.03,-559.61 82.52,-560.20 83.01,-560.79 83.44,-561.33 83.87,-561.87 84.37,-562.46 84.86,-563.06 85.36,-563.60 85.86,-564.14 86.38,-564.69 86.91,-565.25 87.43,-565.72 87.94,-566.20 88.49,-566.68 89.05,-567.16 89.54,-567.54 90.03,-567.91 90.56,-568.30 91.09,-568.69 91.64,-568.95 92.18,-569.21 92.84,-569.46 93.50,-569.71 94.08,-569.86 94.66,-570.00 95.36,-570.15 96.07,-570.30 96.62,-570.47 97.18,-570.64 97.80,-570.84 98.43,-571.04 99.02,-571.15 99.61,-571.26 100.22,-571.37 100.83,-571.48 101.47,-571.51 102.12,-571.54 102.77,-571.54 103.42,-571.55 104.09,-571.56 104.76,-571.56 105.42,-571.57 106.07,-571.57 106.62,-571.46 107.16,-571.34 107.71,-570.96 108.25,-570.58 108.82,-570.31 109.38,-570.04 109.93,-569.72 110.48,-569.39 111.21,-568.95 111.93,-568.50 112.43,-568.13 112.93,-567.76 113.40,-567.34 113.87,-566.93 114.27,-566.40 114.68,-565.87 114.91,-565.28 115.14,-564.69 115.26,-564.08 115.38,-563.47 115.53,-562.85 115.67,-562.23 115.77,-561.50 115.87,-560.78 115.90,-559.83 115.93,-558.88 115.92,-558.35 115.91,-557.82 115.89,-557.25 115.88,-556.69 115.85,-556.07 115.83,-555.45 115.80,-554.80 115.77,-554.16 115.75,-553.48 115.72,-552.81 115.69,-552.10 115.66,-551.40 115.64,-550.67 115.61,-549.93 115.58,-549.15 115.54,-548.38 115.52,-547.58 115.49,-546.79 115.45,-545.93 115.42,-545.08 115.34,-544.13 115.26,-543.18 115.06,-542.08 114.85,-540.97 114.60,-539.73 114.36,-538.48 114.09,-537.10 113.83,-535.72 113.48,-534.21 113.12,-532.70 112.74,-531.08 112.35,-529.45 111.81,-526.89 111.27,-524.33 110.85,-522.32 110.43,-520.31 110.11,-518.54 109.79,-516.78 109.52,-515.09 109.24,-513.39 108.93,-511.64 108.62,-509.89 108.08,-506.44 107.54,-503.00 107.15,-500.20 106.75,-497.39 106.36,-494.74 105.97,-492.08 105.57,-489.32 105.17,-486.55 104.84,-483.86 104.52,-481.16 104.22,-478.55 103.92,-475.95 103.67,-473.38 103.42,-470.81 103.20,-468.25 102.98,-465.69 102.71,-463.00 102.45,-460.30 101.89,-455.71 101.34,-451.12 100.89,-447.64 100.44,-444.17 100.04,-441.31 99.64,-438.45 99.28,-436.15 98.92,-433.86 98.59,-432.06 98.25,-430.26 97.91,-428.54 97.56,-426.82 97.37,-425.89 97.19,-424.95 97.01,-424.08 96.83,-423.21 96.76,-422.57 96.68,-421.93 96.50,-420.79 96.31,-419.65 96.13,-418.28 95.96,-416.91 95.79,-415.55 95.62,-414.18 95.47,-412.88 95.32,-411.57 95.18,-410.38 95.04,-409.19 94.93,-408.07 94.81,-406.95 94.72,-405.81 94.62,-404.67 94.49,-403.54 94.36,-402.40 94.21,-401.30 94.07,-400.20 93.93,-399.17 93.79,-398.13 93.68,-397.19 93.57,-396.25 93.36,-394.95 93.14,-393.65 93.00,-392.65 92.86,-391.65 92.75,-390.67 92.63,-389.68 92.48,-388.63 92.33,-387.58 92.08,-385.53 91.82,-383.48 91.56,-381.54 91.30,-379.60 91.05,-377.68 90.80,-375.76 90.59,-373.71 90.38,-371.67 90.19,-369.55 89.99,-367.43 89.80,-365.25 89.60,-363.08 89.43,-360.92 89.26,-358.76 89.10,-356.75 88.95,-354.75 88.81,-352.99 88.67,-351.24 88.57,-349.73 88.47,-348.22 88.41,-346.89 88.35,-345.56 88.29,-344.40 88.22,-343.23 88.12,-342.16 88.01,-341.09 87.80,-339.13 87.58,-337.16 87.54,-337.05 87.50,-336.94 87.43,-336.85 87.35,-336.76 87.26,-336.70 87.16,-336.64 87.04,-336.61 86.93,-336.59 86.82,-336.60 86.70,-336.61 86.60,-336.65 86.49,-336.70 86.41,-336.78 86.32,-336.86 86.26,-336.96 86.21,-337.06 86.19,-337.17 86.17,-337.29 86.18,-337.40 86.20,-337.51 86.25,-337.62 86.30,-337.72 86.39,-337.80 86.47,-337.88 86.57,-337.93 86.68,-337.98 86.79,-338.00 86.91,-338.01 87.02,-337.99 87.13,-337.97 87.23,-337.91 87.33,-337.85 87.41,-337.77 87.49,-337.68 87.53,-337.57 87.58,-337.47 87.58,-337.35 87.59,-337.24 87.56,-337.12 87.53,-337.01 87.47,-336.91 87.41,-336.82 87.32,-336.75 87.23,-336.67 87.12,-336.64 87.01,-336.60 86.89,-336.59 86.78,-336.59 86.67,-336.63 86.56,-336.66 86.46,-336.73 86.37,-336.80 86.30,-336.89 86.24,-336.99 86.20,-337.10 86.17,-337.21 86.18,-337.32 86.18,-337.44 86.18,-337.44 86.18,-337.44 86.44,-339.33 86.70,-341.22 86.81,-342.26 86.91,-343.31 86.97,-344.46 87.04,-345.62 87.10,-346.96 87.16,-348.31 87.26,-349.83 87.36,-351.34 87.49,-353.09 87.63,-354.85 87.78,-356.86 87.94,-358.87 88.11,-361.03 88.28,-363.19 88.47,-365.37 88.66,-367.55 88.85,-369.68 89.04,-371.81 89.25,-373.87 89.46,-375.93 89.70,-377.85 89.94,-379.77 90.19,-381.71 90.44,-383.65 90.68,-385.71 90.92,-387.77 91.05,-388.82 91.18,-389.87 91.31,-390.86 91.45,-391.86 91.60,-392.86 91.75,-393.87 91.94,-395.16 92.13,-396.45 92.28,-397.39 92.44,-398.32 92.58,-399.35 92.73,-400.37 92.86,-401.46 93.00,-402.55 93.12,-403.67 93.24,-404.78 93.32,-405.93 93.41,-407.08 93.50,-408.21 93.60,-409.34 93.71,-410.54 93.83,-411.73 93.94,-413.04 94.06,-414.35 94.18,-415.72 94.30,-417.09 94.41,-418.48 94.53,-419.87 94.63,-421.07 94.74,-422.27 94.91,-423.04 95.08,-423.80 95.44,-424.54 95.81,-425.27 96.04,-426.18 96.27,-427.09 96.62,-428.79 96.96,-430.50 97.29,-432.28 97.62,-434.06 97.98,-436.35 98.34,-438.63 98.74,-441.48 99.13,-444.34 99.58,-447.81 100.03,-451.28 100.59,-455.85 101.14,-460.43 101.40,-463.12 101.66,-465.81 101.89,-468.37 102.11,-470.93 102.36,-473.52 102.61,-476.10 102.91,-478.71 103.20,-481.32 103.53,-484.03 103.86,-486.74 104.26,-489.51 104.66,-492.28 105.04,-494.93 105.43,-497.57 105.82,-500.39 106.21,-503.21 106.74,-506.66 107.28,-510.12 107.58,-511.86 107.88,-513.61 108.15,-515.32 108.42,-517.02 108.72,-518.81 109.03,-520.59 109.43,-522.61 109.82,-524.62 110.33,-527.21 110.84,-529.79 111.19,-531.42 111.54,-533.04 111.82,-534.52 112.11,-536.00 112.30,-537.39 112.48,-538.77 112.62,-540.00 112.76,-541.23 112.82,-542.25 112.88,-543.26 112.86,-544.17 112.85,-545.08 112.81,-545.93 112.78,-546.79 112.75,-547.58 112.72,-548.38 112.69,-549.15 112.66,-549.93 112.63,-550.66 112.60,-551.40 112.57,-552.10 112.54,-552.81 112.52,-553.48 112.49,-554.16 112.46,-554.80 112.44,-555.44 112.41,-556.06 112.38,-556.68 112.34,-557.73 112.29,-558.78 112.24,-559.52 112.18,-560.26 112.04,-561.05 111.90,-561.83 111.76,-562.39 111.63,-562.95 111.50,-563.51 111.37,-564.07 110.93,-564.46 110.50,-564.86 109.85,-565.27 109.20,-565.68 108.56,-566.09 107.92,-566.51 107.42,-566.79 106.93,-567.06 106.23,-567.43 105.54,-567.80 104.89,-567.81 104.25,-567.81 103.70,-567.82 103.15,-567.82 102.53,-567.83 101.90,-567.83 101.28,-567.79 100.65,-567.75 100.10,-567.68 99.54,-567.61 98.97,-567.44 98.40,-567.26 97.84,-567.13 97.29,-567.01 96.70,-566.86 96.12,-566.72 95.55,-566.62 94.99,-566.52 94.37,-566.36 93.75,-566.19 93.14,-565.95 92.52,-565.70 91.99,-565.31 91.47,-564.91 91.02,-564.61 90.56,-564.32 90.04,-563.85 89.51,-563.39 89.03,-562.99 88.55,-562.59 88.00,-562.04 87.46,-561.49 86.98,-561.06 86.50,-560.63 85.98,-560.07 85.46,-559.50 84.91,-558.96 84.36,-558.43 83.74,-557.90 83.11,-557.37 82.74,-556.99 82.36,-556.61 81.92,-556.16 81.48,-555.72 81.00,-555.26 80.52,-554.80 80.02,-554.30 79.51,-553.80 78.99,-553.23 78.47,-552.65 77.94,-552.04 77.42,-551.43 76.89,-550.78 76.37,-550.13 75.84,-549.37 75.31,-548.60 74.80,-547.76 74.29,-546.92 73.82,-545.99 73.36,-545.07 72.93,-544.09 72.50,-543.10 72.13,-542.06 71.77,-541.02 71.45,-539.87 71.13,-538.71 70.77,-537.34 70.42,-535.98 69.98,-534.24 69.53,-532.50 69.27,-531.38 69.00,-530.26 68.76,-529.09 68.53,-527.91 68.35,-526.72 68.18,-525.54 68.08,-524.44 67.97,-523.34 67.87,-522.24 67.77,-521.13 67.67,-520.02 67.57,-518.91 67.52,-517.85 67.47,-516.80 67.43,-515.77 67.39,-514.75 67.31,-513.71 67.23,-512.67 67.14,-511.55 67.05,-510.43 66.94,-509.17 66.83,-507.92 66.68,-506.48 66.53,-505.05 66.37,-503.43 66.21,-501.81 66.01,-500.01 65.81,-498.20 65.60,-496.24 65.39,-494.27 65.16,-492.18 64.92,-490.09 64.72,-487.87 64.51,-485.64 64.37,-483.34 64.23,-481.03 64.18,-478.68 64.12,-476.34 64.13,-474.05 64.14,-471.77 64.16,-469.53 64.17,-467.30 64.19,-465.35 64.21,-463.41 64.22,-462.01 64.24,-460.60 64.19,-459.72 64.14,-458.83 64.01,-458.21 63.88,-457.59 63.67,-456.76 63.46,-455.92 63.19,-454.76 62.93,-453.59 62.61,-452.07 62.30,-450.54 61.97,-448.55 61.63,-446.57 61.28,-444.11 60.92,-441.65 60.55,-438.83 60.18,-436.01 59.80,-433.09 59.43,-430.16 59.05,-426.99 58.67,-423.82 58.30,-420.27 57.92,-416.73 57.57,-413.15 57.22,-409.57 56.83,-405.99 56.43,-402.41 55.92,-398.50 55.41,-394.60 54.75,-389.92 54.08,-385.23 53.27,-380.01 52.45,-374.78 51.37,-368.89 50.28,-363.00 48.92,-356.51 47.56,-350.02 46.19,-343.86 44.81,-337.71 43.53,-332.03 42.24,-326.36 41.02,-320.89 39.79,-315.41 38.54,-309.94 37.28,-304.46 36.09,-298.96 34.90,-293.46 33.86,-288.45 32.82,-283.43 32.18,-279.92 31.53,-276.42 31.36,-274.39 31.18,-272.37 31.15,-270.82 31.13,-269.27 31.02,-268.37 30.92,-267.48 30.87,-266.73 30.81,-265.98 30.80,-264.95 30.78,-263.92 30.76,-262.67 30.75,-261.42 30.71,-259.94 30.67,-258.46 30.58,-256.66 30.48,-254.87 30.27,-252.60 30.05,-250.33 29.67,-247.72 29.29,-245.10 28.77,-241.98 28.25,-238.87 27.67,-235.36 27.09,-231.85 26.57,-228.59 26.06,-225.33 25.63,-222.28 25.20,-219.24 24.80,-216.17 24.39,-213.11 23.96,-209.95 23.52,-206.79 23.00,-203.36 22.49,-199.93 21.94,-196.05 21.40,-192.17 20.80,-187.72 20.19,-183.27 19.51,-178.44 18.82,-173.61 18.10,-168.68 17.39,-163.76 16.62,-158.97 15.85,-154.18 14.94,-149.40 14.03,-144.63 12.94,-139.60 11.85,-134.58 10.70,-129.63 9.54,-124.67 8.40,-120.11 7.27,-115.55 6.29,-111.72 5.32,-107.90 4.74,-105.19 4.16,-102.49 4.00,-100.91 3.85,-99.33 3.86,-98.41 3.86,-97.49 3.66,-96.54 3.45,-95.59 3.36,-94.98 3.28,-94.36 3.24,-93.82 3.20,-93.29 3.16,-92.68 3.13,-92.08 3.08,-91.43 3.04,-90.77 2.99,-90.03 2.95,-89.28 2.91,-88.42 2.87,-87.56 2.86,-86.53 2.85,-85.49 2.84,-84.33 2.83,-83.17 2.80,-81.94 2.78,-80.71 2.73,-79.49 2.67,-78.27 2.60,-77.13 2.53,-75.98 2.44,-74.96 2.35,-73.93 2.28,-72.87 2.21,-71.82 2.12,-70.58 2.04,-69.34 1.92,-67.89 1.81,-66.44 1.73,-64.76 1.64,-63.08 1.56,-61.36 1.48,-59.65 1.40,-58.03 1.32,-56.42 1.31,-55.00 1.30,-53.57 1.32,-52.38 1.35,-51.19 1.38,-50.08 1.42,-48.97 1.46,-47.85 1.51,-46.72 1.56,-45.55 1.60,-44.37 1.64,-43.26 1.69,-42.14 1.74,-41.13 1.80,-40.13 1.84,-39.30 1.89,-38.48 1.92,-37.48 1.94,-36.48 1.93,-35.72 1.91,-34.96 1.89,-34.35 1.87,-33.74 1.82,-33.06 1.78,-32.38 1.65,-31.67 1.53,-30.97 1.49,-30.24 1.45,-29.52 1.42,-28.73 1.39,-27.94 1.36,-26.98 1.34,-26.02 1.30,-25.05 1.26,-24.08 1.25,-23.47 1.24,-22.86 1.23,-22.19 1.22,-21.53 1.22,-20.84 1.21,-20.14 1.21,-19.42 1.21,-18.69 1.21,-17.95 1.21,-17.22 1.21,-16.48 1.21,-15.75 1.22,-14.99 1.22,-14.24 1.24,-13.45 1.25,-12.66 1.27,-11.86 1.29,-11.06 1.31,-10.27 1.33,-9.49 1.34,-8.75 1.36,-8.01 1.36,-7.38 1.35,-6.75 1.32,-5.84 1.28,-4.92 1.23,-4.00 1.18,-3.09 1.16,-2.47 1.14,-1.85 1.18,-0.92 1.22,0 1.20,0.14 1.18,0.29 1.13,0.43 1.08,0.56 0.99,0.69 0.91,0.81 0.80,0.90 0.69,1.00 0.56,1.07 0.43,1.14 0.29,1.17 0.14,1.21 -0.00,1.21 -0.14,1.21 -0.29,1.17 -0.43,1.14 -0.56,1.07 -0.69,1.00 -0.80,0.90 -0.91,0.81 -0.99,0.68 -1.08,0.56 -1.13,0.43 -1.18,0.29 -1.20,0.14 -1.22,-0.00 -1.22,-0.00 L -1.22,0 Z"></path></g><g transform="translate(146.98440062209795 422.29443518344266) rotate(0 1.7805062663460944 255.36992267933024)" stroke="none"><path fill="#1e1e1e" d="M 0.79,0 Q 0.79,0 0.81,0.88 0.83,1.76 0.81,2.99 0.78,4.22 0.76,6.05 0.75,7.87 0.73,10.27 0.72,12.68 0.71,15.67 0.70,18.67 0.69,22.22 0.69,25.77 0.68,29.73 0.68,33.68 0.55,38.02 0.41,42.36 0.22,47.05 0.03,51.75 -0.11,56.67 -0.27,61.59 -0.53,66.62 -0.78,71.64 -1.02,76.75 -1.27,81.85 -1.46,86.89 -1.64,91.93 -1.83,96.77 -2.01,101.62 -2.18,106.21 -2.35,110.79 -2.52,115.08 -2.69,119.36 -2.87,123.47 -3.04,127.58 -3.25,131.58 -3.45,135.57 -3.66,139.50 -3.88,143.44 -4.09,147.36 -4.31,151.28 -4.47,154.86 -4.62,158.44 -4.74,161.63 -4.86,164.82 -4.97,167.70 -5.08,170.58 -5.17,173.09 -5.26,175.60 -5.35,177.80 -5.44,180.00 -5.49,181.81 -5.54,183.62 -5.60,185.06 -5.67,186.49 -5.71,187.54 -5.76,188.60 -5.75,189.33 -5.75,190.07 -5.77,190.84 -5.79,191.61 -5.80,192.16 -5.80,192.71 -5.84,193.62 -5.87,194.53 -5.93,196.03 -5.98,197.52 -6.02,199.80 -6.06,202.07 -6.09,205.20 -6.12,208.33 -6.14,212.07 -6.16,215.80 -6.18,219.74 -6.19,223.68 -6.20,227.58 -6.21,231.48 -6.22,235.18 -6.23,238.88 -6.23,242.38 -6.24,245.89 -6.24,249.37 -6.25,252.85 -6.25,256.44 -6.25,260.02 -6.27,263.80 -6.28,267.57 -6.35,271.47 -6.42,275.38 -6.50,279.14 -6.57,282.90 -6.61,286.26 -6.64,289.62 -6.66,292.73 -6.67,295.83 -6.68,298.81 -6.68,301.78 -6.69,304.57 -6.69,307.37 -6.69,310.16 -6.69,312.95 -6.69,315.81 -6.69,318.66 -6.69,321.67 -6.69,324.68 -6.69,327.90 -6.69,331.13 -6.69,334.55 -6.69,337.98 -6.69,341.27 -6.69,344.55 -6.71,347.84 -6.72,351.13 -6.77,354.27 -6.82,357.41 -6.87,359.99 -6.93,362.57 -6.95,364.80 -6.97,367.03 -6.98,368.83 -6.99,370.63 -7.00,371.92 -7.00,373.21 -6.96,374.04 -6.92,374.87 -6.90,375.75 -6.87,376.64 -6.86,377.89 -6.84,379.14 -6.83,380.49 -6.82,381.83 -6.73,383.31 -6.65,384.79 -6.55,386.26 -6.45,387.73 -6.35,389.06 -6.25,390.39 -6.18,391.61 -6.10,392.82 -6.03,393.95 -5.96,395.09 -5.87,396.21 -5.77,397.34 -5.69,398.50 -5.61,399.66 -5.53,400.87 -5.45,402.07 -5.37,403.33 -5.29,404.59 -5.20,405.89 -5.12,407.19 -4.99,408.52 -4.86,409.85 -4.72,411.12 -4.58,412.40 -4.45,413.61 -4.32,414.81 -4.19,415.96 -4.07,417.11 -3.96,418.15 -3.84,419.20 -3.73,420.13 -3.62,421.07 -3.50,421.88 -3.37,422.69 -3.24,423.44 -3.11,424.20 -3.00,425.00 -2.89,425.79 -2.79,426.59 -2.69,427.38 -2.58,428.20 -2.46,429.02 -2.34,429.94 -2.22,430.86 -2.11,431.84 -1.99,432.82 -1.86,433.75 -1.74,434.69 -1.60,435.54 -1.45,436.40 -1.33,437.19 -1.20,437.98 -1.08,438.68 -0.95,439.38 -0.82,440.03 -0.70,440.67 -0.57,441.30 -0.45,441.92 -0.31,442.49 -0.18,443.07 -0.05,443.65 0.07,444.22 0.17,444.83 0.27,445.43 0.37,446.00 0.46,446.57 0.58,447.15 0.69,447.74 0.79,448.35 0.88,448.95 0.97,449.54 1.05,450.13 1.16,450.67 1.26,451.21 1.35,451.75 1.44,452.29 1.56,453.26 1.69,454.23 1.77,455.21 1.84,456.18 1.87,457.17 1.89,458.16 1.90,459.10 1.92,460.04 1.97,460.76 2.01,461.47 2.10,462.06 2.19,462.65 2.22,463.09 2.25,463.53 2.23,463.73 2.22,463.92 2.16,464.10 2.09,464.29 1.99,464.45 1.88,464.62 1.74,464.75 1.60,464.88 1.43,464.98 1.26,465.08 1.08,465.13 0.89,465.18 0.70,465.19 0.50,465.20 0.31,465.16 0.12,465.12 -0.04,465.04 -0.22,464.95 -0.37,464.83 -0.52,464.70 -0.64,464.55 -0.75,464.39 -0.83,464.21 -0.90,464.03 -0.94,463.84 -0.97,463.65 -0.96,462.75 -0.96,461.84 -0.97,461.65 -0.97,461.45 -0.95,461.25 -0.93,461.06 -0.86,460.88 -0.79,460.69 -0.68,460.53 -0.56,460.37 -0.42,460.24 -0.27,460.11 -0.10,460.02 0.07,459.93 0.26,459.88 0.45,459.83 0.64,459.83 0.84,459.83 1.03,459.88 1.22,459.93 1.39,460.02 1.57,460.11 1.71,460.24 1.86,460.37 1.97,460.53 2.08,460.69 2.15,460.88 2.22,461.06 2.25,461.26 2.27,461.45 2.25,462.25 2.24,463.04 2.15,464.04 2.06,465.03 1.98,466.21 1.91,467.40 1.89,468.63 1.87,469.87 1.88,471.01 1.89,472.15 1.92,473.22 1.94,474.29 1.97,475.29 2.00,476.29 2.08,477.07 2.15,477.85 2.24,478.50 2.33,479.16 2.39,479.84 2.44,480.53 2.48,481.14 2.52,481.76 2.55,482.35 2.58,482.94 2.60,483.57 2.62,484.19 2.67,484.79 2.72,485.38 2.79,486.00 2.85,486.63 2.88,487.32 2.91,488.02 2.95,488.70 3.00,489.38 3.08,490.03 3.16,490.69 3.24,491.35 3.31,492.02 3.37,492.62 3.42,493.21 3.55,494.10 3.69,495.00 3.83,495.77 3.96,496.54 4.12,497.29 4.28,498.03 4.48,498.95 4.68,499.86 4.91,500.84 5.14,501.81 5.27,502.35 5.40,502.90 5.53,503.41 5.66,503.93 5.97,504.89 6.28,505.84 6.55,506.64 6.82,507.44 7.15,508.03 7.47,508.62 8.11,508.82 8.74,509.03 8.36,508.59 7.99,508.15 7.98,507.54 7.97,506.92 7.96,506.32 7.95,505.71 7.94,505.11 7.93,504.50 7.92,503.85 7.92,503.19 7.91,502.62 7.91,502.04 7.91,501.44 7.91,500.83 7.91,500.08 7.92,499.32 7.92,498.60 7.92,497.87 7.93,497.22 7.94,496.58 7.95,495.90 7.96,495.22 7.97,494.49 7.98,493.75 8.00,492.85 8.02,491.95 8.04,490.98 8.06,490.01 8.08,489.07 8.09,488.12 8.11,487.15 8.12,486.18 8.13,485.63 8.15,485.09 8.16,484.50 8.17,483.92 8.20,483.25 8.22,482.57 8.26,481.82 8.29,481.07 8.33,480.25 8.37,479.43 8.44,478.46 8.51,477.50 8.58,476.32 8.66,475.15 8.73,473.76 8.79,472.36 8.83,470.79 8.88,469.22 8.91,467.51 8.94,465.80 8.97,463.83 8.99,461.85 9.01,459.77 9.03,457.68 9.04,455.58 9.05,453.49 9.06,451.29 9.07,449.09 9.08,446.67 9.09,444.25 9.09,441.65 9.10,439.05 9.10,436.27 9.11,433.49 9.11,430.49 9.11,427.48 9.11,424.64 9.11,421.80 9.12,419.15 9.12,416.50 9.12,413.96 9.12,411.43 9.12,409.21 9.12,406.99 9.17,405.17 9.21,403.35 9.32,401.71 9.42,400.07 9.57,398.44 9.71,396.82 9.86,395.23 10.01,393.63 10.15,392.12 10.28,390.62 10.38,389.34 10.48,388.06 10.57,386.26 10.66,384.46 10.69,384.34 10.72,384.23 10.79,384.12 10.86,384.02 10.95,383.95 11.05,383.87 11.16,383.83 11.28,383.79 11.40,383.79 11.52,383.79 11.64,383.83 11.75,383.86 11.85,383.93 11.95,384.01 12.02,384.11 12.09,384.21 12.12,384.32 12.16,384.44 12.15,384.56 12.15,384.68 12.10,384.80 12.06,384.91 11.98,385.00 11.90,385.10 11.80,385.16 11.70,385.23 11.58,385.25 11.46,385.28 11.34,385.27 11.22,385.26 11.11,385.21 11.00,385.16 10.91,385.08 10.82,384.99 10.76,384.89 10.70,384.78 10.68,384.66 10.66,384.54 10.68,384.42 10.70,384.30 10.75,384.19 10.81,384.08 10.89,384.00 10.98,383.92 11.09,383.86 11.20,383.81 11.32,383.80 11.44,383.78 11.56,383.81 11.68,383.83 11.78,383.89 11.89,383.95 11.97,384.04 12.05,384.14 12.10,384.25 12.14,384.36 12.15,384.48 12.16,384.60 12.16,384.60 12.16,384.60 11.97,386.38 11.79,388.16 11.69,389.45 11.59,390.74 11.46,392.24 11.32,393.75 11.17,395.35 11.03,396.94 10.88,398.55 10.74,400.15 10.63,401.77 10.53,403.38 10.48,405.19 10.44,406.99 10.44,409.21 10.44,411.43 10.44,413.96 10.45,416.50 10.45,419.15 10.45,421.80 10.45,424.64 10.45,427.48 10.45,430.49 10.46,433.49 10.46,436.27 10.46,439.05 10.47,441.65 10.47,444.25 10.48,446.67 10.49,449.09 10.50,451.29 10.51,453.49 10.52,455.58 10.53,457.68 10.55,459.77 10.57,461.85 10.59,463.83 10.62,465.80 10.65,467.51 10.69,469.22 10.73,470.79 10.78,472.36 10.84,473.76 10.90,475.15 10.98,476.32 11.06,477.50 11.12,478.46 11.19,479.43 11.23,480.25 11.27,481.07 11.31,481.82 11.34,482.57 11.36,483.25 11.39,483.92 11.40,484.50 11.42,485.09 11.44,486.15 11.46,487.22 11.47,488.12 11.48,489.03 11.50,490.01 11.52,490.98 11.55,491.94 11.57,492.89 11.58,493.71 11.60,494.53 11.61,495.21 11.61,495.88 11.62,496.57 11.63,497.25 11.64,498.06 11.64,498.86 11.65,499.58 11.65,500.30 11.65,501.00 11.65,501.71 11.65,502.30 11.65,502.90 11.64,503.44 11.64,503.97 11.63,504.60 11.62,505.23 11.61,505.82 11.60,506.42 11.59,506.98 11.58,507.53 11.57,508.14 11.56,508.75 11.52,509.44 11.49,510.13 11.26,510.77 11.03,511.41 10.63,511.76 10.23,512.12 9.28,512.27 8.32,512.42 7.64,512.33 6.96,512.24 6.41,511.91 5.85,511.59 5.45,511.15 5.04,510.72 4.74,510.19 4.43,509.66 4.18,509.04 3.93,508.42 3.68,507.61 3.44,506.80 3.26,506.28 3.09,505.76 2.92,505.22 2.76,504.68 2.62,504.14 2.48,503.61 2.34,503.06 2.20,502.51 1.96,501.47 1.72,500.44 1.56,499.56 1.39,498.67 1.26,497.79 1.13,496.91 1.05,496.13 0.98,495.34 0.90,494.36 0.83,493.37 0.81,492.83 0.79,492.29 0.73,491.64 0.66,490.99 0.58,490.27 0.49,489.55 0.44,488.83 0.40,488.11 0.38,487.47 0.37,486.83 0.33,486.18 0.28,485.53 0.26,484.86 0.24,484.20 0.25,483.58 0.27,482.96 0.29,482.38 0.31,481.80 0.33,481.20 0.35,480.60 0.36,479.96 0.37,479.32 0.35,478.64 0.33,477.96 0.31,477.16 0.28,476.35 0.23,475.38 0.18,474.40 0.07,473.33 -0.03,472.26 -0.15,471.11 -0.27,469.95 -0.40,468.70 -0.52,467.45 -0.64,466.24 -0.76,465.03 -0.85,464.04 -0.94,463.04 -0.96,462.25 -0.97,461.45 -0.95,461.25 -0.93,461.06 -0.86,460.88 -0.79,460.69 -0.68,460.53 -0.56,460.37 -0.42,460.24 -0.27,460.11 -0.10,460.02 0.07,459.93 0.26,459.88 0.45,459.83 0.64,459.83 0.84,459.83 1.03,459.88 1.22,459.93 1.39,460.02 1.57,460.11 1.71,460.24 1.86,460.37 1.97,460.53 2.08,460.69 2.15,460.88 2.22,461.06 2.25,461.26 2.27,461.45 2.26,461.65 2.25,461.84 2.25,462.69 2.25,463.53 2.23,463.72 2.22,463.92 2.16,464.10 2.09,464.29 1.99,464.45 1.88,464.62 1.74,464.75 1.60,464.88 1.43,464.98 1.26,465.08 1.08,465.13 0.89,465.18 0.70,465.19 0.50,465.20 0.31,465.16 0.12,465.12 -0.04,465.04 -0.22,464.95 -0.37,464.83 -0.52,464.70 -0.64,464.55 -0.75,464.39 -0.83,464.21 -0.90,464.03 -0.94,463.84 -0.97,463.65 -0.96,463.06 -0.96,462.47 -1.03,461.67 -1.10,460.86 -1.09,460.00 -1.08,459.15 -1.07,458.18 -1.06,457.22 -1.07,456.32 -1.07,455.41 -1.14,454.51 -1.20,453.60 -1.29,452.64 -1.38,451.67 -1.48,451.07 -1.57,450.46 -1.64,449.90 -1.70,449.33 -1.77,448.76 -1.84,448.19 -1.95,447.55 -2.05,446.92 -2.11,446.34 -2.18,445.77 -2.24,445.22 -2.29,444.67 -2.38,444.09 -2.47,443.51 -2.56,442.89 -2.65,442.28 -2.73,441.64 -2.81,441.00 -2.89,440.33 -2.97,439.66 -3.04,438.95 -3.11,438.24 -3.19,437.46 -3.28,436.68 -3.40,435.81 -3.52,434.94 -3.66,434.01 -3.81,433.07 -3.96,432.10 -4.11,431.13 -4.25,430.20 -4.39,429.28 -4.50,428.43 -4.60,427.57 -4.66,426.77 -4.72,425.98 -4.78,425.20 -4.83,424.42 -4.89,423.64 -4.95,422.86 -5.00,422.03 -5.05,421.20 -5.11,420.27 -5.17,419.34 -5.27,418.29 -5.38,417.25 -5.51,416.10 -5.63,414.96 -5.76,413.75 -5.89,412.54 -6.04,411.26 -6.18,409.98 -6.31,408.63 -6.45,407.28 -6.54,405.98 -6.63,404.68 -6.72,403.42 -6.80,402.17 -6.89,400.96 -6.97,399.76 -7.06,398.61 -7.15,397.47 -7.27,396.33 -7.38,395.18 -7.47,394.06 -7.56,392.93 -7.66,391.73 -7.76,390.53 -7.90,389.20 -8.04,387.86 -8.19,386.39 -8.34,384.93 -8.49,383.42 -8.65,381.91 -8.76,380.53 -8.86,379.15 -8.81,377.76 -8.76,376.37 -8.58,375.62 -8.41,374.86 -8.36,374.03 -8.31,373.20 -8.31,371.92 -8.31,370.63 -8.30,368.82 -8.29,367.01 -8.26,364.78 -8.24,362.54 -8.19,359.97 -8.13,357.39 -8.08,354.25 -8.03,351.12 -8.02,347.84 -8.01,344.55 -8.01,341.27 -8.01,337.98 -8.01,334.55 -8.01,331.13 -8.01,327.90 -8.01,324.68 -8.01,321.67 -8.01,318.66 -8.01,315.81 -8.01,312.95 -8.01,310.16 -8.00,307.37 -8.00,304.57 -8.00,301.78 -7.99,298.80 -7.99,295.83 -7.98,292.72 -7.96,289.60 -7.93,286.24 -7.90,282.88 -7.82,279.12 -7.75,275.35 -7.68,271.46 -7.62,267.57 -7.61,263.79 -7.60,260.02 -7.60,256.44 -7.60,252.85 -7.61,249.37 -7.61,245.89 -7.62,242.38 -7.62,238.88 -7.63,235.18 -7.64,231.48 -7.65,227.58 -7.66,223.68 -7.68,219.74 -7.69,215.80 -7.71,212.06 -7.73,208.33 -7.76,205.20 -7.78,202.07 -7.82,199.79 -7.86,197.52 -7.90,196.01 -7.95,194.51 -7.96,193.54 -7.97,192.58 -7.82,191.91 -7.67,191.24 -7.48,190.60 -7.30,189.96 -7.19,189.25 -7.08,188.54 -7.03,187.49 -6.98,186.43 -6.92,185.01 -6.86,183.58 -6.80,181.76 -6.75,179.94 -6.66,177.75 -6.57,175.55 -6.48,173.04 -6.39,170.54 -6.28,167.65 -6.18,164.76 -6.06,161.57 -5.93,158.38 -5.78,154.79 -5.62,151.21 -5.41,147.29 -5.19,143.37 -4.98,139.44 -4.76,135.50 -4.56,131.52 -4.36,127.53 -4.18,123.42 -4.01,119.31 -3.84,115.03 -3.67,110.74 -3.50,106.16 -3.33,101.57 -3.15,96.72 -2.96,91.88 -2.78,86.83 -2.59,81.79 -2.35,76.68 -2.11,71.58 -1.85,66.56 -1.60,61.55 -1.45,56.62 -1.30,51.70 -1.11,47.01 -0.93,42.32 -0.80,38.00 -0.68,33.68 -0.68,29.73 -0.69,25.77 -0.69,22.22 -0.70,18.67 -0.71,15.67 -0.72,12.68 -0.73,10.27 -0.75,7.87 -0.76,6.05 -0.78,4.22 -0.81,2.99 -0.83,1.76 -0.81,0.88 -0.79,0 -0.78,-0.09 -0.77,-0.19 -0.73,-0.27 -0.70,-0.36 -0.64,-0.44 -0.59,-0.52 -0.52,-0.59 -0.45,-0.65 -0.36,-0.69 -0.28,-0.74 -0.18,-0.76 -0.09,-0.78 0.00,-0.78 0.09,-0.78 0.18,-0.76 0.28,-0.74 0.36,-0.69 0.45,-0.65 0.52,-0.59 0.59,-0.52 0.64,-0.44 0.70,-0.36 0.73,-0.27 0.77,-0.19 0.78,-0.09 0.79,0.00 0.79,0.00 L 0.79,0 Z"></path></g><g transform="translate(156.91964337782838 816.420838245269) rotate(0 52.73048975322962 -289.6802868622475)" stroke="none"><path fill="#1e1e1e" d="M -0.78,0 Q -0.78,0 -0.76,-1.81 -0.74,-3.62 -0.73,-6.07 -0.72,-8.52 -0.71,-11.73 -0.70,-14.95 -0.69,-18.81 -0.69,-22.67 -0.68,-26.90 -0.68,-31.13 -0.67,-35.48 -0.67,-39.82 -0.67,-44.48 -0.66,-49.15 -0.50,-54.23 -0.34,-59.32 0.16,-64.76 0.67,-70.19 1.39,-75.88 2.11,-81.57 2.83,-87.14 3.56,-92.71 4.26,-97.95 4.96,-103.19 5.65,-108.21 6.34,-113.23 7.01,-118.17 7.69,-123.10 8.36,-128.04 9.03,-132.97 9.63,-137.57 10.22,-142.17 10.71,-146.28 11.21,-150.38 11.63,-153.80 12.06,-157.22 12.39,-159.96 12.72,-162.71 12.96,-164.99 13.20,-167.27 13.36,-168.96 13.52,-170.66 13.63,-171.81 13.75,-172.95 13.78,-173.70 13.81,-174.46 13.85,-175.60 13.90,-176.73 13.93,-178.61 13.95,-180.49 13.96,-182.69 13.98,-184.89 14.04,-187.73 14.11,-190.56 14.28,-194.17 14.45,-197.78 14.73,-201.75 15.01,-205.73 15.38,-209.85 15.74,-213.97 16.19,-218.38 16.64,-222.79 17.21,-227.56 17.78,-232.32 18.43,-237.11 19.08,-241.90 19.74,-246.36 20.40,-250.82 20.98,-254.81 21.56,-258.80 22.04,-262.24 22.52,-265.67 22.93,-268.63 23.35,-271.59 23.73,-274.23 24.11,-276.87 24.46,-279.01 24.81,-281.14 25.11,-282.54 25.42,-283.93 25.60,-284.81 25.79,-285.69 25.87,-286.57 25.95,-287.44 26.01,-289.00 26.07,-290.55 26.10,-293.32 26.14,-296.08 26.18,-300.07 26.23,-304.05 26.41,-308.67 26.59,-313.30 26.96,-318.08 27.34,-322.87 27.87,-327.57 28.39,-332.28 29.06,-336.82 29.73,-341.36 30.52,-345.79 31.30,-350.23 32.07,-354.37 32.84,-358.52 33.52,-362.27 34.20,-366.02 34.83,-369.40 35.45,-372.79 36.00,-375.75 36.54,-378.70 37.04,-381.44 37.53,-384.17 38.01,-386.89 38.50,-389.60 38.96,-392.16 39.43,-394.72 39.88,-397.09 40.34,-399.46 40.78,-401.69 41.22,-403.92 41.62,-405.94 42.02,-407.97 42.38,-409.83 42.74,-411.70 43.08,-413.53 43.42,-415.36 43.76,-417.36 44.11,-419.37 44.45,-421.54 44.80,-423.72 45.14,-425.83 45.48,-427.94 45.82,-429.89 46.16,-431.84 46.43,-433.39 46.71,-434.94 46.89,-436.11 47.08,-437.27 47.18,-438.40 47.28,-439.53 47.32,-441.12 47.37,-442.70 47.42,-444.92 47.47,-447.14 47.65,-449.88 47.82,-452.63 48.11,-455.48 48.41,-458.34 48.74,-461.06 49.08,-463.78 49.44,-466.65 49.79,-469.52 50.16,-472.35 50.53,-475.19 50.90,-477.80 51.27,-480.42 51.63,-482.92 51.99,-485.41 52.34,-487.72 52.70,-490.02 53.04,-492.16 53.39,-494.29 53.72,-496.29 54.06,-498.29 54.40,-500.16 54.73,-502.02 55.06,-503.85 55.39,-505.68 55.75,-507.54 56.11,-509.39 56.49,-511.16 56.87,-512.93 57.23,-514.49 57.58,-516.05 57.90,-517.41 58.22,-518.76 58.52,-519.97 58.83,-521.17 59.12,-522.26 59.41,-523.36 59.70,-524.40 59.98,-525.44 60.27,-526.51 60.56,-527.59 60.80,-528.70 61.05,-529.82 61.26,-530.97 61.48,-532.12 61.68,-533.28 61.88,-534.44 62.02,-535.57 62.17,-536.70 62.29,-537.77 62.41,-538.84 62.52,-539.79 62.63,-540.74 62.69,-541.55 62.75,-542.37 62.80,-543.14 62.85,-543.90 62.93,-544.63 63.01,-545.35 63.14,-546.06 63.27,-546.77 63.43,-547.49 63.59,-548.21 63.89,-549.27 64.19,-550.34 64.39,-551.16 64.59,-551.98 64.71,-552.65 64.84,-553.31 64.90,-553.88 64.96,-554.45 65.09,-555.56 65.22,-556.67 65.31,-557.25 65.41,-557.82 65.55,-558.43 65.70,-559.03 65.91,-559.72 66.12,-560.40 66.37,-561.11 66.62,-561.81 66.88,-562.53 67.15,-563.25 67.47,-564.00 67.80,-564.75 68.31,-565.56 68.83,-566.36 69.50,-567.15 70.17,-567.94 70.94,-568.71 71.71,-569.48 72.56,-570.27 73.40,-571.05 74.27,-571.79 75.13,-572.53 76.02,-573.24 76.92,-573.94 77.87,-574.58 78.82,-575.22 80.24,-576.06 81.67,-576.90 82.70,-577.45 83.72,-577.99 84.53,-578.41 85.35,-578.83 86.15,-579.12 86.96,-579.41 87.79,-579.62 88.61,-579.83 89.44,-579.97 90.27,-580.11 91.16,-580.17 92.04,-580.24 92.92,-580.26 93.80,-580.29 94.52,-580.32 95.25,-580.36 95.79,-580.40 96.32,-580.44 97.25,-580.25 98.17,-580.05 98.87,-579.26 99.56,-578.47 99.84,-577.94 100.11,-577.42 100.37,-576.86 100.63,-576.30 100.89,-575.73 101.15,-575.15 101.41,-574.51 101.66,-573.88 101.93,-573.16 102.19,-572.45 102.47,-571.56 102.75,-570.68 103.03,-569.54 103.30,-568.40 103.58,-567.08 103.85,-565.76 104.13,-564.27 104.41,-562.78 104.70,-561.14 105.00,-559.51 105.22,-557.65 105.44,-555.80 105.59,-553.59 105.74,-551.39 105.86,-548.85 105.97,-546.32 106.02,-543.42 106.07,-540.51 106.09,-537.09 106.11,-533.67 106.02,-529.76 105.94,-525.85 105.53,-521.53 105.12,-517.22 104.28,-512.65 103.44,-508.07 102.24,-503.36 101.03,-498.64 98.96,-491.68 96.88,-484.73 95.27,-479.49 93.66,-474.26 92.23,-469.58 90.79,-464.91 89.39,-460.12 87.99,-455.33 86.56,-449.97 85.13,-444.62 83.74,-438.79 82.35,-432.96 81.05,-426.88 79.75,-420.81 78.64,-414.63 77.52,-408.46 76.62,-402.30 75.73,-396.15 74.97,-389.96 74.21,-383.77 73.49,-377.41 72.77,-371.04 72.07,-364.82 71.36,-358.59 70.81,-353.36 70.26,-348.13 70.02,-345.91 69.79,-343.68 69.76,-343.58 69.73,-343.48 69.67,-343.39 69.61,-343.30 69.53,-343.24 69.44,-343.17 69.34,-343.14 69.24,-343.10 69.14,-343.10 69.03,-343.10 68.93,-343.14 68.83,-343.17 68.74,-343.23 68.66,-343.30 68.60,-343.39 68.54,-343.47 68.51,-343.58 68.48,-343.68 68.49,-343.78 68.49,-343.89 68.53,-343.99 68.57,-344.09 68.64,-344.17 68.71,-344.25 68.80,-344.31 68.89,-344.36 68.99,-344.38 69.10,-344.41 69.20,-344.40 69.31,-344.38 69.40,-344.34 69.50,-344.30 69.58,-344.22 69.66,-344.15 69.71,-344.06 69.76,-343.96 69.77,-343.86 69.79,-343.75 69.77,-343.65 69.76,-343.54 69.71,-343.45 69.66,-343.36 69.58,-343.28 69.50,-343.21 69.41,-343.16 69.31,-343.12 69.21,-343.11 69.10,-343.10 69.00,-343.12 68.89,-343.14 68.80,-343.20 68.71,-343.25 68.64,-343.33 68.57,-343.41 68.53,-343.51 68.49,-343.61 68.49,-343.71 68.48,-343.82 68.48,-343.82 68.48,-343.82 68.72,-346.04 68.95,-348.27 69.50,-353.51 70.06,-358.74 70.76,-364.96 71.47,-371.19 72.19,-377.56 72.91,-383.93 73.67,-390.14 74.43,-396.34 75.33,-402.51 76.23,-408.69 77.35,-414.89 78.47,-421.09 79.77,-427.17 81.07,-433.26 82.46,-439.11 83.86,-444.96 85.29,-450.33 86.73,-455.70 88.13,-460.50 89.53,-465.30 90.97,-469.97 92.40,-474.64 94.01,-479.88 95.61,-485.11 97.68,-492.04 99.74,-498.97 100.93,-503.64 102.12,-508.31 102.95,-512.83 103.78,-517.35 104.18,-521.61 104.58,-525.88 104.65,-529.77 104.73,-533.66 104.70,-537.07 104.67,-540.48 104.60,-543.37 104.53,-546.25 104.39,-548.76 104.26,-551.27 104.08,-553.44 103.90,-555.60 103.64,-557.39 103.39,-559.19 103.04,-560.80 102.69,-562.40 102.33,-563.85 101.98,-565.29 101.61,-566.53 101.25,-567.77 100.86,-568.80 100.46,-569.83 100.11,-570.66 99.75,-571.49 99.47,-572.17 99.18,-572.86 98.93,-573.46 98.68,-574.06 98.43,-574.62 98.19,-575.19 97.95,-575.72 97.72,-576.25 97.31,-577.18 96.91,-578.11 96.09,-578.22 95.28,-578.33 94.56,-578.34 93.84,-578.36 93.00,-578.35 92.15,-578.33 91.34,-578.30 90.53,-578.27 89.76,-578.18 89.00,-578.10 88.23,-577.95 87.45,-577.81 86.73,-577.63 86.00,-577.44 85.19,-577.10 84.39,-576.75 83.40,-576.20 82.41,-575.66 81.04,-574.83 79.67,-574.00 78.79,-573.36 77.91,-572.73 77.08,-572.02 76.24,-571.31 75.45,-570.55 74.66,-569.79 73.91,-568.98 73.16,-568.17 72.52,-567.38 71.88,-566.58 71.35,-565.86 70.82,-565.13 70.43,-564.47 70.04,-563.81 69.76,-563.11 69.48,-562.42 69.24,-561.71 68.99,-561.00 68.77,-560.32 68.54,-559.64 68.34,-559.01 68.14,-558.39 67.99,-557.86 67.83,-557.33 67.70,-556.78 67.57,-556.24 67.44,-555.71 67.32,-555.18 67.21,-554.64 67.10,-554.09 66.97,-553.47 66.83,-552.85 66.64,-552.18 66.46,-551.50 66.24,-550.71 66.03,-549.91 65.82,-548.80 65.61,-547.70 65.42,-547.01 65.22,-546.31 65.04,-545.68 64.86,-545.05 64.71,-544.38 64.57,-543.70 64.44,-542.94 64.31,-542.18 64.17,-541.36 64.03,-540.54 63.87,-539.62 63.72,-538.69 63.59,-537.61 63.47,-536.53 63.32,-535.38 63.17,-534.22 62.97,-533.05 62.77,-531.88 62.55,-530.71 62.33,-529.54 62.08,-528.39 61.83,-527.25 61.54,-526.17 61.25,-525.09 60.96,-524.06 60.68,-523.02 60.39,-521.93 60.10,-520.85 59.80,-519.66 59.50,-518.46 59.18,-517.11 58.86,-515.76 58.51,-514.20 58.16,-512.65 57.78,-510.89 57.40,-509.13 57.04,-507.29 56.68,-505.45 56.35,-503.62 56.02,-501.79 55.69,-499.93 55.36,-498.07 55.02,-496.08 54.68,-494.08 54.34,-491.95 54.00,-489.83 53.64,-487.53 53.29,-485.22 52.93,-482.73 52.57,-480.24 52.20,-477.63 51.83,-475.02 51.47,-472.19 51.10,-469.36 50.74,-466.49 50.38,-463.62 50.05,-460.91 49.71,-458.21 49.42,-455.38 49.13,-452.55 48.96,-449.83 48.79,-447.11 48.73,-444.89 48.68,-442.66 48.63,-441.04 48.59,-439.42 48.48,-438.24 48.37,-437.07 48.19,-435.89 48.00,-434.71 47.73,-433.16 47.45,-431.62 47.12,-429.67 46.78,-427.73 46.44,-425.62 46.10,-423.51 45.75,-421.33 45.40,-419.15 45.06,-417.13 44.71,-415.11 44.37,-413.28 44.03,-411.45 43.67,-409.58 43.31,-407.71 42.91,-405.69 42.51,-403.66 42.07,-401.44 41.63,-399.21 41.18,-396.85 40.72,-394.49 40.26,-391.93 39.79,-389.37 39.31,-386.65 38.83,-383.94 38.33,-381.20 37.84,-378.46 37.29,-375.51 36.75,-372.55 36.12,-369.17 35.50,-365.78 34.82,-362.03 34.14,-358.27 33.38,-354.14 32.61,-350.00 31.83,-345.58 31.05,-341.16 30.39,-336.64 29.73,-332.13 29.21,-327.44 28.70,-322.76 28.33,-318.00 27.96,-313.25 27.79,-308.64 27.63,-304.03 27.60,-300.05 27.57,-296.07 27.56,-293.29 27.55,-290.51 27.51,-288.88 27.48,-287.25 27.34,-286.30 27.20,-285.34 26.95,-284.50 26.70,-283.65 26.41,-282.29 26.11,-280.93 25.76,-278.81 25.41,-276.68 25.03,-274.05 24.65,-271.41 24.24,-268.45 23.82,-265.49 23.35,-262.05 22.87,-258.61 22.29,-254.62 21.71,-250.63 21.05,-246.17 20.39,-241.72 19.74,-236.95 19.09,-232.17 18.53,-227.41 17.97,-222.65 17.52,-218.25 17.07,-213.85 16.71,-209.74 16.35,-205.63 16.08,-201.67 15.80,-197.71 15.64,-194.12 15.48,-190.53 15.43,-187.71 15.37,-184.89 15.38,-182.68 15.38,-180.48 15.37,-178.59 15.37,-176.69 15.35,-175.49 15.32,-174.29 15.19,-173.56 15.05,-172.82 14.94,-171.68 14.83,-170.54 14.67,-168.83 14.51,-167.13 14.27,-164.84 14.03,-162.55 13.69,-159.80 13.36,-157.06 12.94,-153.64 12.51,-150.23 12.02,-146.11 11.53,-142.00 10.93,-137.40 10.33,-132.79 9.66,-127.86 8.99,-122.93 8.32,-117.99 7.64,-113.05 6.96,-108.03 6.27,-103.01 5.57,-97.77 4.87,-92.54 4.14,-86.97 3.42,-81.40 2.71,-75.74 1.99,-70.07 1.49,-64.67 0.99,-59.28 0.83,-54.21 0.66,-49.15 0.67,-44.48 0.67,-39.82 0.67,-35.48 0.68,-31.13 0.68,-26.90 0.69,-22.67 0.69,-18.81 0.70,-14.95 0.71,-11.73 0.72,-8.52 0.73,-6.07 0.74,-3.62 0.76,-1.81 0.78,0 0.76,0.09 0.75,0.18 0.72,0.27 0.69,0.36 0.63,0.44 0.58,0.51 0.51,0.58 0.44,0.64 0.36,0.68 0.27,0.73 0.18,0.75 0.09,0.77 -0.00,0.77 -0.09,0.77 -0.18,0.75 -0.27,0.73 -0.36,0.68 -0.44,0.64 -0.51,0.58 -0.58,0.51 -0.63,0.44 -0.69,0.36 -0.72,0.27 -0.75,0.18 -0.76,0.09 -0.78,-0.00 -0.78,-0.00 L -0.78,0 Z"></path></g></svg>