<svg version="1.1" xmlns="http://www.w3.org/2000/svg" viewBox="0 0 164.09381103515625 145.42849731445312" width="164.09381103515625" height="145.42849731445312" class="excalidraw-svg">
  <!-- svg-source:excalidraw -->
  
  <defs>
    <style class="style-fonts">
      
    </style>
    
  </defs>
  <rect x="0" y="0" width="164.09381103515625" height="145.42849731445312" fill="#ffffff"></rect><g stroke-linecap="round" transform="translate(10 10) rotate(0 72.04690551757812 62.71424865722656)"><path d="M45.21 4.21 C53.94 0.06, 66.12 0.18, 76.48 0.75 C86.84 1.33, 98.37 3.22, 107.36 7.67 C116.35 12.11, 124.47 19.79, 130.42 27.41 C136.36 35.03, 141.26 44.56, 143.04 53.38 C144.83 62.2, 144.08 71.87, 141.12 80.33 C138.16 88.79, 132.2 97.43, 125.3 104.15 C118.4 110.87, 109.41 117.13, 99.7 120.63 C90 124.13, 77.6 125.75, 67.08 125.16 C56.56 124.56, 45.72 121.51, 36.59 117.07 C27.45 112.63, 18.26 106.05, 12.28 98.54 C6.31 91.02, 2.14 81.06, 0.75 71.99 C-0.65 62.91, 0.81 52.67, 3.91 44.07 C7 35.47, 12.25 27.01, 19.34 20.38 C26.42 13.76, 41.36 7.06, 46.43 4.32 C51.5 1.58, 49.16 3.18, 49.74 3.94 M83.96 2.09 C93.98 2.28, 107.37 5.58, 115.77 10.61 C124.17 15.63, 129.5 24.01, 134.36 32.25 C139.23 40.49, 144.22 50.8, 144.97 60.05 C145.71 69.3, 142.98 79.32, 138.84 87.73 C134.7 96.14, 127.98 104.41, 120.14 110.49 C112.31 116.57, 101.77 122.11, 91.81 124.21 C81.85 126.3, 70.68 124.9, 60.37 123.04 C50.06 121.19, 38.41 118.41, 29.93 113.08 C21.45 107.75, 14.34 98.9, 9.49 91.08 C4.65 83.27, 1.37 75.08, 0.86 66.21 C0.35 57.34, 2.59 46.1, 6.43 37.87 C10.26 29.65, 16.28 22.68, 23.88 16.85 C31.48 11.01, 42.08 5.69, 52.04 2.87 C62.01 0.05, 78.1 -0.04, 83.66 -0.08 C89.23 -0.13, 85.2 1.21, 85.42 2.6" stroke="#1e1e1e" stroke-width="2" fill="none"></path></g></svg>