<svg version="1.1" xmlns="http://www.w3.org/2000/svg" viewBox="0 0 1032.1146919214382 375.83624349236555" width="1032.1146919214382" height="375.83624349236555" class="excalidraw-svg">
  <!-- svg-source:excalidraw -->
  
  <defs>
    <style class="style-fonts">
      
    </style>
    
  </defs>
  <rect x="0" y="0" width="1032.1146919214382" height="375.83624349236555" fill="#ffffff"></rect><g stroke-linecap="round" transform="translate(693.8262515506312 10.95834993655643) rotate(0 16.577163696289062 161.4027099609375)"><path d="M0 0 C9.32 -0.63, 15.49 -1.75, 33.15 0 M0 0 C7.56 -0.72, 14.29 0.68, 33.15 0 M33.15 0 C34.7 126.23, 35.04 254.3, 33.15 322.81 M33.15 0 C32.13 79.52, 31.77 158.6, 33.15 322.81 M33.15 322.81 C20.68 322.84, 8.33 323.29, 0 322.81 M33.15 322.81 C25.26 323.88, 18.28 322.16, 0 322.81 M0 322.81 C3.11 249.01, 1.01 173.97, 0 0 M0 322.81 C-0.52 233.05, -1.2 141.9, 0 0" stroke="#1e1e1e" stroke-width="2" fill="none"></path></g><g stroke-linecap="round" transform="translate(693.9942950792264 333.6251584685967) rotate(0 16.617744265282752 15.066308698870841)"><path d="M0 0 C0 0, 0 0, 0 0 M0 0 C0 0, 0 0, 0 0 M0.13 12.04 C2.22 8.62, 5.57 6.88, 10.63 -0.03 M0.13 12.04 C3.52 8.31, 7.33 3.89, 10.63 -0.03 M0.27 24.08 C4.58 18.3, 8.89 13.68, 21.26 -0.07 M0.27 24.08 C7.48 15.92, 14.34 8.04, 21.26 -0.07 M5.65 30.08 C11.93 23.56, 16.49 17.95, 31.89 -0.1 M5.65 30.08 C16.13 18.18, 26.7 6.7, 31.89 -0.1 M16.28 30.05 C22 24.02, 28.97 16.4, 33.99 9.67 M16.28 30.05 C21.21 23.97, 26.6 18.19, 33.99 9.67 M26.91 30.02 C29.01 27.67, 30.99 25.22, 34.12 21.71 M26.91 30.02 C29.03 27.71, 30.96 25.35, 34.12 21.71 M0.17 30.28 C0.17 30.28, 0.17 30.28, 0.17 30.28 M0.17 30.28 C0.17 30.28, 0.17 30.28, 0.17 30.28 M12.22 30.15 C7.49 26.8, 3.89 22.29, 0.14 19.65 M12.22 30.15 C7.67 26.05, 2.28 21.96, 0.14 19.65 M24.26 30.02 C16.3 23.99, 8.15 16.9, 0.11 9.02 M24.26 30.02 C18.93 25.93, 14.62 21.01, 0.11 9.02 M33.28 27.26 C25.79 20.46, 16.52 12.02, 1.58 -0.29 M33.28 27.26 C25.3 20.94, 17.12 14.22, 1.58 -0.29 M33.24 16.63 C27.39 11.91, 22.05 6.73, 13.62 -0.43 M33.24 16.63 C26.05 10.21, 19.51 4.85, 13.62 -0.43 M33.21 6 C31.19 4.67, 29.86 2.39, 26.42 0.1 M33.21 6 C31.96 4.78, 30.28 3.36, 26.42 0.1" stroke="#228be6" stroke-width="1" fill="none"></path><path d="M0 0 C12.46 0.62, 25.29 -0.29, 33.24 0 M0 0 C6.77 0.07, 13.04 0.18, 33.24 0 M33.24 0 C34.06 6.75, 33.49 13.5, 33.24 30.13 M33.24 0 C33.84 8.95, 33.21 17.04, 33.24 30.13 M33.24 30.13 C24.5 30.42, 16.32 29.53, 0 30.13 M33.24 30.13 C23.12 29.66, 13.27 30.02, 0 30.13 M0 30.13 C-0.79 22.37, 0.09 13.84, 0 0 M0 30.13 C-0.05 18.17, 0.1 6.46, 0 0" stroke="#1e1e1e" stroke-width="2" fill="none"></path></g><g stroke-linecap="round" transform="translate(727.8074095494303 333.46592447316743) rotate(0 135.8744475206732 15.181099773187753)"><path d="M0 0 C59.94 1.51, 120.21 0.96, 271.75 0 M0 0 C82.37 -1.39, 163.74 -2.14, 271.75 0 M271.75 0 C270.13 10.41, 271.47 21.75, 271.75 30.36 M271.75 0 C272.14 10.69, 271.84 18.8, 271.75 30.36 M271.75 30.36 C213.27 29.91, 154.16 27.91, 0 30.36 M271.75 30.36 C172.87 31.5, 74.04 31.82, 0 30.36 M0 30.36 C0.21 19.23, -0.19 8.7, 0 0 M0 30.36 C-0.26 21.42, 0.56 12.95, 0 0" stroke="#1e1e1e" stroke-width="2" fill="none"></path></g><g stroke-linecap="round" transform="translate(159.42888916791253 10.472971889143878) rotate(0 64.13663250876033 111.58451299269257)"><path d="M0 0 C29.91 -0.33, 57.35 0.6, 128.27 0 M0 0 C31.11 -0.51, 63.1 0, 128.27 0 M128.27 0 C127.79 81.3, 125.5 164.74, 128.27 223.17 M128.27 0 C127.01 46.41, 126.67 92.35, 128.27 223.17 M128.27 223.17 C87.31 223.31, 42.29 224.95, 0 223.17 M128.27 223.17 C84.38 223.87, 40.75 224.7, 0 223.17 M0 223.17 C-2.43 172.28, -1.62 125.82, 0 0 M0 223.17 C-1.08 175.96, -1.16 128.25, 0 0" stroke="#1e1e1e" stroke-width="2" fill="none"></path></g><g stroke-linecap="round" transform="translate(158.15319325310668 234.54235584911697) rotate(0 65.05677189859074 65.64694382162429)"><path d="M0 0 C0 0, 0 0, 0 0 M0 0 C0 0, 0 0, 0 0 M0.13 12.04 C1.31 10.52, 6.21 6.01, 10.63 -0.03 M0.13 12.04 C3.57 7.8, 7.49 4.2, 10.63 -0.03 M0.27 24.08 C7.26 16.68, 14.76 9.1, 21.26 -0.07 M0.27 24.08 C5.46 16.83, 12.2 11.72, 21.26 -0.07 M-0.26 36.88 C10.81 24.43, 22.9 8.99, 31.89 -0.1 M-0.26 36.88 C12.43 22.07, 25.66 7.84, 31.89 -0.1 M-0.12 48.92 C13.47 34.95, 26.01 21.58, 42.52 -0.14 M-0.12 48.92 C17.41 29.08, 32.44 9.33, 42.52 -0.14 M0.01 60.96 C14.68 44.53, 29.57 30.97, 53.15 -0.17 M0.01 60.96 C17.21 41.9, 33.41 22.24, 53.15 -0.17 M0.14 73 C17.76 49.63, 35.88 31.88, 63.78 -0.21 M0.14 73 C18.31 53.09, 36.87 31.1, 63.78 -0.21 M0.28 85.04 C19.86 60.13, 42.54 34.81, 74.41 -0.24 M0.28 85.04 C15.94 68.14, 29.95 51.17, 74.41 -0.24 M-0.25 97.84 C27.89 63.22, 60.41 25.88, 85.04 -0.28 M-0.25 97.84 C22.99 69.63, 46.49 43.15, 85.04 -0.28 M-0.11 109.88 C32.65 73.92, 60.82 40.15, 95.67 -0.31 M-0.11 109.88 C35.22 69.95, 68.92 32.21, 95.67 -0.31 M0.02 121.92 C25.64 93.68, 45.85 69.97, 106.3 -0.34 M0.02 121.92 C22.31 96.22, 44.63 71.97, 106.3 -0.34 M2.12 131.69 C39.6 84.57, 80.62 40.76, 116.27 0.38 M2.12 131.69 C30.96 98.01, 59.74 65.09, 116.27 0.38 M12.75 131.66 C40.44 96.96, 73.24 63.8, 126.91 0.34 M12.75 131.66 C44.63 93.04, 79.22 54.7, 126.91 0.34 M23.38 131.63 C53.14 97.16, 80.16 63.52, 130.97 7.85 M23.38 131.63 C67.71 83.31, 108.94 33.88, 130.97 7.85 M34.01 131.59 C69.29 91.47, 103.64 49.16, 130.45 20.65 M34.01 131.59 C55.91 104.06, 80.44 77.73, 130.45 20.65 M44.64 131.56 C78.19 95.44, 108.39 56.04, 130.58 32.69 M44.64 131.56 C64.59 107.99, 85.79 84.43, 130.58 32.69 M55.27 131.52 C77.22 105.39, 103.8 75.6, 130.72 44.73 M55.27 131.52 C84.42 98.19, 112.06 64.75, 130.72 44.73 M65.9 131.49 C81.12 113.15, 95.5 98.21, 130.85 56.77 M65.9 131.49 C82.82 111.04, 100.41 90.09, 130.85 56.77 M75.88 132.21 C92.58 114.45, 109.29 92.91, 130.98 68.81 M75.88 132.21 C92.89 111.49, 111.41 89.65, 130.98 68.81 M86.51 132.17 C101.86 111.41, 118.83 96.52, 130.46 81.61 M86.51 132.17 C102.51 112.94, 117.09 95.72, 130.46 81.61 M97.14 132.14 C108.02 123.96, 114.53 110.19, 130.59 93.65 M97.14 132.14 C106 122.62, 115.27 111.78, 130.59 93.65 M107.77 132.1 C112.3 126.55, 115.9 123.1, 130.73 105.69 M107.77 132.1 C117.28 121.38, 124.49 112.37, 130.73 105.69 M118.4 132.07 C123.49 126.25, 129.16 122.17, 130.86 117.73 M118.4 132.07 C123.06 128.11, 126.33 123.63, 130.86 117.73 M129.03 132.04 C129.51 131.54, 130.37 130.5, 130.99 129.77 M129.03 132.04 C129.68 131.33, 130.37 130.58, 130.99 129.77 M-0.1 131.2 C-0.1 131.2, -0.1 131.2, -0.1 131.2 M-0.1 131.2 C-0.1 131.2, -0.1 131.2, -0.1 131.2 M11.94 131.07 C10.19 128.09, 6.34 127.91, -0.14 120.57 M11.94 131.07 C7.13 128.25, 4.51 124.64, -0.14 120.57 M24.73 131.59 C19.56 125.76, 15.07 123.33, -0.17 109.94 M24.73 131.59 C15.2 123.11, 6.95 116.79, -0.17 109.94 M36.77 131.46 C22.7 119.49, 6.57 106.52, -0.21 99.31 M36.77 131.46 C27.17 123.44, 15.66 114.36, -0.21 99.31 M48.82 131.33 C31.88 116.62, 18.07 106.04, -0.24 88.68 M48.82 131.33 C31.01 116.41, 11.25 99.44, -0.24 88.68 M60.86 131.19 C46.08 114.52, 26.37 102.48, -0.28 78.05 M60.86 131.19 C38.66 112.05, 17.7 93.4, -0.28 78.05 M72.9 131.06 C49.32 111.79, 26.67 90.07, -0.31 67.42 M72.9 131.06 C43.52 105.71, 14.32 80.44, -0.31 67.42 M85.69 131.58 C57.24 103.94, 23.51 79.9, -0.34 56.79 M85.69 131.58 C55.45 105.55, 26.19 78.14, -0.34 56.79 M97.73 131.45 C64.91 105.71, 34.15 78.63, 0.38 46.82 M97.73 131.45 C76.96 113.1, 56.47 96.47, 0.38 46.82 M109.77 131.32 C80.43 102.9, 48.67 80.29, 0.34 36.19 M109.77 131.32 C73.43 100.55, 37.57 71.41, 0.34 36.19 M121.81 131.18 C85.54 100.89, 49.72 69.88, 0.31 25.56 M121.81 131.18 C92.71 107.15, 64.89 82.73, 0.31 25.56 M131.59 129.08 C81.8 83.63, 26.68 36.42, 0.27 14.93 M131.59 129.08 C90.9 92.95, 49.98 58.18, 0.27 14.93 M131.56 118.45 C91.01 83.06, 48.95 50.21, 0.24 4.3 M131.56 118.45 C79.68 71.66, 25.95 27.83, 0.24 4.3 M131.52 107.82 C94.71 75.05, 60.84 46.15, 3.22 -3.71 M131.52 107.82 C101.15 81.91, 70.25 54.75, 3.22 -3.71 M131.49 97.19 C97.73 65.86, 61.44 35.13, 15.26 -3.84 M131.49 97.19 C97.07 67.45, 64.9 37, 15.26 -3.84 M132.21 87.22 C93.55 53.83, 57.11 22.32, 27.3 -3.97 M132.21 87.22 C110.85 68.44, 88.84 48.83, 27.3 -3.97 M132.17 76.59 C96.92 44.42, 61.24 16.35, 40.1 -3.45 M132.17 76.59 C112.76 59.23, 92.26 42.94, 40.1 -3.45 M132.14 65.96 C107.89 43.83, 86.77 24.97, 52.14 -3.58 M132.14 65.96 C100.34 38.62, 68.83 11.26, 52.14 -3.58 M132.1 55.33 C113.45 40.04, 98.38 27.76, 64.18 -3.72 M132.1 55.33 C112.52 37.59, 92.27 20.3, 64.18 -3.72 M132.07 44.7 C120.58 34.53, 107.95 26.5, 76.22 -3.85 M132.07 44.7 C110.62 25.18, 91.23 8.22, 76.22 -3.85 M132.04 34.07 C117.7 20.98, 101.22 4.32, 88.26 -3.98 M132.04 34.07 C122.3 24.98, 113.94 18.32, 88.26 -3.98 M132 23.44 C123.99 16.46, 119.91 12.12, 101.06 -3.46 M132 23.44 C120.59 13.48, 109.41 4.24, 101.06 -3.46 M131.97 12.81 C128.2 9.49, 119.82 2.16, 113.1 -3.59 M131.97 12.81 C127.76 8.16, 122.76 4.19, 113.1 -3.59 M131.93 2.18 C130.09 -0.38, 127.48 -2.9, 125.14 -3.73 M131.93 2.18 C130.23 1.21, 128.67 -0.66, 125.14 -3.73" stroke="#228be6" stroke-width="1" fill="none"></path><path d="M0 0 C50.03 -1.78, 98.07 -1.91, 130.11 0 M0 0 C43.33 -0.51, 87.01 -0.62, 130.11 0 M130.11 0 C132.23 31.16, 129.07 59.26, 130.11 131.29 M130.11 0 C129.44 30.93, 129.55 61.79, 130.11 131.29 M130.11 131.29 C90.1 130.56, 51.33 128.88, 0 131.29 M130.11 131.29 C81.88 131.05, 32.1 130.67, 0 131.29 M0 131.29 C-1.31 88.98, -2.22 47.92, 0 0 M0 131.29 C1.02 85.69, 0.31 40.35, 0 0" stroke="#1e1e1e" stroke-width="2" fill="none"></path></g><g stroke-linecap="round"><g transform="translate(815.3591355637819 10.903773189632744) rotate(0 -391.0330306683908 0)"><path d="M0 0 C-232.03 -0.73, -464.77 -1.6, -782.07 0" stroke="#1e1e1e" stroke-width="2.5" fill="none" stroke-dasharray="1.5 8"></path></g></g><mask></mask><g stroke-linecap="round"><g transform="translate(1022.1146919214382 363.1871789194842) rotate(0 -506.0573459607191 0)"><path d="M0 0 C-390.16 1.78, -781.56 1.92, -1012.11 0" stroke="#1e1e1e" stroke-width="2.5" fill="none" stroke-dasharray="1.5 8"></path></g></g><mask></mask><g stroke-linecap="round" transform="translate(288.6105347498227 234.54235584911697) rotate(0 132.04607072956276 65.64694382162429)"><path d="M0 0 C74.58 0, 145.06 1.77, 264.09 0 M0 0 C104.75 -0.52, 208.65 -0.2, 264.09 0 M264.09 0 C265.61 46.17, 264.78 95.07, 264.09 131.29 M264.09 0 C263.08 42.84, 263.1 84.07, 264.09 131.29 M264.09 131.29 C198.41 128.16, 130.66 129.15, 0 131.29 M264.09 131.29 C163.1 130.01, 63.53 129.37, 0 131.29 M0 131.29 C0.72 78.95, -1.48 26.53, 0 0 M0 131.29 C-0.85 90.23, -0.42 48.07, 0 0" stroke="#1e1e1e" stroke-width="2" fill="none"></path></g></svg>