<svg version="1.1" xmlns="http://www.w3.org/2000/svg" viewBox="0 0 323.89157172451195 409.8594055175781" width="323.89157172451195" height="409.8594055175781" class="excalidraw-svg"><!-- svg-source:excalidraw --><metadata></metadata><defs><style class="style-fonts">
      </style></defs><rect x="0" y="0" width="323.89157172451195" height="409.8594055175781" fill="#ffffff"></rect><g stroke-linecap="round"><g transform="translate(10.619302872563225 85.3515625) rotate(0 150.8141852066414 119.57814025878906)"><path d="M0 0 C0.75 88.59, 1.38 177.95, 0 314.51 M0 0 C-0.92 67.38, -0.72 134.14, 0 314.51 M0 314.51 C65.29 298.45, 131.41 278.96, 301.63 233.69 M0 314.51 C120.84 280.83, 240.21 247.78, 301.63 233.69 M301.63 233.69 C304.21 113.51, 303.39 -5.87, 301.63 -75.35 M301.63 233.69 C301.06 143.97, 301.78 55.22, 301.63 -75.35 M301.63 -75.35 C223.66 -53.96, 149.74 -34.99, 0 0 M301.63 -75.35 C185.33 -44.55, 68.84 -15.84, 0 0" stroke="#1e1e1e" stroke-width="2" fill="none"></path></g></g><mask></mask><g stroke-linecap="round"><g transform="translate(65.88495839014135 143.15310668945312) rotate(0 100.0411799986901 -26.805953390505593)"><path d="M0.57 -0.28 C34.18 -8.95, 167.96 -43.46, 201.24 -52.46 M-0.59 -1.47 C33 -10.41, 167.53 -45.34, 200.91 -53.97" stroke="#1e1e1e" stroke-width="2" fill="none"></path></g><g transform="translate(65.88495839014135 143.15310668945312) rotate(0 100.0411799986901 -26.805953390505593)"><path d="M180.31 -39.8 C185.36 -41.72, 193.2 -47.06, 200.91 -53.97 M180.31 -39.8 C184.83 -42.45, 190.9 -47.32, 200.91 -53.97" stroke="#1e1e1e" stroke-width="2" fill="none"></path></g><g transform="translate(65.88495839014135 143.15310668945312) rotate(0 100.0411799986901 -26.805953390505593)"><path d="M176.02 -56.35 C182.15 -53.9, 191.13 -54.85, 200.91 -53.97 M176.02 -56.35 C181.65 -54.92, 188.78 -55.72, 200.91 -53.97" stroke="#1e1e1e" stroke-width="2" fill="none"></path></g></g><mask></mask><g stroke-linecap="round"><g transform="translate(65.88495839014135 197.87496948242188) rotate(0 100.0411799986901 -26.805953390505593)"><path d="M-0.84 -0.54 C32.53 -9.43, 167.47 -44.18, 201.15 -52.89 M0.93 1.79 C34.15 -7.48, 167.41 -45.21, 200.76 -54.64" stroke="#1e1e1e" stroke-width="2" fill="none"></path></g><g transform="translate(65.88495839014135 197.87496948242188) rotate(0 100.0411799986901 -26.805953390505593)"><path d="M180.48 -40.02 C187.21 -43.63, 196.99 -49.03, 200.76 -54.64 M180.48 -40.02 C188.52 -45.71, 196.29 -51.81, 200.76 -54.64" stroke="#1e1e1e" stroke-width="2" fill="none"></path></g><g transform="translate(65.88495839014135 197.87496948242188) rotate(0 100.0411799986901 -26.805953390505593)"><path d="M175.83 -56.47 C184.38 -53.82, 195.92 -52.99, 200.76 -54.64 M175.83 -56.47 C185.43 -56.22, 194.89 -56.32, 200.76 -54.64" stroke="#1e1e1e" stroke-width="2" fill="none"></path></g></g><mask></mask><g stroke-linecap="round"><g transform="translate(65.88495839014135 261.8265380859375) rotate(0 100.0411799986901 -26.805953390505593)"><path d="M-0.88 -0.96 C32.77 -9.71, 167.52 -44.16, 201.08 -53.03 M0.85 1.15 C34.52 -7.91, 167.48 -45.79, 200.66 -54.85" stroke="#1e1e1e" stroke-width="2" fill="none"></path></g><g transform="translate(65.88495839014135 261.8265380859375) rotate(0 100.0411799986901 -26.805953390505593)"><path d="M180.34 -40.29 C183.43 -41.79, 190.64 -46.1, 200.66 -54.85 M180.34 -40.29 C185.43 -44.58, 190.76 -48.62, 200.66 -54.85" stroke="#1e1e1e" stroke-width="2" fill="none"></path></g><g transform="translate(65.88495839014135 261.8265380859375) rotate(0 100.0411799986901 -26.805953390505593)"><path d="M175.73 -56.76 C179.81 -54.47, 188.06 -55.03, 200.66 -54.85 M175.73 -56.76 C182.08 -56.93, 188.56 -56.83, 200.66 -54.85" stroke="#1e1e1e" stroke-width="2" fill="none"></path></g></g><mask></mask><g stroke-linecap="round"><g transform="translate(65.88495839014135 313.85308837890625) rotate(0 100.0411799986901 -26.805953390505593)"><path d="M-1.13 0.93 C32.17 -7.89, 166.59 -43.81, 200.14 -52.79 M0.48 0.38 C33.6 -8.79, 166.05 -45.26, 199.23 -54.48" stroke="#1e1e1e" stroke-width="2" fill="none"></path></g><g transform="translate(65.88495839014135 313.85308837890625) rotate(0 100.0411799986901 -26.805953390505593)"><path d="M178.86 -39.98 C187.07 -44.43, 193.56 -49.07, 199.23 -54.48 M178.86 -39.98 C185.16 -44.5, 193.1 -50.37, 199.23 -54.48" stroke="#1e1e1e" stroke-width="2" fill="none"></path></g><g transform="translate(65.88495839014135 313.85308837890625) rotate(0 100.0411799986901 -26.805953390505593)"><path d="M174.31 -56.46 C184.03 -55.47, 192 -54.71, 199.23 -54.48 M174.31 -56.46 C182.27 -55.12, 191.82 -55.15, 199.23 -54.48" stroke="#1e1e1e" stroke-width="2" fill="none"></path></g></g><mask></mask></svg>