<svg version="1.1" xmlns="http://www.w3.org/2000/svg" viewBox="0 0 597.8000030517578 298.3155975341797" width="597.8000030517578" height="298.3155975341797" class="excalidraw-svg"><!-- svg-source:excalidraw --><metadata></metadata><defs><style class="style-fonts">
      </style></defs><rect x="0" y="0" width="597.8000030517578" height="298.3155975341797" fill="#ffffff"></rect><g stroke-linecap="round" transform="translate(216.25941467285156 80.12033081054688) rotate(0 59.66717529296875 59.66717529296875)"><path d="M56.88 0.27 C65.55 -1.16, 75.75 1.91, 84.18 5.79 C92.6 9.67, 101.71 16.2, 107.43 23.54 C113.16 30.88, 116.98 40.79, 118.53 49.84 C120.09 58.88, 119.49 69.11, 116.75 77.8 C114.01 86.49, 108.89 95.44, 102.09 101.98 C95.3 108.53, 84.8 114.33, 75.99 117.09 C67.17 119.85, 57.98 120.32, 49.2 118.55 C40.42 116.77, 30.86 112.38, 23.33 106.46 C15.8 100.53, 7.85 91.57, 4.03 82.98 C0.22 74.4, -0.38 64.13, 0.44 54.94 C1.26 45.75, 4.06 35.72, 8.96 27.86 C13.85 20, 20.84 12.24, 29.8 7.77 C38.77 3.3, 56.22 1.83, 62.75 1.03 C69.28 0.23, 69.01 1.98, 68.97 2.98 M48.28 1.26 C56.75 -1.26, 67.95 -0.89, 76.58 1.81 C85.2 4.51, 93.33 10.72, 100.01 17.45 C106.69 24.18, 113.71 33.7, 116.66 42.2 C119.6 50.7, 119.12 59.58, 117.68 68.42 C116.25 77.27, 113.58 87.8, 108.06 95.26 C102.53 102.72, 92.88 109.31, 84.52 113.21 C76.16 117.11, 67.02 119.2, 57.89 118.66 C48.76 118.12, 38.09 114.43, 29.76 109.95 C21.43 105.47, 12.75 99.44, 7.92 91.78 C3.08 84.11, 1.06 73.17, 0.77 63.95 C0.47 54.72, 2.66 44.74, 6.14 36.42 C9.63 28.09, 14.88 19.73, 21.69 14.01 C28.5 8.29, 42.44 3.85, 47 2.09 C51.56 0.33, 48.74 2.77, 49.06 3.45" stroke="#1e1e1e" stroke-width="2" fill="none"></path></g><g transform="translate(26.256240844726562 123.19375610351562) rotate(0 172.10626220703125 -20.746856689453125)" stroke="none"><path fill="#1e1e1e" d="M 0,-8.13 Q 0,-8.13 1.63,-8.12 3.26,-8.10 5.52,-8.09 7.78,-8.07 10.50,-8.07 13.22,-8.06 16.25,-8.05 19.27,-8.04 22.57,-8.04 25.86,-8.03 28.88,-8.03 31.90,-8.03 34.67,-8.02 37.44,-8.02 40.02,-8.02 42.61,-8.02 44.94,-8.02 47.27,-8.02 49.47,-8.02 51.67,-8.01 53.75,-7.96 55.83,-7.90 57.77,-7.82 59.71,-7.74 61.39,-7.71 63.08,-7.67 64.61,-7.61 66.13,-7.54 67.52,-7.46 68.92,-7.38 70.16,-7.35 71.41,-7.31 72.61,-7.27 73.82,-7.23 75.08,-7.17 76.34,-7.10 77.72,-7.06 79.11,-7.01 80.59,-6.99 82.06,-6.97 83.54,-6.91 85.02,-6.85 86.53,-6.77 88.04,-6.69 89.55,-6.66 91.06,-6.63 92.52,-6.62 93.98,-6.60 95.43,-6.60 96.88,-6.59 98.39,-6.59 99.91,-6.59 101.52,-6.58 103.13,-6.58 104.79,-6.58 106.44,-6.58 108.07,-6.58 109.70,-6.58 111.40,-6.58 113.10,-6.58 114.96,-6.58 116.83,-6.58 118.89,-6.58 120.96,-6.58 123.24,-6.58 125.52,-6.58 127.95,-6.58 130.38,-6.58 132.81,-6.62 135.24,-6.66 137.63,-6.83 140.03,-7.00 142.36,-7.31 144.69,-7.61 146.94,-7.97 149.19,-8.33 151.46,-8.77 153.72,-9.20 155.90,-9.72 158.08,-10.24 160.14,-10.84 162.19,-11.45 164.03,-12.13 165.87,-12.81 167.54,-13.58 169.22,-14.34 170.83,-15.17 172.45,-15.99 173.96,-16.82 175.48,-17.66 176.99,-18.55 178.50,-19.45 180.07,-20.46 181.63,-21.48 183.27,-22.65 184.91,-23.81 186.66,-25.10 188.42,-26.38 190.28,-27.76 192.13,-29.15 194.00,-30.58 195.87,-32.01 197.71,-33.39 199.56,-34.78 201.40,-36.09 203.23,-37.40 204.99,-38.63 206.74,-39.87 208.37,-41.01 210.00,-42.15 211.55,-43.13 213.10,-44.11 214.59,-44.95 216.07,-45.79 217.52,-46.55 218.97,-47.32 220.41,-48.06 221.84,-48.79 223.26,-49.52 224.69,-50.24 226.14,-50.92 227.59,-51.59 229.10,-52.25 230.60,-52.90 232.22,-53.61 233.84,-54.31 235.53,-55.05 237.23,-55.78 239.00,-56.50 240.78,-57.23 242.68,-57.90 244.58,-58.58 246.51,-59.15 248.43,-59.71 250.31,-60.18 252.19,-60.64 253.94,-61.00 255.69,-61.36 257.28,-61.63 258.87,-61.90 260.36,-62.12 261.84,-62.35 263.23,-62.50 264.61,-62.65 265.95,-62.76 267.28,-62.88 268.67,-62.98 270.05,-63.08 271.46,-63.12 272.87,-63.17 274.29,-63.18 275.71,-63.20 277.13,-63.21 278.55,-63.22 279.97,-63.22 281.39,-63.22 282.73,-63.23 284.07,-63.23 285.38,-63.23 286.69,-63.23 288.05,-63.16 289.40,-63.08 290.78,-62.90 292.15,-62.72 293.68,-62.49 295.21,-62.25 296.92,-61.96 298.62,-61.66 300.43,-61.32 302.24,-60.97 303.95,-60.57 305.65,-60.17 307.08,-59.75 308.51,-59.33 309.79,-58.90 311.06,-58.48 312.22,-58.00 313.38,-57.53 314.55,-56.98 315.73,-56.42 317.10,-55.63 318.46,-54.84 319.95,-53.82 321.45,-52.80 323.01,-51.56 324.57,-50.31 326.21,-48.91 327.85,-47.51 329.42,-46.03 330.99,-44.56 332.31,-43.11 333.63,-41.67 334.64,-40.40 335.65,-39.13 336.37,-37.98 337.09,-36.82 337.64,-35.65 338.18,-34.48 338.66,-33.04 339.15,-31.59 339.55,-29.92 339.96,-28.24 340.33,-26.41 340.71,-24.57 341.14,-22.56 341.56,-20.55 342.00,-18.60 342.44,-16.65 342.87,-14.81 343.31,-12.98 343.69,-11.10 344.07,-9.23 344.30,-7.32 344.53,-5.42 344.62,-3.35 344.72,-1.28 344.76,0.84 344.80,2.97 344.82,4.90 344.84,6.82 344.77,8.62 344.70,10.42 344.40,11.98 344.10,13.54 343.54,14.82 342.99,16.09 342.32,17.11 341.64,18.12 340.80,18.89 339.96,19.65 338.96,20.19 337.96,20.72 336.89,21.02 335.83,21.33 334.70,21.45 333.57,21.57 332.47,21.62 331.38,21.67 330.32,21.57 329.27,21.47 328.37,21.17 327.48,20.87 326.82,20.47 326.15,20.06 325.67,19.42 325.19,18.79 324.96,18.00 324.73,17.21 324.66,16.38 324.58,15.56 324.77,14.61 324.95,13.65 325.63,12.79 326.32,11.94 327.32,11.41 328.32,10.88 330.48,10.44 332.63,10.00 332.81,10.01 332.98,10.02 333.15,10.08 333.31,10.14 333.44,10.26 333.58,10.37 333.67,10.52 333.76,10.66 333.80,10.83 333.84,11.00 333.82,11.18 333.80,11.35 333.73,11.51 333.66,11.67 333.54,11.80 333.42,11.93 333.27,12.01 333.12,12.09 332.94,12.12 332.77,12.15 332.60,12.13 332.43,12.10 332.27,12.02 332.12,11.94 332.00,11.81 331.87,11.69 331.80,11.53 331.73,11.37 331.70,11.20 331.68,11.03 331.72,10.85 331.76,10.68 331.84,10.53 331.93,10.38 332.06,10.27 332.20,10.15 332.36,10.09 332.52,10.02 332.69,10.01 332.87,10.00 333.04,10.05 333.20,10.09 333.35,10.19 333.50,10.28 333.60,10.42 333.71,10.56 333.77,10.72 333.82,10.89 333.83,11.06 333.83,11.24 333.77,11.40 333.72,11.57 333.61,11.71 333.51,11.85 333.37,11.95 333.22,12.05 333.06,12.10 332.89,12.14 332.89,12.14 332.89,12.14 331.06,12.40 329.23,12.66 328.54,13.01 327.86,13.35 327.41,13.78 326.97,14.22 326.82,14.83 326.67,15.44 326.70,16.11 326.72,16.78 326.96,17.74 327.20,18.69 327.62,19.07 328.05,19.46 328.74,19.78 329.43,20.10 330.38,20.22 331.32,20.34 332.37,20.29 333.43,20.24 334.45,20.13 335.48,20.03 336.42,19.78 337.36,19.54 338.22,19.10 339.09,18.67 339.82,18.02 340.56,17.38 341.17,16.47 341.79,15.56 342.30,14.42 342.81,13.29 343.10,11.82 343.38,10.36 343.45,8.60 343.53,6.83 343.51,4.92 343.49,3.00 343.45,0.89 343.41,-1.22 343.32,-3.24 343.22,-5.26 343.00,-7.11 342.78,-8.97 342.41,-10.82 342.03,-12.68 341.59,-14.52 341.16,-16.36 340.72,-18.32 340.28,-20.27 339.85,-22.29 339.42,-24.31 339.05,-26.12 338.68,-27.94 338.29,-29.55 337.90,-31.17 337.44,-32.55 336.99,-33.93 336.48,-35.03 335.97,-36.13 335.30,-37.22 334.62,-38.31 333.64,-39.55 332.66,-40.78 331.38,-42.19 330.09,-43.60 328.54,-45.06 326.99,-46.51 325.37,-47.90 323.76,-49.29 322.23,-50.50 320.70,-51.72 319.25,-52.71 317.81,-53.71 316.49,-54.47 315.17,-55.23 314.02,-55.77 312.88,-56.32 311.76,-56.77 310.65,-57.23 309.39,-57.65 308.14,-58.07 306.75,-58.48 305.35,-58.89 303.67,-59.29 301.99,-59.68 300.20,-60.02 298.40,-60.37 296.70,-60.66 295.01,-60.95 293.50,-61.19 291.98,-61.42 290.66,-61.60 289.33,-61.77 288.01,-61.84 286.70,-61.92 285.39,-61.91 284.07,-61.91 282.73,-61.91 281.39,-61.91 279.98,-61.91 278.56,-61.91 277.14,-61.90 275.73,-61.89 274.32,-61.87 272.91,-61.85 271.53,-61.81 270.14,-61.77 268.77,-61.67 267.39,-61.57 266.07,-61.46 264.75,-61.34 263.40,-61.20 262.04,-61.05 260.57,-60.83 259.09,-60.60 257.52,-60.34 255.96,-60.07 254.23,-59.72 252.50,-59.36 250.65,-58.91 248.80,-58.46 246.91,-57.90 245.02,-57.34 243.15,-56.67 241.27,-56.01 239.51,-55.29 237.75,-54.57 236.06,-53.84 234.37,-53.11 232.75,-52.40 231.13,-51.70 229.63,-51.05 228.14,-50.40 226.71,-49.74 225.28,-49.07 223.86,-48.35 222.44,-47.62 221.01,-46.89 219.59,-46.16 218.15,-45.40 216.72,-44.64 215.26,-43.82 213.80,-43.00 212.28,-42.04 210.75,-41.08 209.13,-39.94 207.50,-38.80 205.75,-37.56 203.99,-36.32 202.17,-35.03 200.35,-33.73 198.51,-32.35 196.67,-30.97 194.79,-29.53 192.92,-28.09 191.06,-26.71 189.19,-25.32 187.43,-24.03 185.67,-22.75 184.01,-21.56 182.35,-20.38 180.76,-19.35 179.17,-18.32 177.64,-17.41 176.11,-16.51 174.58,-15.66 173.04,-14.82 171.40,-13.98 169.77,-13.15 168.04,-12.36 166.32,-11.58 164.44,-10.88 162.56,-10.19 160.47,-9.57 158.39,-8.96 156.18,-8.44 153.97,-7.91 151.68,-7.47 149.40,-7.03 147.13,-6.67 144.86,-6.31 142.49,-6.00 140.12,-5.69 137.69,-5.52 135.26,-5.34 132.82,-5.31 130.38,-5.27 127.95,-5.27 125.52,-5.27 123.24,-5.27 120.96,-5.27 118.89,-5.27 116.83,-5.27 114.96,-5.27 113.10,-5.27 111.40,-5.27 109.70,-5.27 108.07,-5.27 106.44,-5.27 104.79,-5.27 103.13,-5.27 101.52,-5.27 99.91,-5.27 98.39,-5.27 96.87,-5.28 95.42,-5.28 93.97,-5.29 92.50,-5.30 91.03,-5.32 89.50,-5.35 87.98,-5.38 86.47,-5.46 84.97,-5.54 83.51,-5.59 82.04,-5.65 80.55,-5.67 79.07,-5.70 77.67,-5.74 76.27,-5.79 75.02,-5.86 73.77,-5.92 72.57,-5.96 71.37,-6.00 70.11,-6.03 68.84,-6.07 67.46,-6.15 66.08,-6.23 64.57,-6.29 63.05,-6.36 61.35,-6.39 59.65,-6.42 57.72,-6.50 55.80,-6.58 53.73,-6.64 51.67,-6.69 49.47,-6.69 47.27,-6.69 44.94,-6.69 42.61,-6.69 40.02,-6.68 37.44,-6.68 34.67,-6.68 31.90,-6.68 28.88,-6.67 25.86,-6.67 22.57,-6.67 19.27,-6.66 16.25,-6.65 13.22,-6.65 10.50,-6.64 7.78,-6.63 5.52,-6.62 3.26,-6.61 1.63,-6.59 0,-6.57 -0.09,-6.58 -0.18,-6.59 -0.27,-6.63 -0.36,-6.66 -0.44,-6.71 -0.51,-6.77 -0.58,-6.84 -0.64,-6.91 -0.68,-6.99 -0.73,-7.08 -0.75,-7.17 -0.77,-7.26 -0.77,-7.35 -0.77,-7.45 -0.75,-7.54 -0.73,-7.63 -0.68,-7.71 -0.64,-7.80 -0.58,-7.87 -0.51,-7.94 -0.44,-7.99 -0.36,-8.04 -0.27,-8.08 -0.18,-8.11 -0.09,-8.12 0.00,-8.13 0.00,-8.13 L 0,-8.13 Z"></path></g><g transform="translate(15.512496948242188 94.1171875) rotate(0 286.1437530517578 -19.666397094726562)" stroke="none"><path fill="#1e1e1e" d="M 0,-0.78 Q 0,-0.78 1.44,-0.76 2.88,-0.74 4.39,-0.73 5.90,-0.72 7.52,-0.71 9.14,-0.70 10.88,-0.69 12.63,-0.69 14.52,-0.68 16.41,-0.68 18.46,-0.67 20.51,-0.67 22.69,-0.67 24.87,-0.66 27.21,-0.66 29.54,-0.66 31.93,-0.72 34.31,-0.79 36.66,-0.98 39.02,-1.16 41.46,-1.48 43.91,-1.79 46.46,-2.24 49.01,-2.69 51.59,-3.22 54.18,-3.75 56.82,-4.28 59.46,-4.81 62.19,-5.31 64.92,-5.82 67.66,-6.31 70.41,-6.80 73.16,-7.36 75.92,-7.91 78.77,-8.56 81.62,-9.21 84.73,-9.93 87.84,-10.65 90.90,-11.38 93.95,-12.11 96.77,-12.84 99.59,-13.56 102.66,-14.38 105.72,-15.20 108.78,-16.10 111.84,-17.00 114.80,-18.00 117.75,-18.99 120.59,-20.09 123.42,-21.18 126.04,-22.28 128.66,-23.38 131.23,-24.46 133.80,-25.53 136.26,-26.58 138.72,-27.63 140.93,-28.65 143.14,-29.67 145.17,-30.60 147.20,-31.53 149.19,-32.50 151.19,-33.46 153.19,-34.50 155.18,-35.54 157.20,-36.52 159.23,-37.49 161.14,-38.35 163.05,-39.21 164.75,-39.98 166.45,-40.76 168.00,-41.44 169.54,-42.11 170.95,-42.75 172.35,-43.39 173.77,-44.08 175.20,-44.77 176.80,-45.57 178.39,-46.37 180.31,-47.32 182.23,-48.26 184.52,-49.37 186.81,-50.47 189.37,-51.65 191.93,-52.82 194.60,-53.99 197.28,-55.15 199.89,-56.29 202.51,-57.43 205.07,-58.53 207.63,-59.62 209.98,-60.61 212.32,-61.59 214.37,-62.50 216.42,-63.41 218.26,-64.23 220.11,-65.05 221.80,-65.76 223.50,-66.47 225.11,-67.13 226.73,-67.79 228.30,-68.43 229.88,-69.07 231.38,-69.65 232.88,-70.22 234.34,-70.76 235.80,-71.31 237.33,-71.90 238.86,-72.50 240.58,-73.13 242.29,-73.77 244.14,-74.42 245.99,-75.07 247.94,-75.70 249.90,-76.34 251.96,-76.93 254.01,-77.53 256.12,-78.10 258.24,-78.67 260.33,-79.20 262.42,-79.73 264.40,-80.21 266.37,-80.69 268.30,-81.10 270.23,-81.51 272.12,-81.83 274.00,-82.15 275.79,-82.40 277.57,-82.64 279.24,-82.81 280.91,-82.97 282.31,-83.05 283.71,-83.13 284.75,-83.17 285.78,-83.22 286.81,-83.24 287.83,-83.26 289.14,-83.34 290.45,-83.41 291.92,-83.56 293.39,-83.71 294.87,-83.82 296.35,-83.92 297.67,-83.97 298.98,-84.02 300.03,-84.04 301.07,-84.06 302.00,-84.10 302.92,-84.14 303.76,-84.22 304.59,-84.31 305.42,-84.40 306.24,-84.50 307.08,-84.56 307.93,-84.63 308.66,-84.72 309.40,-84.81 310.12,-84.91 310.84,-85.00 311.58,-85.06 312.33,-85.11 313.00,-85.15 313.66,-85.19 314.33,-85.21 314.99,-85.24 315.74,-85.25 316.50,-85.25 317.32,-85.25 318.15,-85.24 319.03,-85.22 319.92,-85.20 320.80,-85.19 321.69,-85.18 322.54,-85.17 323.38,-85.17 324.17,-85.18 324.96,-85.18 325.70,-85.20 326.44,-85.21 327.16,-85.22 327.88,-85.23 328.59,-85.25 329.30,-85.26 330.01,-85.27 330.72,-85.28 331.44,-85.28 332.15,-85.28 332.98,-85.21 333.80,-85.14 334.74,-84.93 335.67,-84.72 336.61,-84.45 337.54,-84.18 338.46,-83.90 339.37,-83.62 340.25,-83.34 341.13,-83.06 341.98,-82.76 342.83,-82.47 343.63,-82.19 344.43,-81.92 345.17,-81.69 345.91,-81.47 346.65,-81.22 347.39,-80.97 348.07,-80.73 348.75,-80.49 349.40,-80.25 350.05,-80.01 350.74,-79.71 351.44,-79.41 352.14,-79.08 352.85,-78.75 353.55,-78.40 354.26,-78.06 354.96,-77.71 355.67,-77.36 356.42,-77.00 357.17,-76.64 357.96,-76.27 358.74,-75.90 359.57,-75.46 360.39,-75.01 361.27,-74.48 362.14,-73.94 363.03,-73.37 363.93,-72.80 364.83,-72.23 365.73,-71.65 366.62,-71.09 367.51,-70.52 368.36,-69.98 369.21,-69.43 370.01,-68.93 370.81,-68.43 371.57,-67.98 372.32,-67.53 373.10,-67.01 373.88,-66.50 374.68,-65.92 375.49,-65.34 376.30,-64.76 377.12,-64.19 378.00,-63.55 378.87,-62.91 379.72,-62.27 380.56,-61.63 381.38,-61.05 382.20,-60.48 383.03,-59.87 383.85,-59.26 384.63,-58.64 385.40,-58.02 386.14,-57.46 386.87,-56.90 387.66,-56.29 388.45,-55.68 389.33,-54.98 390.21,-54.28 391.18,-53.52 392.16,-52.76 393.26,-51.92 394.36,-51.07 395.45,-50.16 396.55,-49.25 397.62,-48.37 398.69,-47.49 399.76,-46.61 400.83,-45.74 401.86,-44.87 402.89,-44.00 403.93,-43.15 404.98,-42.29 406.09,-41.42 407.20,-40.55 408.31,-39.64 409.42,-38.74 410.45,-37.86 411.48,-36.98 412.52,-36.11 413.56,-35.24 414.62,-34.37 415.67,-33.50 416.68,-32.62 417.70,-31.75 418.68,-30.88 419.66,-30.02 420.60,-29.23 421.54,-28.45 422.40,-27.71 423.27,-26.97 424.08,-26.22 424.90,-25.48 425.81,-24.69 426.72,-23.90 427.84,-22.94 428.96,-21.99 430.38,-20.75 431.79,-19.50 433.39,-18.10 434.98,-16.69 436.56,-15.27 438.15,-13.84 439.75,-12.39 441.35,-10.94 443.01,-9.48 444.67,-8.02 446.33,-6.60 447.99,-5.19 449.80,-3.75 451.61,-2.31 453.73,-0.74 455.86,0.83 458.22,2.49 460.58,4.15 462.97,5.76 465.35,7.37 467.98,9.15 470.60,10.92 473.51,12.99 476.42,15.05 479.25,17.07 482.08,19.10 484.94,20.99 487.80,22.88 490.69,24.67 493.57,26.46 496.73,28.31 499.90,30.15 503.63,32.02 507.36,33.89 511.46,35.57 515.56,37.24 519.86,38.62 524.16,40.00 528.18,41.00 532.21,42.00 535.91,42.59 539.61,43.18 543.20,43.45 546.79,43.72 549.94,43.84 553.08,43.95 555.58,44.00 558.07,44.05 560.03,44.07 561.99,44.09 563.56,44.04 565.12,43.99 566.29,43.82 567.46,43.65 569.59,42.95 571.72,42.24 571.84,42.22 571.96,42.20 572.08,42.22 572.20,42.23 572.30,42.29 572.41,42.34 572.50,42.42 572.58,42.51 572.63,42.62 572.69,42.73 572.70,42.84 572.72,42.96 572.70,43.08 572.67,43.20 572.61,43.30 572.55,43.41 572.46,43.49 572.37,43.57 572.26,43.61 572.15,43.66 572.03,43.67 571.91,43.68 571.80,43.65 571.68,43.62 571.58,43.56 571.48,43.49 571.40,43.40 571.33,43.30 571.29,43.19 571.25,43.08 571.24,42.96 571.24,42.84 571.28,42.72 571.31,42.61 571.38,42.51 571.45,42.41 571.55,42.34 571.65,42.27 571.76,42.24 571.88,42.21 572.00,42.21 572.12,42.21 572.23,42.25 572.34,42.30 572.44,42.37 572.53,42.45 572.59,42.55 572.66,42.65 572.69,42.77 572.72,42.88 572.71,43.00 572.70,43.12 572.65,43.23 572.60,43.34 572.52,43.43 572.44,43.52 572.33,43.58 572.23,43.64 572.23,43.64 572.23,43.64 569.94,44.29 567.65,44.95 566.41,45.13 565.17,45.30 563.57,45.35 561.98,45.41 560.01,45.38 558.05,45.36 555.54,45.31 553.04,45.26 549.86,45.15 546.69,45.03 543.05,44.75 539.40,44.48 535.65,43.88 531.89,43.28 527.82,42.26 523.76,41.25 519.41,39.85 515.06,38.46 510.92,36.76 506.78,35.07 503.01,33.18 499.24,31.29 496.06,29.43 492.87,27.58 489.98,25.77 487.08,23.97 484.20,22.07 481.31,20.16 478.49,18.14 475.66,16.12 472.76,14.06 469.86,12.01 467.24,10.23 464.62,8.46 462.22,6.84 459.83,5.22 457.45,3.55 455.07,1.88 452.93,0.30 450.80,-1.28 448.97,-2.74 447.14,-4.19 445.47,-5.61 443.80,-7.03 442.13,-8.50 440.46,-9.97 438.87,-11.42 437.27,-12.87 435.69,-14.29 434.11,-15.71 432.52,-17.11 430.93,-18.52 429.52,-19.75 428.11,-20.99 426.98,-21.95 425.85,-22.90 424.93,-23.71 424.01,-24.51 423.21,-25.24 422.41,-25.97 421.56,-26.70 420.70,-27.44 419.75,-28.23 418.80,-29.03 417.82,-29.89 416.83,-30.75 415.83,-31.62 414.83,-32.48 413.78,-33.36 412.72,-34.23 411.67,-35.10 410.63,-35.97 409.60,-36.84 408.58,-37.71 407.48,-38.61 406.37,-39.50 405.26,-40.38 404.14,-41.26 403.08,-42.11 402.02,-42.97 401.00,-43.83 399.97,-44.69 398.90,-45.56 397.82,-46.43 396.75,-47.31 395.67,-48.18 394.59,-49.06 393.50,-49.95 392.39,-50.77 391.28,-51.60 390.28,-52.35 389.29,-53.09 388.39,-53.76 387.49,-54.43 386.69,-55.04 385.89,-55.65 385.17,-56.24 384.44,-56.83 383.70,-57.44 382.96,-58.06 382.15,-58.65 381.34,-59.25 380.51,-59.84 379.67,-60.42 378.83,-61.03 377.98,-61.63 377.09,-62.23 376.19,-62.83 375.35,-63.40 374.50,-63.97 373.72,-64.52 372.93,-65.08 372.17,-65.59 371.42,-66.10 370.69,-66.59 369.95,-67.08 369.16,-67.59 368.36,-68.11 367.52,-68.64 366.68,-69.17 365.78,-69.69 364.88,-70.22 363.95,-70.74 363.02,-71.25 362.10,-71.75 361.18,-72.24 360.31,-72.69 359.43,-73.14 358.64,-73.53 357.85,-73.92 357.04,-74.26 356.23,-74.61 355.44,-74.96 354.65,-75.31 353.95,-75.66 353.25,-76.00 352.56,-76.34 351.87,-76.68 351.19,-77.00 350.52,-77.32 349.86,-77.62 349.20,-77.92 348.59,-78.19 347.97,-78.46 347.33,-78.72 346.69,-78.99 345.98,-79.25 345.28,-79.52 344.53,-79.78 343.78,-80.04 342.98,-80.32 342.19,-80.60 341.37,-80.88 340.55,-81.16 339.69,-81.41 338.83,-81.67 337.92,-81.89 337.01,-82.12 336.12,-82.32 335.22,-82.52 334.42,-82.67 333.61,-82.81 332.87,-82.87 332.14,-82.93 331.43,-82.94 330.72,-82.95 330.01,-82.96 329.30,-82.97 328.59,-82.98 327.88,-82.99 327.16,-83.00 326.44,-83.02 325.70,-83.03 324.96,-83.04 324.17,-83.05 323.38,-83.06 322.54,-83.05 321.69,-83.05 320.81,-83.03 319.92,-83.02 319.04,-83.00 318.15,-82.98 317.33,-82.97 316.50,-82.96 315.76,-82.96 315.01,-82.97 314.36,-82.98 313.71,-83.00 313.06,-83.01 312.42,-83.02 311.73,-83.01 311.04,-83.01 310.30,-82.96 309.56,-82.91 308.78,-82.87 308.01,-82.84 307.20,-82.82 306.39,-82.81 305.54,-82.77 304.69,-82.72 303.81,-82.70 302.93,-82.68 302.02,-82.70 301.10,-82.71 300.06,-82.70 299.03,-82.68 297.74,-82.64 296.45,-82.59 294.99,-82.48 293.53,-82.37 292.03,-82.21 290.54,-82.05 289.19,-81.97 287.85,-81.88 286.84,-81.88 285.83,-81.87 284.81,-81.85 283.79,-81.82 282.41,-81.74 281.04,-81.67 279.39,-81.50 277.75,-81.34 275.99,-81.10 274.22,-80.86 272.37,-80.54 270.51,-80.23 268.59,-79.82 266.68,-79.41 264.71,-78.94 262.74,-78.46 260.66,-77.93 258.58,-77.40 256.48,-76.83 254.38,-76.26 252.34,-75.68 250.31,-75.09 248.36,-74.46 246.42,-73.83 244.58,-73.18 242.75,-72.53 241.04,-71.90 239.34,-71.27 237.80,-70.67 236.26,-70.08 234.80,-69.53 233.35,-68.99 231.86,-68.42 230.37,-67.86 228.80,-67.22 227.22,-66.58 225.61,-65.92 224.00,-65.26 222.32,-64.55 220.64,-63.85 218.80,-63.03 216.95,-62.21 214.89,-61.30 212.83,-60.38 210.49,-59.40 208.14,-58.42 205.59,-57.32 203.04,-56.23 200.42,-55.09 197.80,-53.94 195.14,-52.79 192.48,-51.63 189.93,-50.46 187.38,-49.29 185.10,-48.19 182.82,-47.09 180.90,-46.14 178.98,-45.19 177.38,-44.39 175.77,-43.59 174.33,-42.89 172.89,-42.20 171.48,-41.55 170.07,-40.91 168.53,-40.24 167.00,-39.56 165.29,-38.79 163.59,-38.01 161.69,-37.16 159.80,-36.31 157.79,-35.34 155.79,-34.38 153.77,-33.33 151.76,-32.28 149.75,-31.31 147.75,-30.34 145.72,-29.41 143.68,-28.47 141.46,-27.45 139.23,-26.43 136.77,-25.37 134.31,-24.32 131.74,-23.25 129.17,-22.17 126.53,-21.06 123.89,-19.95 121.03,-18.85 118.17,-17.75 115.19,-16.75 112.21,-15.74 109.14,-14.84 106.06,-13.93 102.99,-13.11 99.92,-12.29 97.09,-11.56 94.26,-10.84 91.20,-10.10 88.14,-9.37 85.02,-8.65 81.91,-7.93 79.04,-7.28 76.18,-6.62 73.41,-6.06 70.64,-5.51 67.90,-5.02 65.16,-4.52 62.44,-4.02 59.72,-3.52 57.08,-2.99 54.45,-2.46 51.84,-1.93 49.24,-1.39 46.66,-0.94 44.08,-0.48 41.60,-0.16 39.12,0.15 36.73,0.34 34.35,0.53 31.94,0.60 29.54,0.66 27.21,0.66 24.87,0.66 22.69,0.67 20.51,0.67 18.46,0.67 16.41,0.68 14.52,0.68 12.63,0.69 10.88,0.69 9.14,0.70 7.52,0.71 5.90,0.72 4.39,0.73 2.88,0.74 1.44,0.76 0,0.78 -0.09,0.76 -0.18,0.75 -0.27,0.72 -0.36,0.69 -0.44,0.63 -0.51,0.58 -0.58,0.51 -0.64,0.44 -0.68,0.36 -0.73,0.27 -0.75,0.18 -0.77,0.09 -0.77,-0.00 -0.77,-0.09 -0.75,-0.18 -0.73,-0.27 -0.68,-0.36 -0.64,-0.44 -0.58,-0.51 -0.51,-0.58 -0.44,-0.63 -0.36,-0.69 -0.27,-0.72 -0.18,-0.75 -0.09,-0.76 0.00,-0.78 0.00,-0.78 L 0,-0.78 Z"></path></g><g transform="translate(20.134384155273438 105.94845581054688) rotate(0 210.6820526123047 -23.538284301757812)" stroke="none"><path fill="#1e1e1e" d="M 0,-0.85 Q 0,-0.85 0.59,-0.89 1.18,-0.94 1.85,-0.97 2.53,-1.01 3.48,-0.99 4.43,-0.97 5.67,-0.93 6.91,-0.88 8.41,-0.85 9.92,-0.82 11.66,-0.80 13.41,-0.77 15.15,-0.76 16.90,-0.74 18.49,-0.73 20.08,-0.72 21.49,-0.71 22.91,-0.70 24.12,-0.69 25.33,-0.69 26.39,-0.68 27.45,-0.68 28.44,-0.69 29.43,-0.70 30.45,-0.71 31.48,-0.71 32.65,-0.70 33.82,-0.69 35.13,-0.69 36.44,-0.68 37.82,-0.68 39.20,-0.67 40.52,-0.67 41.85,-0.67 43.11,-0.67 44.36,-0.66 45.64,-0.66 46.91,-0.66 48.17,-0.68 49.43,-0.71 50.69,-0.77 51.95,-0.83 53.31,-0.89 54.67,-0.95 56.10,-1.04 57.53,-1.12 58.99,-1.27 60.45,-1.42 61.90,-1.58 63.35,-1.74 64.74,-1.87 66.13,-1.99 67.41,-2.11 68.69,-2.23 69.90,-2.33 71.12,-2.44 72.30,-2.49 73.49,-2.55 74.59,-2.62 75.68,-2.69 76.76,-2.78 77.83,-2.86 78.97,-2.96 80.11,-3.06 81.33,-3.22 82.56,-3.39 83.91,-3.58 85.26,-3.77 86.65,-4.03 88.03,-4.29 89.48,-4.64 90.93,-4.98 92.41,-5.37 93.88,-5.75 95.32,-6.17 96.75,-6.60 98.22,-7.07 99.68,-7.55 101.17,-8.03 102.67,-8.50 104.13,-8.94 105.60,-9.38 107.06,-9.80 108.53,-10.22 110.05,-10.64 111.57,-11.06 113.18,-11.48 114.78,-11.90 116.43,-12.38 118.07,-12.85 119.73,-13.36 121.39,-13.86 123.07,-14.32 124.75,-14.79 126.45,-15.23 128.14,-15.67 129.75,-16.09 131.36,-16.51 132.87,-16.93 134.37,-17.34 135.81,-17.75 137.25,-18.15 138.66,-18.56 140.07,-18.96 141.47,-19.39 142.88,-19.82 144.33,-20.29 145.77,-20.76 147.33,-21.24 148.88,-21.71 150.52,-22.19 152.15,-22.67 153.75,-23.21 155.35,-23.75 156.93,-24.29 158.52,-24.84 160.14,-25.39 161.77,-25.94 163.36,-26.47 164.95,-27.00 166.52,-27.52 168.09,-28.05 169.63,-28.62 171.18,-29.19 172.72,-29.79 174.27,-30.39 175.83,-30.94 177.39,-31.50 178.88,-31.97 180.37,-32.45 181.75,-32.93 183.13,-33.41 184.55,-33.92 185.98,-34.43 187.52,-34.95 189.07,-35.47 190.69,-36.03 192.32,-36.60 194.04,-37.20 195.75,-37.80 197.45,-38.39 199.15,-38.98 200.77,-39.57 202.38,-40.16 203.95,-40.82 205.53,-41.49 207.25,-42.27 208.97,-43.05 210.91,-43.90 212.86,-44.74 214.90,-45.69 216.95,-46.63 218.98,-47.61 221.01,-48.59 222.86,-49.49 224.71,-50.39 226.24,-51.17 227.77,-51.96 228.89,-52.56 230.02,-53.16 230.70,-53.59 231.37,-54.03 231.84,-54.30 232.32,-54.58 232.90,-54.75 233.49,-54.92 234.40,-55.07 235.32,-55.21 236.78,-55.48 238.25,-55.74 240.10,-56.12 241.95,-56.50 243.97,-56.94 245.98,-57.38 248.07,-57.82 250.16,-58.27 252.33,-58.71 254.50,-59.16 256.73,-59.67 258.96,-60.18 261.21,-60.78 263.46,-61.38 265.74,-62.03 268.02,-62.68 270.28,-63.40 272.55,-64.12 274.81,-64.94 277.06,-65.76 279.26,-66.55 281.45,-67.35 283.44,-68.01 285.44,-68.67 287.24,-69.25 289.04,-69.83 290.70,-70.36 292.37,-70.90 293.99,-71.36 295.62,-71.83 297.28,-72.27 298.93,-72.71 300.62,-73.09 302.31,-73.46 304.00,-73.78 305.70,-74.09 307.48,-74.32 309.27,-74.54 311.15,-74.64 313.03,-74.74 314.94,-74.78 316.84,-74.82 318.80,-74.84 320.76,-74.85 322.75,-74.86 324.74,-74.87 326.73,-74.87 328.73,-74.87 330.74,-74.75 332.76,-74.64 334.88,-74.13 337.01,-73.63 339.23,-72.83 341.44,-72.03 343.60,-71.17 345.76,-70.31 347.74,-69.45 349.72,-68.59 351.60,-67.66 353.48,-66.74 355.27,-65.77 357.06,-64.81 358.81,-63.74 360.57,-62.67 362.41,-61.50 364.26,-60.32 366.00,-59.24 367.75,-58.15 369.35,-57.15 370.96,-56.14 372.44,-55.24 373.92,-54.34 375.22,-53.53 376.53,-52.72 377.72,-51.93 378.90,-51.15 379.97,-50.38 381.03,-49.61 382.06,-48.86 383.10,-48.10 384.15,-47.28 385.20,-46.45 386.28,-45.53 387.37,-44.60 388.59,-43.62 389.82,-42.64 391.03,-41.71 392.24,-40.77 393.36,-39.94 394.48,-39.11 395.58,-38.25 396.68,-37.39 397.73,-36.44 398.78,-35.48 399.87,-34.41 400.97,-33.35 402.09,-32.17 403.22,-31.00 404.29,-29.80 405.37,-28.60 406.39,-27.31 407.42,-26.03 408.32,-24.67 409.23,-23.32 410.02,-21.99 410.81,-20.66 411.52,-19.32 412.24,-17.98 412.85,-16.51 413.47,-15.05 413.99,-13.53 414.51,-12.00 415.02,-10.47 415.53,-8.93 416.05,-7.31 416.57,-5.70 417.03,-4.11 417.50,-2.52 417.92,-1.10 418.34,0.32 418.75,1.66 419.15,3.00 419.55,4.31 419.95,5.63 420.29,6.94 420.64,8.25 420.94,9.54 421.24,10.83 421.46,12.05 421.68,13.28 421.78,14.50 421.88,15.71 421.92,16.97 421.96,18.24 421.90,19.58 421.84,20.93 421.46,22.32 421.07,23.71 420.52,24.76 419.98,25.80 419.32,26.41 418.66,27.02 417.59,27.31 416.51,27.59 415.33,27.66 414.14,27.72 412.97,27.62 411.79,27.51 410.70,27.30 409.61,27.08 408.67,26.88 407.73,26.68 405.53,26.11 403.33,25.55 403.20,25.49 403.08,25.44 402.98,25.35 402.88,25.26 402.82,25.15 402.75,25.03 402.72,24.90 402.70,24.77 402.72,24.64 402.73,24.50 402.79,24.38 402.85,24.26 402.95,24.17 403.04,24.07 403.16,24.01 403.28,23.95 403.41,23.94 403.54,23.92 403.68,23.94 403.81,23.97 403.92,24.03 404.04,24.10 404.13,24.20 404.22,24.30 404.27,24.42 404.33,24.54 404.34,24.68 404.35,24.81 404.32,24.94 404.28,25.07 404.21,25.18 404.14,25.29 404.04,25.38 403.93,25.46 403.81,25.51 403.68,25.56 403.55,25.56 403.41,25.56 403.29,25.52 403.16,25.49 403.05,25.41 402.94,25.33 402.86,25.22 402.78,25.11 402.74,24.99 402.71,24.86 402.71,24.72 402.71,24.59 402.76,24.46 402.80,24.34 402.89,24.23 402.97,24.13 403.08,24.06 403.20,23.99 403.33,23.95 403.45,23.92 403.59,23.93 403.72,23.94 403.72,23.94 403.72,23.94 405.90,24.58 408.07,25.23 408.97,25.46 409.87,25.70 410.89,25.88 411.91,26.07 412.98,26.15 414.05,26.23 415.11,26.15 416.17,26.07 416.98,25.93 417.78,25.79 418.31,25.47 418.85,25.15 419.33,24.25 419.81,23.35 420.17,22.11 420.53,20.87 420.59,19.57 420.64,18.28 420.61,17.05 420.57,15.81 420.48,14.66 420.39,13.51 420.18,12.32 419.96,11.12 419.67,9.86 419.37,8.59 419.03,7.30 418.69,6.01 418.29,4.69 417.89,3.38 417.49,2.03 417.08,0.69 416.66,-0.73 416.23,-2.15 415.78,-3.72 415.32,-5.30 414.81,-6.90 414.29,-8.51 413.78,-10.05 413.27,-11.58 412.76,-13.06 412.26,-14.54 411.67,-15.95 411.08,-17.36 410.38,-18.67 409.68,-19.99 408.91,-21.29 408.14,-22.59 407.27,-23.90 406.39,-25.21 405.39,-26.47 404.39,-27.72 403.33,-28.91 402.27,-30.09 401.16,-31.25 400.05,-32.41 398.97,-33.46 397.89,-34.51 396.88,-35.44 395.87,-36.36 394.78,-37.21 393.70,-38.06 392.57,-38.90 391.44,-39.73 390.22,-40.67 389.00,-41.61 387.75,-42.61 386.51,-43.60 385.45,-44.51 384.39,-45.42 383.36,-46.23 382.32,-47.04 381.29,-47.79 380.26,-48.55 379.22,-49.30 378.18,-50.05 377.01,-50.83 375.84,-51.60 374.54,-52.41 373.23,-53.22 371.75,-54.12 370.27,-55.03 368.66,-56.03 367.05,-57.04 365.30,-58.13 363.56,-59.22 361.72,-60.38 359.88,-61.55 358.16,-62.60 356.43,-63.65 354.67,-64.60 352.90,-65.56 351.05,-66.47 349.19,-67.38 347.23,-68.24 345.27,-69.09 343.13,-69.94 340.99,-70.79 338.85,-71.57 336.70,-72.36 334.69,-72.84 332.68,-73.32 330.70,-73.44 328.73,-73.56 326.74,-73.56 324.74,-73.55 322.76,-73.55 320.78,-73.54 318.82,-73.52 316.87,-73.50 314.98,-73.46 313.10,-73.42 311.27,-73.33 309.44,-73.24 307.69,-73.02 305.94,-72.80 304.26,-72.49 302.59,-72.18 300.93,-71.81 299.27,-71.44 297.63,-71.00 295.98,-70.57 294.38,-70.10 292.77,-69.64 291.11,-69.11 289.45,-68.57 287.65,-67.99 285.85,-67.41 283.88,-66.75 281.90,-66.10 279.71,-65.30 277.52,-64.50 275.24,-63.67 272.96,-62.83 270.68,-62.10 268.39,-61.37 266.11,-60.71 263.82,-60.05 261.55,-59.43 259.27,-58.81 257.04,-58.28 254.80,-57.75 252.64,-57.29 250.48,-56.82 248.40,-56.35 246.32,-55.88 244.31,-55.40 242.31,-54.91 240.45,-54.47 238.60,-54.03 237.12,-53.69 235.64,-53.34 234.73,-53.18 233.83,-53.02 232.97,-52.87 232.11,-52.72 231.37,-52.36 230.64,-52.00 229.50,-51.40 228.37,-50.79 226.82,-50.00 225.28,-49.21 223.43,-48.31 221.58,-47.41 219.54,-46.42 217.50,-45.44 215.44,-44.49 213.38,-43.54 211.45,-42.70 209.51,-41.85 207.78,-41.07 206.04,-40.28 204.43,-39.60 202.83,-38.92 201.21,-38.33 199.58,-37.74 197.88,-37.15 196.18,-36.56 194.47,-35.96 192.75,-35.35 191.12,-34.79 189.49,-34.23 187.96,-33.71 186.43,-33.20 184.99,-32.68 183.56,-32.17 182.16,-31.68 180.76,-31.19 179.30,-30.73 177.84,-30.26 176.29,-29.71 174.74,-29.16 173.19,-28.56 171.63,-27.96 170.07,-27.38 168.50,-26.80 166.93,-26.28 165.37,-25.76 163.78,-25.22 162.19,-24.69 160.57,-24.14 158.94,-23.60 157.36,-23.05 155.77,-22.51 154.15,-21.96 152.52,-21.42 150.89,-20.93 149.27,-20.45 147.72,-19.98 146.18,-19.51 144.72,-19.04 143.27,-18.56 141.85,-18.13 140.43,-17.70 139.02,-17.30 137.61,-16.89 136.16,-16.48 134.72,-16.07 133.20,-15.66 131.69,-15.24 130.08,-14.82 128.47,-14.40 126.79,-13.96 125.10,-13.52 123.44,-13.06 121.77,-12.60 120.10,-12.10 118.43,-11.59 116.78,-11.11 115.12,-10.63 113.52,-10.21 111.92,-9.79 110.41,-9.37 108.89,-8.96 107.43,-8.54 105.97,-8.12 104.52,-7.69 103.06,-7.25 101.58,-6.78 100.09,-6.30 98.61,-5.82 97.12,-5.34 95.67,-4.91 94.21,-4.48 92.72,-4.09 91.23,-3.71 89.75,-3.35 88.27,-3.00 86.86,-2.74 85.45,-2.47 84.09,-2.28 82.74,-2.08 81.48,-1.92 80.22,-1.75 79.08,-1.65 77.94,-1.55 76.85,-1.47 75.77,-1.38 74.66,-1.31 73.55,-1.23 72.39,-1.18 71.23,-1.13 70.02,-1.02 68.81,-0.92 67.53,-0.80 66.25,-0.68 64.87,-0.56 63.49,-0.43 62.04,-0.27 60.58,-0.11 59.09,0.03 57.61,0.18 56.17,0.27 54.73,0.35 53.37,0.41 52.02,0.48 50.74,0.54 49.45,0.61 48.18,0.63 46.91,0.66 45.64,0.66 44.36,0.66 43.11,0.67 41.85,0.67 40.52,0.67 39.20,0.67 37.82,0.68 36.44,0.68 35.13,0.69 33.82,0.69 32.65,0.70 31.48,0.71 30.45,0.71 29.43,0.70 28.44,0.69 27.45,0.68 26.39,0.68 25.33,0.69 24.12,0.69 22.91,0.70 21.49,0.71 20.08,0.72 18.49,0.73 16.90,0.74 15.15,0.76 13.41,0.77 11.66,0.80 9.92,0.82 8.41,0.85 6.91,0.88 5.67,0.93 4.43,0.97 3.48,0.99 2.53,1.01 1.85,0.97 1.18,0.94 0.59,0.89 0,0.85 -0.10,0.83 -0.20,0.82 -0.29,0.79 -0.39,0.75 -0.48,0.69 -0.56,0.63 -0.63,0.56 -0.70,0.48 -0.74,0.39 -0.79,0.30 -0.82,0.20 -0.84,0.10 -0.84,-0.00 -0.84,-0.10 -0.82,-0.20 -0.79,-0.30 -0.74,-0.39 -0.70,-0.48 -0.63,-0.56 -0.56,-0.63 -0.48,-0.69 -0.39,-0.75 -0.29,-0.79 -0.20,-0.82 -0.10,-0.83 0.00,-0.85 0.00,-0.85 L 0,-0.85 Z"></path></g><g transform="translate(20.79962078890503 174.53313460803028) rotate(0 173.00136573806543 20.854758542892085)" stroke="none"><path fill="#1e1e1e" d="M 0,6.61 Q 0,6.61 1.64,6.63 3.28,6.64 5.55,6.66 7.83,6.67 10.56,6.68 13.29,6.69 16.33,6.69 19.37,6.70 22.69,6.70 26.00,6.71 29.03,6.71 32.07,6.72 34.85,6.72 37.63,6.72 40.23,6.72 42.83,6.72 45.17,6.73 47.51,6.73 49.73,6.73 51.94,6.73 54.01,6.67 56.09,6.62 58.02,6.54 59.96,6.46 61.67,6.43 63.38,6.39 64.90,6.33 66.42,6.26 67.81,6.18 69.20,6.10 70.47,6.07 71.74,6.03 72.95,5.99 74.16,5.95 75.41,5.89 76.66,5.82 78.07,5.78 79.48,5.73 80.97,5.71 82.47,5.69 83.94,5.63 85.41,5.57 86.92,5.49 88.44,5.41 89.97,5.38 91.51,5.35 92.98,5.33 94.46,5.32 95.92,5.31 97.38,5.31 98.90,5.31 100.43,5.30 102.05,5.30 103.67,5.30 105.33,5.30 107.00,5.30 108.63,5.30 110.27,5.30 111.98,5.30 113.68,5.30 115.56,5.30 117.44,5.30 119.51,5.30 121.59,5.30 123.88,5.30 126.17,5.30 128.61,5.30 131.05,5.30 133.51,5.34 135.96,5.38 138.40,5.55 140.85,5.73 143.23,6.04 145.61,6.35 147.89,6.71 150.17,7.07 152.47,7.52 154.77,7.96 156.99,8.48 159.21,9.01 161.31,9.63 163.41,10.24 165.30,10.94 167.19,11.64 168.92,12.43 170.65,13.22 172.29,14.06 173.94,14.90 175.49,15.75 177.03,16.60 178.56,17.51 180.10,18.42 181.70,19.45 183.29,20.49 184.96,21.68 186.63,22.87 188.40,24.16 190.17,25.45 192.05,26.85 193.92,28.24 195.80,29.69 197.69,31.13 199.54,32.52 201.39,33.91 203.22,35.21 205.05,36.52 206.81,37.76 208.57,39.01 210.21,40.15 211.85,41.29 213.38,42.26 214.91,43.23 216.38,44.05 217.84,44.88 219.29,45.64 220.73,46.40 222.16,47.14 223.60,47.88 225.03,48.60 226.45,49.33 227.89,50.00 229.33,50.66 230.83,51.32 232.33,51.97 233.96,52.68 235.58,53.39 237.28,54.12 238.98,54.86 240.75,55.58 242.53,56.30 244.41,56.97 246.29,57.64 248.19,58.20 250.10,58.76 251.96,59.22 253.82,59.68 255.55,60.03 257.29,60.39 258.86,60.65 260.44,60.92 261.92,61.15 263.40,61.37 264.77,61.52 266.13,61.66 267.46,61.78 268.79,61.90 270.17,62.00 271.55,62.09 272.94,62.14 274.33,62.18 275.75,62.20 277.16,62.21 278.59,62.22 280.01,62.23 281.43,62.23 282.85,62.24 284.20,62.24 285.55,62.24 286.87,62.24 288.19,62.24 289.51,62.17 290.84,62.10 292.17,61.92 293.50,61.75 295.03,61.51 296.55,61.27 298.25,60.98 299.95,60.68 301.76,60.34 303.57,60.00 305.25,59.60 306.94,59.20 308.34,58.79 309.74,58.38 311.00,57.95 312.26,57.53 313.39,57.07 314.51,56.61 315.66,56.07 316.81,55.52 318.13,54.76 319.46,53.99 320.92,52.99 322.37,51.99 323.91,50.77 325.44,49.54 327.07,48.15 328.69,46.76 330.25,45.29 331.81,43.83 333.10,42.41 334.40,40.99 335.38,39.76 336.36,38.52 337.04,37.42 337.73,36.32 338.23,35.22 338.74,34.11 339.20,32.72 339.66,31.34 340.05,29.71 340.44,28.08 340.82,26.26 341.19,24.44 341.62,22.41 342.05,20.38 342.49,18.41 342.93,16.45 343.37,14.60 343.81,12.74 344.19,10.88 344.57,9.01 344.79,7.15 345.01,5.29 345.11,3.26 345.20,1.22 345.24,-0.89 345.28,-3.01 345.30,-4.94 345.32,-6.87 345.24,-8.64 345.17,-10.42 344.88,-11.89 344.59,-13.36 344.08,-14.50 343.57,-15.64 342.95,-16.56 342.33,-17.47 341.59,-18.12 340.86,-18.77 339.98,-19.21 339.11,-19.65 338.17,-19.89 337.22,-20.14 336.19,-20.25 335.16,-20.36 334.10,-20.41 333.04,-20.45 332.09,-20.33 331.14,-20.21 330.45,-19.89 329.75,-19.56 329.32,-19.18 328.90,-18.80 328.65,-17.84 328.41,-16.87 328.39,-16.20 328.36,-15.52 328.51,-14.90 328.66,-14.29 329.11,-13.85 329.55,-13.41 330.24,-13.07 330.93,-12.72 332.78,-12.46 334.62,-12.20 334.79,-12.15 334.95,-12.10 335.10,-12.00 335.24,-11.90 335.34,-11.76 335.45,-11.62 335.50,-11.46 335.55,-11.29 335.55,-11.12 335.55,-10.95 335.49,-10.78 335.43,-10.62 335.33,-10.48 335.22,-10.34 335.08,-10.25 334.93,-10.15 334.77,-10.11 334.60,-10.06 334.42,-10.07 334.25,-10.09 334.09,-10.15 333.93,-10.22 333.80,-10.33 333.67,-10.44 333.58,-10.59 333.49,-10.74 333.46,-10.91 333.42,-11.08 333.44,-11.26 333.46,-11.43 333.54,-11.59 333.61,-11.74 333.73,-11.87 333.85,-11.99 334.01,-12.07 334.16,-12.15 334.33,-12.18 334.50,-12.20 334.67,-12.17 334.85,-12.14 335.00,-12.06 335.15,-11.98 335.27,-11.85 335.39,-11.72 335.46,-11.57 335.53,-11.41 335.55,-11.23 335.56,-11.06 335.52,-10.89 335.48,-10.72 335.39,-10.58 335.30,-10.43 335.17,-10.32 335.04,-10.21 334.87,-10.14 334.71,-10.08 334.54,-10.07 334.37,-10.07 334.37,-10.07 334.37,-10.07 332.20,-10.50 330.03,-10.94 329.03,-11.47 328.02,-12.01 327.34,-12.87 326.65,-13.73 326.46,-14.68 326.28,-15.64 326.35,-16.47 326.43,-17.30 326.66,-18.09 326.89,-18.88 327.37,-19.52 327.85,-20.15 328.52,-20.56 329.19,-20.97 330.08,-21.27 330.98,-21.57 332.04,-21.67 333.10,-21.78 334.20,-21.73 335.30,-21.68 336.44,-21.55 337.57,-21.43 338.64,-21.12 339.72,-20.82 340.72,-20.29 341.72,-19.75 342.57,-18.98 343.41,-18.21 344.09,-17.19 344.77,-16.17 345.33,-14.89 345.88,-13.61 346.18,-12.04 346.49,-10.47 346.56,-8.67 346.63,-6.86 346.61,-4.92 346.59,-2.99 346.55,-0.85 346.51,1.28 346.41,3.37 346.32,5.45 346.09,7.36 345.85,9.27 345.47,11.16 345.09,13.05 344.65,14.89 344.22,16.73 343.78,18.69 343.34,20.65 342.91,22.68 342.48,24.70 342.10,26.55 341.72,28.39 341.31,30.07 340.91,31.75 340.42,33.21 339.94,34.66 339.39,35.84 338.84,37.01 338.12,38.17 337.39,39.33 336.38,40.61 335.37,41.88 334.04,43.33 332.71,44.79 331.13,46.27 329.55,47.76 327.90,49.16 326.26,50.57 324.69,51.82 323.12,53.07 321.62,54.10 320.12,55.13 318.74,55.92 317.37,56.71 316.19,57.27 315.01,57.83 313.84,58.30 312.68,58.78 311.40,59.21 310.11,59.64 308.68,60.06 307.24,60.48 305.53,60.88 303.81,61.29 301.99,61.63 300.17,61.98 298.46,62.27 296.75,62.57 295.21,62.81 293.67,63.05 292.29,63.23 290.91,63.41 289.55,63.48 288.19,63.55 286.87,63.55 285.55,63.55 284.20,63.55 282.85,63.55 281.43,63.55 280.00,63.54 278.57,63.54 277.15,63.53 275.72,63.51 274.29,63.49 272.87,63.45 271.46,63.40 270.06,63.30 268.67,63.21 267.33,63.09 265.99,62.97 264.60,62.82 263.21,62.67 261.71,62.44 260.22,62.22 258.62,61.94 257.02,61.67 255.26,61.31 253.50,60.95 251.61,60.49 249.73,60.02 247.79,59.45 245.85,58.88 243.94,58.20 242.03,57.52 240.25,56.79 238.46,56.06 236.76,55.33 235.06,54.59 233.43,53.88 231.80,53.17 230.29,52.51 228.77,51.86 227.32,51.18 225.86,50.50 224.43,49.77 223.00,49.04 221.56,48.30 220.11,47.56 218.66,46.79 217.20,46.02 215.70,45.18 214.21,44.34 212.65,43.35 211.09,42.37 209.46,41.22 207.82,40.08 206.05,38.83 204.29,37.59 202.45,36.27 200.60,34.96 198.74,33.57 196.89,32.17 195.01,30.73 193.13,29.30 191.27,27.90 189.40,26.51 187.63,25.22 185.87,23.94 184.22,22.76 182.58,21.59 181.01,20.57 179.43,19.55 177.91,18.65 176.39,17.75 174.87,16.91 173.35,16.07 171.72,15.24 170.10,14.42 168.42,13.64 166.73,12.87 164.88,12.19 163.03,11.50 160.97,10.90 158.91,10.29 156.71,9.77 154.52,9.25 152.24,8.81 149.97,8.37 147.70,8.01 145.44,7.65 143.10,7.34 140.75,7.04 138.35,6.86 135.94,6.69 133.50,6.65 131.05,6.61 128.61,6.61 126.17,6.61 123.88,6.61 121.59,6.61 119.51,6.61 117.44,6.61 115.56,6.61 113.68,6.61 111.98,6.61 110.27,6.61 108.63,6.61 107.00,6.61 105.33,6.61 103.67,6.61 102.05,6.62 100.43,6.62 98.90,6.62 97.38,6.62 95.92,6.63 94.47,6.63 93.00,6.65 91.53,6.66 90.02,6.69 88.50,6.73 86.98,6.80 85.46,6.88 83.98,6.94 82.49,7.00 81.00,7.02 79.52,7.04 78.13,7.09 76.73,7.14 75.47,7.20 74.20,7.27 72.99,7.31 71.78,7.35 70.53,7.38 69.28,7.42 67.88,7.50 66.48,7.58 64.94,7.64 63.41,7.71 61.71,7.74 60.02,7.78 58.07,7.86 56.12,7.94 54.03,8.00 51.94,8.05 49.73,8.05 47.51,8.05 45.17,8.06 42.83,8.06 40.23,8.06 37.63,8.06 34.85,8.06 32.07,8.07 29.03,8.07 26.00,8.07 22.69,8.08 19.37,8.08 16.33,8.09 13.29,8.10 10.56,8.10 7.83,8.11 5.55,8.13 3.28,8.14 1.64,8.15 0,8.17 -0.09,8.16 -0.18,8.15 -0.27,8.12 -0.36,8.08 -0.44,8.03 -0.51,7.98 -0.58,7.90 -0.64,7.83 -0.68,7.75 -0.73,7.67 -0.75,7.58 -0.77,7.48 -0.77,7.39 -0.77,7.30 -0.75,7.21 -0.73,7.11 -0.68,7.03 -0.64,6.95 -0.58,6.88 -0.51,6.81 -0.44,6.75 -0.36,6.70 -0.27,6.67 -0.18,6.63 -0.09,6.62 0.00,6.61 0.00,6.61 L 0,6.61 Z"></path></g><g transform="translate(10 203.76092687356498) rotate(0 287.63195156618434 19.76867961051925)" stroke="none"><path fill="#1e1e1e" d="M 0,-0.78 Q 0,-0.78 1.44,-0.76 2.89,-0.74 4.41,-0.73 5.93,-0.72 7.56,-0.71 9.18,-0.70 10.94,-0.69 12.69,-0.69 14.60,-0.68 16.50,-0.68 18.56,-0.67 20.61,-0.67 22.81,-0.67 25.00,-0.66 27.35,-0.66 29.69,-0.66 32.11,-0.59 34.53,-0.53 36.93,-0.34 39.32,-0.14 41.82,0.17 44.31,0.49 46.90,0.94 49.49,1.40 52.11,1.94 54.73,2.48 57.38,3.01 60.03,3.54 62.76,4.05 65.50,4.55 68.25,5.05 71.00,5.54 73.79,6.10 76.57,6.66 79.45,7.32 82.33,7.98 85.46,8.70 88.59,9.42 91.67,10.16 94.75,10.90 97.59,11.63 100.44,12.35 103.53,13.18 106.61,14.01 109.70,14.92 112.80,15.83 115.79,16.84 118.78,17.84 121.66,18.95 124.54,20.06 127.19,21.17 129.84,22.29 132.42,23.37 135.01,24.45 137.48,25.51 139.95,26.57 142.19,27.59 144.43,28.62 146.47,29.56 148.52,30.50 150.53,31.48 152.55,32.45 154.57,33.51 156.60,34.56 158.61,35.53 160.63,36.50 162.53,37.36 164.44,38.21 166.15,38.99 167.86,39.77 169.41,40.45 170.95,41.13 172.37,41.77 173.79,42.42 175.24,43.12 176.68,43.82 178.30,44.62 179.91,45.43 181.84,46.38 183.77,47.34 186.06,48.44 188.36,49.55 190.92,50.72 193.48,51.90 196.15,53.06 198.83,54.23 201.46,55.38 204.09,56.53 206.66,57.62 209.23,58.72 211.58,59.71 213.94,60.70 216.01,61.62 218.08,62.54 219.93,63.36 221.79,64.18 223.48,64.89 225.17,65.60 226.79,66.26 228.41,66.93 229.99,67.57 231.57,68.21 233.07,68.78 234.56,69.35 236.02,69.90 237.49,70.44 239.04,71.05 240.58,71.65 242.30,72.28 244.01,72.92 245.86,73.57 247.70,74.22 249.65,74.85 251.61,75.48 253.65,76.07 255.70,76.66 257.81,77.24 259.92,77.81 262.02,78.34 264.11,78.87 266.09,79.35 268.07,79.83 269.99,80.24 271.91,80.65 273.78,80.96 275.65,81.28 277.42,81.52 279.19,81.77 280.85,81.93 282.50,82.09 283.88,82.17 285.26,82.25 286.29,82.28 287.31,82.30 288.33,82.31 289.34,82.32 290.70,82.40 292.05,82.49 293.55,82.64 295.05,82.80 296.52,82.91 297.99,83.02 299.29,83.07 300.59,83.12 301.62,83.14 302.66,83.15 303.59,83.13 304.51,83.11 305.39,83.14 306.28,83.16 307.13,83.21 307.98,83.25 308.79,83.26 309.61,83.28 310.39,83.32 311.17,83.36 311.91,83.40 312.65,83.45 313.35,83.46 314.04,83.46 314.69,83.45 315.34,83.44 315.99,83.42 316.65,83.41 317.40,83.41 318.15,83.41 318.98,83.42 319.81,83.43 320.70,83.44 321.58,83.46 322.47,83.48 323.36,83.49 324.21,83.50 325.06,83.50 325.86,83.49 326.65,83.49 327.39,83.47 328.14,83.46 328.86,83.45 329.58,83.43 330.30,83.42 331.01,83.41 331.72,83.40 332.44,83.39 333.15,83.38 333.87,83.37 334.61,83.31 335.35,83.26 336.16,83.11 336.97,82.96 337.87,82.76 338.77,82.56 339.68,82.33 340.60,82.11 341.46,81.85 342.32,81.59 343.15,81.31 343.97,81.03 344.77,80.75 345.57,80.47 346.32,80.20 347.08,79.94 347.79,79.68 348.50,79.41 349.14,79.14 349.79,78.88 350.41,78.61 351.02,78.34 351.68,78.04 352.34,77.74 353.03,77.41 353.71,77.09 354.40,76.75 355.10,76.41 355.80,76.06 356.50,75.72 357.30,75.36 358.09,75.01 358.90,74.66 359.72,74.31 360.51,73.92 361.31,73.54 362.19,73.08 363.07,72.63 363.99,72.13 364.91,71.64 365.85,71.12 366.79,70.60 367.69,70.07 368.59,69.54 369.44,69.00 370.29,68.47 371.08,67.95 371.88,67.44 372.62,66.95 373.36,66.46 374.12,65.94 374.87,65.42 375.67,64.87 376.46,64.31 377.31,63.74 378.15,63.17 379.05,62.57 379.95,61.96 380.81,61.35 381.66,60.74 382.49,60.16 383.33,59.57 384.15,58.97 384.96,58.37 385.71,57.75 386.45,57.14 387.18,56.54 387.91,55.95 388.71,55.34 389.51,54.73 390.42,54.05 391.32,53.37 392.32,52.63 393.32,51.88 394.44,51.04 395.55,50.21 396.64,49.32 397.73,48.44 398.81,47.56 399.89,46.68 400.97,45.80 402.06,44.93 403.09,44.06 404.12,43.20 405.18,42.34 406.24,41.48 407.37,40.59 408.49,39.71 409.60,38.81 410.71,37.91 411.74,37.04 412.76,36.16 413.82,35.29 414.87,34.41 415.93,33.53 416.99,32.65 418.00,31.78 419.00,30.91 419.99,30.05 420.98,29.18 421.93,28.38 422.89,27.58 423.75,26.85 424.61,26.11 425.42,25.37 426.22,24.64 427.14,23.83 428.07,23.03 429.20,22.06 430.34,21.10 431.75,19.86 433.17,18.61 434.77,17.20 436.37,15.79 437.96,14.36 439.55,12.93 441.15,11.48 442.76,10.02 444.43,8.55 446.11,7.07 447.79,5.64 449.47,4.22 451.30,2.75 453.14,1.29 455.29,-0.29 457.44,-1.89 459.83,-3.57 462.22,-5.25 464.63,-6.87 467.04,-8.50 469.67,-10.29 472.31,-12.07 475.22,-14.14 478.14,-16.20 480.98,-18.23 483.82,-20.27 486.72,-22.18 489.62,-24.09 492.53,-25.90 495.44,-27.72 498.64,-29.58 501.84,-31.45 505.63,-33.35 509.41,-35.25 513.58,-36.95 517.74,-38.65 522.11,-40.06 526.48,-41.46 530.57,-42.48 534.66,-43.50 538.43,-44.10 542.21,-44.71 545.87,-44.98 549.54,-45.26 552.72,-45.38 555.91,-45.50 558.43,-45.55 560.95,-45.60 562.93,-45.62 564.90,-45.64 566.50,-45.59 568.11,-45.54 569.36,-45.36 570.61,-45.18 572.91,-44.52 575.20,-43.86 575.31,-43.80 575.41,-43.74 575.49,-43.66 575.58,-43.57 575.62,-43.46 575.67,-43.35 575.68,-43.23 575.69,-43.11 575.66,-42.99 575.63,-42.87 575.57,-42.77 575.51,-42.67 575.41,-42.59 575.32,-42.52 575.21,-42.48 575.09,-42.44 574.97,-42.43 574.85,-42.43 574.74,-42.46 574.62,-42.50 574.53,-42.57 574.43,-42.64 574.36,-42.73 574.29,-42.83 574.25,-42.95 574.22,-43.06 574.22,-43.18 574.22,-43.30 574.26,-43.41 574.30,-43.53 574.38,-43.62 574.45,-43.72 574.55,-43.78 574.66,-43.85 574.77,-43.87 574.89,-43.90 575.01,-43.89 575.13,-43.89 575.24,-43.84 575.35,-43.79 575.44,-43.71 575.53,-43.63 575.59,-43.53 575.65,-43.42 575.67,-43.30 575.69,-43.19 575.68,-43.07 575.66,-42.95 575.61,-42.84 575.56,-42.73 575.47,-42.65 575.39,-42.56 575.28,-42.51 575.17,-42.45 575.05,-42.44 574.93,-42.42 574.82,-42.44 574.70,-42.47 574.70,-42.47 574.70,-42.47 572.56,-43.17 570.42,-43.88 569.24,-44.05 568.06,-44.22 566.49,-44.27 564.92,-44.32 562.95,-44.30 560.98,-44.28 558.47,-44.23 555.96,-44.18 552.80,-44.07 549.64,-43.95 546.03,-43.68 542.41,-43.41 538.70,-42.82 534.98,-42.23 530.93,-41.22 526.88,-40.21 522.56,-38.82 518.24,-37.44 514.12,-35.75 510.00,-34.07 506.25,-32.19 502.50,-30.31 499.31,-28.46 496.13,-26.60 493.24,-24.80 490.34,-23.00 487.46,-21.10 484.58,-19.20 481.74,-17.16 478.90,-15.13 475.97,-13.06 473.04,-10.98 470.41,-9.20 467.77,-7.41 465.38,-5.79 462.98,-4.17 460.60,-2.50 458.23,-0.83 456.09,0.74 453.96,2.32 452.14,3.77 450.32,5.22 448.65,6.64 446.98,8.06 445.31,9.53 443.64,11.00 442.03,12.45 440.43,13.91 438.83,15.34 437.24,16.78 435.64,18.19 434.04,19.60 432.61,20.85 431.19,22.10 430.06,23.06 428.93,24.02 428.02,24.81 427.11,25.61 426.29,26.36 425.47,27.11 424.60,27.85 423.73,28.59 422.79,29.38 421.85,30.17 420.86,31.04 419.87,31.91 418.85,32.79 417.83,33.67 416.77,34.55 415.71,35.42 414.67,36.30 413.62,37.17 412.58,38.05 411.54,38.94 410.43,39.85 409.31,40.75 408.20,41.63 407.08,42.51 406.03,43.37 404.98,44.22 403.94,45.10 402.91,45.97 401.83,46.85 400.76,47.73 399.68,48.62 398.61,49.50 397.51,50.42 396.40,51.33 395.30,52.18 394.19,53.03 393.21,53.79 392.23,54.55 391.35,55.26 390.46,55.96 389.67,56.57 388.88,57.19 388.14,57.75 387.40,58.31 386.62,58.93 385.84,59.56 385.01,60.17 384.18,60.79 383.36,61.36 382.54,61.94 381.69,62.58 380.84,63.23 379.96,63.87 379.08,64.51 378.25,65.09 377.43,65.67 376.62,66.25 375.82,66.84 375.03,67.35 374.25,67.87 373.49,68.32 372.73,68.78 371.93,69.28 371.12,69.79 370.26,70.33 369.41,70.88 368.52,71.45 367.63,72.02 366.72,72.59 365.81,73.17 364.92,73.74 364.02,74.31 363.14,74.85 362.26,75.39 361.43,75.84 360.60,76.28 359.81,76.65 359.02,77.03 358.27,77.39 357.51,77.75 356.80,78.10 356.10,78.45 355.39,78.80 354.68,79.14 353.97,79.48 353.26,79.81 352.56,80.11 351.86,80.41 351.21,80.66 350.56,80.90 349.88,81.14 349.20,81.38 348.45,81.63 347.71,81.88 346.96,82.11 346.22,82.33 345.41,82.61 344.61,82.88 343.76,83.18 342.90,83.48 342.02,83.76 341.13,84.04 340.21,84.32 339.29,84.60 338.36,84.88 337.42,85.15 336.47,85.36 335.53,85.58 334.71,85.64 333.88,85.71 333.16,85.71 332.44,85.71 331.72,85.70 331.01,85.69 330.30,85.68 329.58,85.66 328.86,85.65 328.14,85.64 327.39,85.63 326.65,85.61 325.86,85.61 325.06,85.60 324.21,85.60 323.36,85.61 322.47,85.62 321.58,85.64 320.69,85.65 319.81,85.67 318.97,85.68 318.14,85.69 317.39,85.68 316.63,85.67 315.96,85.65 315.30,85.62 314.62,85.58 313.95,85.54 313.21,85.49 312.46,85.43 311.73,85.34 311.01,85.24 310.27,85.15 309.53,85.06 308.68,84.99 307.84,84.93 307.01,84.83 306.18,84.73 305.34,84.65 304.50,84.57 303.57,84.53 302.64,84.49 301.59,84.47 300.54,84.45 299.22,84.40 297.90,84.36 296.41,84.25 294.92,84.14 293.44,83.99 291.96,83.84 290.64,83.76 289.33,83.69 288.30,83.67 287.27,83.64 286.23,83.60 285.19,83.56 283.78,83.48 282.37,83.40 280.69,83.24 279.01,83.07 277.22,82.82 275.43,82.58 273.53,82.25 271.64,81.93 269.70,81.52 267.76,81.10 265.77,80.62 263.78,80.15 261.68,79.61 259.58,79.07 257.46,78.50 255.34,77.93 253.27,77.33 251.20,76.73 249.23,76.09 247.27,75.45 245.41,74.80 243.55,74.15 241.83,73.51 240.11,72.87 238.57,72.27 237.03,71.67 235.56,71.13 234.09,70.58 232.58,70.01 231.07,69.43 229.49,68.79 227.91,68.14 226.28,67.48 224.66,66.81 222.96,66.10 221.25,65.38 219.40,64.56 217.55,63.74 215.49,62.82 213.43,61.91 211.07,60.92 208.71,59.93 206.14,58.83 203.57,57.73 200.93,56.58 198.30,55.43 195.62,54.26 192.93,53.09 190.36,51.91 187.79,50.73 185.48,49.62 183.18,48.51 181.25,47.56 179.32,46.61 177.72,45.80 176.11,45.00 174.68,44.31 173.25,43.61 171.84,42.97 170.42,42.33 168.87,41.65 167.32,40.96 165.61,40.19 163.90,39.41 161.98,38.55 160.06,37.68 158.02,36.70 155.99,35.72 153.98,34.68 151.98,33.63 149.97,32.66 147.97,31.70 145.92,30.76 143.88,29.82 141.66,28.79 139.44,27.77 136.97,26.72 134.50,25.66 131.91,24.58 129.33,23.50 126.70,22.39 124.07,21.28 121.21,20.19 118.36,19.09 115.39,18.09 112.43,17.09 109.35,16.18 106.27,15.28 103.19,14.45 100.11,13.63 97.28,12.90 94.44,12.17 91.37,11.44 88.30,10.70 85.17,9.98 82.04,9.26 79.18,8.60 76.31,7.95 73.54,7.39 70.77,6.83 68.01,6.34 65.26,5.85 62.51,5.34 59.77,4.83 57.12,4.30 54.46,3.77 51.86,3.24 49.26,2.70 46.70,2.25 44.14,1.80 41.68,1.48 39.22,1.17 36.86,0.98 34.49,0.79 32.09,0.72 29.69,0.66 27.35,0.66 25.00,0.66 22.81,0.67 20.61,0.67 18.56,0.67 16.50,0.68 14.60,0.68 12.69,0.69 10.94,0.69 9.18,0.70 7.56,0.71 5.93,0.72 4.41,0.73 2.89,0.74 1.44,0.76 0,0.78 -0.09,0.76 -0.18,0.75 -0.27,0.72 -0.36,0.69 -0.44,0.63 -0.51,0.58 -0.58,0.51 -0.64,0.44 -0.68,0.36 -0.73,0.27 -0.75,0.18 -0.77,0.09 -0.77,-0.00 -0.77,-0.09 -0.75,-0.18 -0.73,-0.27 -0.68,-0.36 -0.64,-0.44 -0.58,-0.51 -0.51,-0.58 -0.44,-0.63 -0.36,-0.69 -0.27,-0.72 -0.18,-0.75 -0.09,-0.76 0.00,-0.78 0.00,-0.78 L 0,-0.78 Z"></path></g><g transform="translate(14.64592507471832 191.8681255896935) rotate(0 211.7777840912206 23.660704027355273)" stroke="none"><path fill="#1e1e1e" d="M 0,-0.85 Q 0,-0.85 0.59,-0.89 1.18,-0.94 1.86,-0.97 2.54,-1.00 3.50,-0.98 4.45,-0.96 5.70,-0.92 6.94,-0.88 8.46,-0.85 9.97,-0.82 11.72,-0.80 13.48,-0.77 15.23,-0.76 16.99,-0.74 18.58,-0.73 20.18,-0.72 21.61,-0.71 23.03,-0.70 24.25,-0.69 25.46,-0.69 26.53,-0.68 27.59,-0.68 28.59,-0.69 29.59,-0.70 30.61,-0.70 31.64,-0.70 32.82,-0.70 33.99,-0.69 35.31,-0.68 36.63,-0.68 38.02,-0.68 39.40,-0.67 40.73,-0.67 42.07,-0.67 43.33,-0.66 44.59,-0.66 45.88,-0.66 47.16,-0.66 48.43,-0.63 49.71,-0.61 51.00,-0.54 52.29,-0.47 53.65,-0.41 55.01,-0.35 56.46,-0.27 57.91,-0.18 59.40,-0.03 60.90,0.11 62.36,0.27 63.82,0.44 65.21,0.56 66.60,0.69 67.88,0.81 69.17,0.93 70.38,1.03 71.60,1.14 72.77,1.19 73.93,1.24 75.05,1.32 76.16,1.39 77.25,1.48 78.34,1.56 79.49,1.66 80.64,1.77 81.90,1.93 83.16,2.10 84.53,2.29 85.89,2.49 87.31,2.76 88.73,3.02 90.22,3.38 91.71,3.73 93.20,4.12 94.70,4.50 96.17,4.94 97.63,5.37 99.12,5.85 100.61,6.34 102.10,6.82 103.60,7.29 105.06,7.73 106.52,8.17 107.99,8.59 109.45,9.01 110.98,9.43 112.50,9.84 114.11,10.26 115.72,10.69 117.38,11.17 119.05,11.66 120.73,12.16 122.40,12.67 124.08,13.13 125.75,13.60 127.44,14.04 129.14,14.48 130.76,14.90 132.38,15.33 133.90,15.74 135.42,16.16 136.87,16.57 138.33,16.98 139.74,17.39 141.16,17.80 142.58,18.23 144.01,18.66 145.47,19.14 146.94,19.62 148.49,20.09 150.04,20.56 151.68,21.05 153.31,21.53 154.95,22.08 156.58,22.63 158.17,23.17 159.77,23.72 161.40,24.27 163.03,24.83 164.63,25.36 166.23,25.89 167.80,26.42 169.38,26.94 170.95,27.52 172.52,28.11 174.09,28.71 175.65,29.32 177.21,29.87 178.76,30.42 180.23,30.89 181.70,31.36 183.11,31.85 184.51,32.34 185.95,32.85 187.39,33.37 188.93,33.89 190.47,34.41 192.11,34.98 193.75,35.54 195.48,36.15 197.20,36.75 198.91,37.35 200.62,37.94 202.25,38.53 203.88,39.13 205.50,39.81 207.11,40.49 208.85,41.28 210.60,42.07 212.55,42.92 214.49,43.77 216.56,44.72 218.63,45.68 220.68,46.67 222.73,47.66 224.59,48.56 226.45,49.47 228.00,50.26 229.55,51.06 230.69,51.67 231.83,52.28 232.57,52.64 233.31,53.00 234.18,53.15 235.04,53.30 235.95,53.46 236.86,53.63 238.35,53.98 239.84,54.32 241.70,54.76 243.56,55.20 245.58,55.69 247.60,56.18 249.69,56.65 251.78,57.12 253.95,57.59 256.12,58.06 258.37,58.59 260.62,59.12 262.91,59.75 265.19,60.37 267.49,61.03 269.79,61.69 272.08,62.43 274.38,63.17 276.67,64.00 278.96,64.84 281.17,65.64 283.37,66.44 285.35,67.10 287.34,67.76 289.15,68.35 290.95,68.93 292.62,69.47 294.29,70.01 295.91,70.47 297.52,70.94 299.17,71.38 300.83,71.82 302.50,72.19 304.16,72.56 305.85,72.87 307.53,73.18 309.29,73.40 311.04,73.62 312.88,73.72 314.73,73.81 316.62,73.85 318.52,73.89 320.48,73.91 322.44,73.93 324.44,73.93 326.43,73.94 328.44,73.94 330.44,73.95 332.42,73.83 334.41,73.71 336.43,73.22 338.46,72.74 340.61,71.95 342.77,71.16 344.92,70.31 347.07,69.46 349.04,68.60 351.01,67.74 352.87,66.82 354.74,65.90 356.51,64.94 358.29,63.98 360.02,62.93 361.76,61.87 363.60,60.70 365.45,59.53 367.21,58.43 368.96,57.34 370.58,56.33 372.19,55.32 373.68,54.41 375.18,53.49 376.49,52.69 377.80,51.88 378.97,51.10 380.14,50.32 381.19,49.56 382.24,48.80 383.28,48.05 384.31,47.29 385.35,46.47 386.39,45.66 387.46,44.75 388.53,43.83 389.77,42.83 391.02,41.83 392.25,40.89 393.48,39.94 394.61,39.10 395.75,38.26 396.84,37.41 397.93,36.55 398.95,35.62 399.96,34.69 401.05,33.64 402.13,32.58 403.25,31.41 404.37,30.25 405.43,29.06 406.49,27.87 407.50,26.61 408.51,25.35 409.39,24.03 410.26,22.71 411.04,21.40 411.81,20.09 412.51,18.77 413.22,17.45 413.81,16.04 414.41,14.62 414.91,13.13 415.42,11.64 415.93,10.10 416.45,8.56 416.97,6.94 417.49,5.32 417.94,3.74 418.40,2.16 418.83,0.73 419.25,-0.69 419.66,-2.04 420.07,-3.39 420.47,-4.72 420.87,-6.04 421.21,-7.33 421.55,-8.63 421.85,-9.91 422.15,-11.18 422.36,-12.38 422.58,-13.58 422.67,-14.74 422.76,-15.90 422.80,-17.13 422.84,-18.37 422.78,-19.67 422.72,-20.98 422.36,-22.22 422.00,-23.47 421.51,-24.38 421.03,-25.28 420.49,-25.61 419.95,-25.93 419.15,-26.07 418.34,-26.21 417.27,-26.29 416.20,-26.38 415.13,-26.29 414.05,-26.21 413.03,-26.02 412.00,-25.83 411.10,-25.60 410.19,-25.37 408.01,-24.72 405.82,-24.07 405.69,-24.06 405.55,-24.05 405.42,-24.08 405.29,-24.12 405.18,-24.19 405.07,-24.26 404.99,-24.36 404.90,-24.47 404.86,-24.59 404.81,-24.72 404.81,-24.85 404.81,-24.99 404.85,-25.11 404.89,-25.24 404.96,-25.35 405.04,-25.46 405.15,-25.53 405.26,-25.61 405.39,-25.65 405.51,-25.69 405.65,-25.69 405.78,-25.68 405.91,-25.64 406.03,-25.59 406.13,-25.51 406.24,-25.42 406.31,-25.31 406.38,-25.20 406.41,-25.07 406.45,-24.94 406.43,-24.80 406.42,-24.67 406.37,-24.55 406.32,-24.43 406.23,-24.33 406.14,-24.23 406.02,-24.16 405.90,-24.10 405.77,-24.07 405.64,-24.05 405.51,-24.07 405.38,-24.08 405.26,-24.14 405.14,-24.20 405.05,-24.30 404.95,-24.39 404.89,-24.51 404.83,-24.63 404.82,-24.77 404.80,-24.90 404.82,-25.03 404.85,-25.16 404.92,-25.28 404.98,-25.39 405.08,-25.48 405.18,-25.57 405.30,-25.62 405.43,-25.67 405.43,-25.67 405.43,-25.67 407.64,-26.24 409.85,-26.81 410.79,-27.01 411.74,-27.22 412.84,-27.43 413.93,-27.65 415.12,-27.76 416.30,-27.86 417.49,-27.80 418.68,-27.73 419.76,-27.44 420.84,-27.16 421.50,-26.55 422.16,-25.93 422.71,-24.88 423.26,-23.84 423.64,-22.44 424.03,-21.04 424.09,-19.69 424.15,-18.33 424.11,-17.06 424.07,-15.79 423.97,-14.57 423.87,-13.35 423.65,-12.12 423.43,-10.88 423.13,-9.59 422.82,-8.30 422.48,-6.98 422.13,-5.66 421.73,-4.33 421.33,-3.01 420.92,-1.67 420.51,-0.32 420.09,1.10 419.66,2.53 419.20,4.13 418.74,5.73 418.21,7.35 417.69,8.98 417.18,10.52 416.66,12.06 416.14,13.60 415.62,15.13 415.00,16.60 414.38,18.07 413.66,19.42 412.94,20.76 412.15,22.10 411.36,23.44 410.45,24.80 409.53,26.16 408.50,27.45 407.47,28.74 406.39,29.95 405.32,31.16 404.18,32.34 403.05,33.52 401.95,34.59 400.85,35.66 399.79,36.62 398.74,37.58 397.63,38.45 396.53,39.31 395.41,40.15 394.28,40.98 393.06,41.92 391.84,42.86 390.61,43.84 389.38,44.83 388.29,45.76 387.20,46.69 386.14,47.52 385.09,48.35 384.05,49.11 383.01,49.87 381.94,50.64 380.87,51.41 379.68,52.20 378.49,52.99 377.17,53.80 375.86,54.62 374.37,55.52 372.89,56.43 371.27,57.44 369.66,58.45 367.91,59.54 366.15,60.63 364.30,61.81 362.44,62.99 360.68,64.07 358.91,65.14 357.11,66.11 355.32,67.08 353.43,68.01 351.54,68.94 349.55,69.81 347.56,70.68 345.39,71.54 343.22,72.40 340.99,73.21 338.76,74.01 336.62,74.52 334.49,75.02 332.46,75.14 330.44,75.26 328.43,75.26 326.43,75.25 324.43,75.25 322.43,75.24 320.46,75.22 318.49,75.20 316.58,75.16 314.66,75.12 312.77,75.02 310.88,74.93 309.08,74.70 307.29,74.47 305.58,74.16 303.88,73.84 302.18,73.46 300.49,73.09 298.82,72.65 297.16,72.20 295.52,71.73 293.89,71.26 292.22,70.73 290.55,70.19 288.73,69.60 286.92,69.02 284.92,68.36 282.91,67.70 280.71,66.89 278.51,66.09 276.24,65.27 273.97,64.45 271.69,63.72 269.41,63.00 267.13,62.35 264.84,61.70 262.57,61.09 260.30,60.49 258.07,59.97 255.83,59.46 253.65,59.01 251.46,58.57 249.36,58.12 247.26,57.68 245.24,57.23 243.21,56.79 241.35,56.40 239.49,56.02 238.01,55.76 236.54,55.49 235.62,55.34 234.71,55.20 234.12,55.03 233.53,54.86 233.05,54.58 232.58,54.30 231.90,53.87 231.22,53.43 230.08,52.83 228.95,52.23 227.41,51.44 225.88,50.65 224.02,49.74 222.16,48.84 220.12,47.85 218.08,46.87 216.02,45.92 213.97,44.97 212.01,44.12 210.06,43.27 208.33,42.48 206.60,41.70 205.02,41.03 203.44,40.36 201.81,39.77 200.19,39.18 198.48,38.59 196.77,37.99 195.05,37.39 193.32,36.78 191.69,36.22 190.05,35.65 188.50,35.13 186.95,34.61 185.52,34.09 184.08,33.58 182.69,33.09 181.31,32.61 179.81,32.14 178.32,31.66 176.75,31.10 175.18,30.54 173.62,29.94 172.07,29.34 170.52,28.76 168.96,28.19 167.39,27.66 165.81,27.14 164.21,26.60 162.61,26.07 160.98,25.52 159.34,24.96 157.75,24.42 156.16,23.87 154.55,23.33 152.94,22.79 151.30,22.30 149.66,21.82 148.10,21.34 146.53,20.87 145.08,20.39 143.63,19.92 142.21,19.49 140.80,19.06 139.38,18.65 137.97,18.25 136.52,17.83 135.07,17.42 133.56,17.01 132.04,16.60 130.42,16.17 128.80,15.75 127.10,15.31 125.40,14.86 123.71,14.40 122.02,13.93 120.35,13.42 118.68,12.92 117.03,12.44 115.38,11.96 113.77,11.53 112.16,11.11 110.62,10.69 109.09,10.27 107.62,9.85 106.15,9.42 104.67,8.98 103.20,8.54 101.70,8.07 100.20,7.59 98.73,7.11 97.26,6.63 95.82,6.20 94.37,5.78 92.89,5.39 91.40,5.01 89.95,4.66 88.49,4.31 87.10,4.05 85.71,3.79 84.35,3.59 82.99,3.40 81.76,3.24 80.52,3.07 79.38,2.97 78.24,2.87 77.16,2.79 76.08,2.70 74.98,2.63 73.87,2.56 72.68,2.50 71.49,2.45 70.27,2.34 69.05,2.24 67.76,2.12 66.48,2.00 65.08,1.87 63.68,1.74 62.22,1.58 60.76,1.42 59.30,1.27 57.83,1.12 56.39,1.04 54.95,0.96 53.59,0.90 52.23,0.84 50.95,0.77 49.68,0.71 48.42,0.68 47.16,0.66 45.88,0.66 44.59,0.66 43.33,0.66 42.07,0.67 40.73,0.67 39.40,0.67 38.02,0.68 36.63,0.68 35.31,0.68 33.99,0.69 32.82,0.70 31.64,0.70 30.61,0.70 29.59,0.70 28.59,0.69 27.59,0.68 26.53,0.68 25.46,0.69 24.25,0.69 23.03,0.70 21.61,0.71 20.18,0.72 18.58,0.73 16.99,0.74 15.23,0.76 13.48,0.77 11.72,0.80 9.97,0.82 8.46,0.85 6.94,0.88 5.70,0.92 4.45,0.96 3.50,0.98 2.54,1.00 1.86,0.97 1.18,0.94 0.59,0.89 0,0.85 -0.10,0.83 -0.20,0.82 -0.29,0.78 -0.39,0.75 -0.47,0.69 -0.56,0.63 -0.63,0.56 -0.70,0.48 -0.74,0.39 -0.79,0.30 -0.82,0.20 -0.84,0.10 -0.84,-0.00 -0.84,-0.10 -0.82,-0.20 -0.79,-0.30 -0.74,-0.39 -0.70,-0.48 -0.63,-0.56 -0.56,-0.63 -0.47,-0.69 -0.39,-0.75 -0.29,-0.78 -0.20,-0.82 -0.10,-0.83 0.00,-0.85 0.00,-0.85 L 0,-0.85 Z"></path></g><g transform="translate(23.481270017623785 142.6281431674957) rotate(0 94.33827209472656 -8.257034301757812)" stroke="none"><path fill="#1e1e1e" d="M 0,-0.78 Q 0,-0.78 1.04,-0.76 2.09,-0.75 3.43,-0.74 4.77,-0.72 6.34,-0.71 7.91,-0.70 9.99,-0.70 12.08,-0.69 14.39,-0.68 16.71,-0.68 18.93,-0.68 21.16,-0.67 23.53,-0.67 25.90,-0.67 28.51,-0.66 31.13,-0.66 34.01,-0.66 36.89,-0.66 39.78,-0.60 42.67,-0.55 45.44,-0.44 48.21,-0.33 50.98,-0.23 53.75,-0.12 56.57,-0.04 59.38,0.03 62.28,0.14 65.18,0.24 68.01,0.35 70.85,0.46 73.58,0.51 76.30,0.55 78.99,0.57 81.68,0.59 84.59,0.60 87.50,0.61 90.38,0.61 93.25,0.62 95.74,0.62 98.23,0.62 100.63,0.62 103.02,0.62 105.35,0.62 107.68,0.62 109.82,0.62 111.95,0.62 113.92,0.62 115.88,0.62 117.77,0.62 119.67,0.62 121.65,0.62 123.62,0.62 125.77,0.62 127.92,0.62 130.15,0.62 132.37,0.62 134.58,0.62 136.80,0.62 138.96,0.58 141.12,0.54 143.24,0.35 145.36,0.17 147.48,-0.16 149.60,-0.49 151.78,-0.95 153.97,-1.41 156.12,-1.98 158.28,-2.55 160.33,-3.18 162.39,-3.80 164.32,-4.44 166.25,-5.08 167.88,-5.70 169.51,-6.32 170.93,-6.97 172.35,-7.62 173.69,-8.29 175.03,-8.95 176.26,-9.57 177.48,-10.19 178.59,-10.73 179.69,-11.28 180.56,-11.78 181.42,-12.27 182.09,-12.73 182.76,-13.19 183.31,-13.58 183.86,-13.96 184.60,-14.49 185.35,-15.01 185.74,-15.41 186.13,-15.80 186.80,-16.82 187.47,-17.84 187.52,-18.02 187.58,-18.21 187.69,-18.37 187.80,-18.53 187.95,-18.65 188.11,-18.76 188.30,-18.82 188.48,-18.88 188.67,-18.88 188.87,-18.87 189.05,-18.81 189.24,-18.75 189.39,-18.63 189.54,-18.51 189.65,-18.34 189.75,-18.18 189.80,-18.00 189.85,-17.81 189.84,-17.61 189.83,-17.42 189.75,-17.24 189.68,-17.06 189.55,-16.91 189.42,-16.77 189.26,-16.67 189.09,-16.57 188.90,-16.53 188.71,-16.49 188.52,-16.52 188.32,-16.54 188.15,-16.62 187.97,-16.71 187.83,-16.84 187.69,-16.98 187.61,-17.15 187.52,-17.32 187.49,-17.52 187.46,-17.71 187.49,-17.90 187.53,-18.09 187.62,-18.26 187.71,-18.43 187.86,-18.56 188.00,-18.70 188.18,-18.77 188.35,-18.85 188.55,-18.87 188.74,-18.89 188.93,-18.85 189.12,-18.80 189.28,-18.70 189.45,-18.60 189.57,-18.45 189.70,-18.30 189.77,-18.12 189.83,-17.94 189.84,-17.74 189.85,-17.55 189.85,-17.55 189.85,-17.55 188.78,-15.80 187.72,-14.05 187.06,-13.63 186.40,-13.20 185.57,-12.83 184.73,-12.46 184.15,-12.18 183.56,-11.89 182.82,-11.48 182.08,-11.07 181.18,-10.59 180.28,-10.11 179.17,-9.56 178.07,-9.01 176.84,-8.40 175.62,-7.78 174.26,-7.10 172.89,-6.42 171.43,-5.76 169.97,-5.09 168.32,-4.46 166.66,-3.83 164.72,-3.19 162.77,-2.55 160.69,-1.92 158.61,-1.28 156.43,-0.70 154.24,-0.12 152.02,0.33 149.80,0.79 147.64,1.13 145.47,1.47 143.31,1.66 141.14,1.85 138.97,1.89 136.80,1.94 134.58,1.94 132.37,1.94 130.15,1.94 127.92,1.94 125.77,1.94 123.62,1.94 121.65,1.94 119.67,1.94 117.77,1.94 115.88,1.94 113.92,1.94 111.95,1.94 109.82,1.94 107.68,1.94 105.35,1.94 103.02,1.94 100.63,1.93 98.23,1.93 95.74,1.93 93.24,1.93 90.37,1.93 87.50,1.92 84.59,1.92 81.67,1.91 78.98,1.89 76.28,1.87 73.54,1.82 70.80,1.77 67.96,1.66 65.13,1.55 62.24,1.45 59.35,1.35 56.52,1.27 53.70,1.19 50.93,1.08 48.16,0.98 45.40,0.87 42.65,0.76 39.77,0.71 36.89,0.66 34.01,0.66 31.13,0.66 28.51,0.66 25.90,0.67 23.53,0.67 21.16,0.67 18.93,0.68 16.71,0.68 14.39,0.68 12.08,0.69 9.99,0.70 7.91,0.70 6.34,0.71 4.77,0.72 3.43,0.74 2.09,0.75 1.04,0.76 0,0.78 -0.09,0.77 -0.18,0.75 -0.27,0.72 -0.36,0.69 -0.44,0.63 -0.51,0.58 -0.58,0.51 -0.64,0.44 -0.68,0.36 -0.73,0.27 -0.75,0.18 -0.77,0.09 -0.77,-0.00 -0.77,-0.09 -0.75,-0.18 -0.73,-0.27 -0.68,-0.36 -0.64,-0.44 -0.58,-0.51 -0.51,-0.58 -0.44,-0.63 -0.36,-0.69 -0.27,-0.72 -0.18,-0.75 -0.09,-0.77 0.00,-0.78 0.00,-0.78 L 0,-0.78 Z"></path></g><g transform="translate(23.031257810592535 164.8234556674957) rotate(0 100.16719055175781 5.88983154296875)" stroke="none"><path fill="#1e1e1e" d="M 0,-0.79 Q 0,-0.79 0.91,-0.80 1.83,-0.82 3.37,-0.79 4.91,-0.77 6.91,-0.75 8.92,-0.74 11.27,-0.73 13.61,-0.71 15.89,-0.71 18.17,-0.70 20.39,-0.69 22.61,-0.68 25.02,-0.68 27.44,-0.68 29.79,-0.67 32.14,-0.67 34.29,-0.67 36.43,-0.66 38.49,-0.66 40.54,-0.66 42.38,-0.66 44.23,-0.66 45.89,-0.66 47.55,-0.66 49.14,-0.66 50.73,-0.66 52.17,-0.65 53.61,-0.65 54.96,-0.65 56.31,-0.65 57.67,-0.65 59.04,-0.65 60.43,-0.65 61.83,-0.65 63.28,-0.65 64.73,-0.65 66.24,-0.65 67.74,-0.65 69.23,-0.65 70.71,-0.65 72.16,-0.65 73.61,-0.65 75.04,-0.65 76.47,-0.65 77.83,-0.65 79.18,-0.65 80.49,-0.65 81.80,-0.65 83.25,-0.65 84.70,-0.65 86.28,-0.65 87.86,-0.65 89.59,-0.65 91.31,-0.65 93.10,-0.65 94.88,-0.65 96.62,-0.59 98.36,-0.54 100.10,-0.45 101.83,-0.37 103.61,-0.34 105.39,-0.30 107.10,-0.29 108.81,-0.27 110.43,-0.26 112.06,-0.26 113.72,-0.26 115.38,-0.25 117.05,-0.25 118.73,-0.25 120.42,-0.19 122.11,-0.13 123.81,-0.05 125.50,0.02 127.25,0.06 128.99,0.09 130.80,0.17 132.61,0.24 134.30,0.33 135.99,0.42 137.58,0.45 139.18,0.49 140.75,0.51 142.32,0.53 143.83,0.59 145.33,0.66 146.80,0.74 148.27,0.83 149.71,0.86 151.15,0.90 152.67,0.97 154.18,1.04 155.73,1.15 157.27,1.26 158.79,1.39 160.32,1.52 161.79,1.67 163.27,1.81 164.64,1.96 166.01,2.11 167.29,2.22 168.57,2.34 169.79,2.44 171.00,2.54 172.15,2.68 173.30,2.81 174.38,2.92 175.47,3.02 176.65,3.13 177.82,3.24 179.08,3.45 180.35,3.66 181.70,3.91 183.05,4.16 184.52,4.44 185.98,4.73 187.51,5.09 189.05,5.45 190.59,5.84 192.13,6.24 193.51,6.62 194.89,7.00 195.99,7.33 197.09,7.65 197.85,7.83 198.62,8.02 199.88,9.67 201.14,11.32 201.13,11.45 201.12,11.59 201.07,11.72 201.01,11.84 200.92,11.94 200.83,12.04 200.71,12.11 200.59,12.18 200.45,12.21 200.32,12.23 200.18,12.21 200.05,12.19 199.93,12.13 199.80,12.07 199.71,11.98 199.61,11.88 199.55,11.76 199.49,11.63 199.47,11.50 199.45,11.36 199.48,11.23 199.50,11.09 199.57,10.97 199.64,10.85 199.74,10.76 199.84,10.67 199.97,10.62 200.09,10.56 200.23,10.55 200.37,10.54 200.50,10.57 200.63,10.61 200.75,10.68 200.86,10.75 200.95,10.86 201.03,10.97 201.08,11.10 201.13,11.23 201.13,11.36 201.14,11.50 201.10,11.63 201.06,11.76 200.98,11.87 200.90,11.98 200.78,12.06 200.67,12.14 200.54,12.18 200.41,12.22 200.27,12.22 200.14,12.22 200.01,12.17 199.88,12.12 199.77,12.04 199.67,11.95 199.59,11.83 199.52,11.72 199.49,11.59 199.45,11.45 199.45,11.45 199.45,11.45 198.81,10.46 198.17,9.46 197.44,9.19 196.72,8.91 195.63,8.59 194.54,8.27 193.17,7.89 191.80,7.51 190.27,7.12 188.75,6.73 187.24,6.37 185.73,6.02 184.27,5.73 182.81,5.45 181.47,5.20 180.13,4.95 178.92,4.75 177.70,4.55 176.52,4.44 175.34,4.33 174.25,4.22 173.15,4.12 172.02,3.98 170.89,3.85 169.67,3.75 168.46,3.65 167.16,3.53 165.87,3.41 164.50,3.27 163.14,3.12 161.67,2.97 160.21,2.83 158.69,2.70 157.18,2.57 155.65,2.47 154.12,2.36 152.62,2.28 151.12,2.21 149.65,2.17 148.19,2.14 146.73,2.05 145.28,1.97 143.79,1.90 142.31,1.84 140.73,1.82 139.15,1.80 137.53,1.77 135.92,1.73 134.24,1.64 132.56,1.55 130.76,1.48 128.96,1.41 127.20,1.37 125.43,1.33 123.75,1.25 122.07,1.17 120.40,1.11 118.72,1.05 117.05,1.05 115.38,1.05 113.71,1.05 112.05,1.05 110.43,1.04 108.80,1.03 107.08,1.02 105.37,1.00 103.57,0.97 101.77,0.93 100.05,0.85 98.32,0.77 96.60,0.71 94.88,0.65 93.10,0.65 91.31,0.65 89.59,0.65 87.86,0.65 86.28,0.65 84.70,0.65 83.25,0.65 81.80,0.65 80.49,0.65 79.18,0.65 77.83,0.65 76.47,0.65 75.04,0.65 73.61,0.65 72.16,0.65 70.71,0.65 69.23,0.65 67.74,0.65 66.24,0.65 64.73,0.65 63.28,0.65 61.83,0.65 60.43,0.65 59.04,0.65 57.67,0.65 56.31,0.65 54.96,0.65 53.61,0.65 52.17,0.65 50.73,0.66 49.14,0.66 47.55,0.66 45.89,0.66 44.23,0.66 42.38,0.66 40.54,0.66 38.49,0.66 36.43,0.66 34.29,0.67 32.14,0.67 29.79,0.67 27.44,0.68 25.02,0.68 22.61,0.68 20.39,0.69 18.17,0.70 15.89,0.71 13.61,0.71 11.27,0.73 8.92,0.74 6.91,0.75 4.91,0.77 3.37,0.79 1.83,0.82 0.91,0.80 0,0.79 -0.09,0.78 -0.18,0.76 -0.27,0.73 -0.36,0.70 -0.44,0.64 -0.52,0.59 -0.58,0.52 -0.65,0.45 -0.69,0.36 -0.74,0.28 -0.76,0.18 -0.78,0.09 -0.78,-0.00 -0.78,-0.09 -0.76,-0.18 -0.74,-0.28 -0.69,-0.36 -0.65,-0.45 -0.58,-0.52 -0.52,-0.59 -0.44,-0.64 -0.36,-0.70 -0.27,-0.73 -0.18,-0.76 -0.09,-0.78 0.00,-0.79 0.00,-0.79 L 0,-0.79 Z"></path></g><g transform="translate(27.812507810592535 128.65002427101132) rotate(0 65.58515930175781 3.9328155517578125)" stroke="none"><path fill="#1e1e1e" d="M 0,-0.78 Q 0,-0.78 1.79,-0.76 3.59,-0.74 5.47,-0.73 7.36,-0.72 9.57,-0.71 11.78,-0.70 14.15,-0.69 16.52,-0.69 18.81,-0.68 21.11,-0.68 23.27,-0.67 25.43,-0.67 27.57,-0.67 29.72,-0.66 32.02,-0.66 34.32,-0.66 36.71,-0.60 39.10,-0.54 41.55,-0.39 43.99,-0.23 46.52,-0.03 49.05,0.15 51.53,0.37 54.00,0.59 56.37,0.82 58.73,1.05 61.05,1.26 63.37,1.48 65.67,1.69 67.96,1.90 70.22,2.11 72.48,2.33 74.67,2.51 76.86,2.69 79.04,2.83 81.23,2.97 83.46,3.10 85.70,3.23 87.88,3.35 90.06,3.47 92.22,3.61 94.38,3.75 96.54,3.98 98.70,4.22 100.77,4.49 102.84,4.76 104.79,4.95 106.73,5.14 108.71,5.36 110.69,5.58 112.75,5.86 114.81,6.14 116.80,6.33 118.80,6.52 120.70,6.66 122.60,6.80 124.29,6.92 125.99,7.03 128.12,7.04 130.25,7.05 130.37,7.07 130.50,7.10 130.61,7.16 130.72,7.22 130.80,7.32 130.88,7.41 130.93,7.53 130.98,7.65 130.99,7.77 131.00,7.90 130.97,8.02 130.94,8.14 130.87,8.25 130.80,8.35 130.70,8.43 130.60,8.51 130.48,8.55 130.37,8.60 130.24,8.60 130.11,8.60 129.99,8.56 129.87,8.53 129.77,8.45 129.67,8.38 129.59,8.28 129.52,8.17 129.48,8.05 129.45,7.93 129.45,7.80 129.46,7.68 129.50,7.56 129.55,7.44 129.62,7.34 129.70,7.25 129.81,7.18 129.92,7.11 130.04,7.08 130.16,7.05 130.29,7.06 130.42,7.07 130.53,7.12 130.65,7.17 130.74,7.26 130.83,7.34 130.90,7.45 130.96,7.56 130.98,7.69 131.00,7.81 130.99,7.94 130.97,8.06 130.91,8.18 130.85,8.29 130.76,8.38 130.67,8.47 130.56,8.52 130.45,8.58 130.32,8.59 130.20,8.61 130.20,8.61 130.20,8.61 128.05,8.48 125.90,8.34 124.20,8.23 122.50,8.11 120.59,7.97 118.68,7.83 116.65,7.64 114.63,7.44 112.59,7.16 110.54,6.88 108.57,6.67 106.60,6.45 104.64,6.25 102.67,6.06 100.61,5.79 98.56,5.52 96.42,5.29 94.29,5.06 92.14,4.92 89.99,4.78 87.80,4.66 85.62,4.54 83.38,4.41 81.14,4.28 78.95,4.14 76.75,4.00 74.55,3.82 72.36,3.64 70.10,3.42 67.84,3.21 65.55,3.00 63.25,2.79 60.93,2.57 58.61,2.36 56.25,2.13 53.88,1.91 51.42,1.69 48.95,1.47 46.43,1.27 43.91,1.08 41.49,0.93 39.07,0.78 36.69,0.72 34.32,0.66 32.02,0.66 29.72,0.66 27.57,0.67 25.43,0.67 23.27,0.67 21.11,0.68 18.81,0.68 16.52,0.69 14.15,0.69 11.78,0.70 9.57,0.71 7.36,0.72 5.47,0.73 3.59,0.74 1.79,0.76 0,0.78 -0.09,0.76 -0.18,0.75 -0.27,0.72 -0.36,0.69 -0.44,0.63 -0.51,0.58 -0.58,0.51 -0.64,0.44 -0.68,0.36 -0.73,0.27 -0.75,0.18 -0.77,0.09 -0.77,-0.00 -0.77,-0.09 -0.75,-0.18 -0.73,-0.27 -0.68,-0.36 -0.64,-0.44 -0.58,-0.51 -0.51,-0.58 -0.44,-0.63 -0.36,-0.69 -0.27,-0.72 -0.18,-0.75 -0.09,-0.76 0.00,-0.78 0.00,-0.78 L 0,-0.78 Z"></path></g></svg>