<svg xmlns="http://www.w3.org/2000/svg" version="1.1" viewBox="-5.0 -10.0 110.0 135.0" width="50" height="50">
 <path d="m7 44.59s-0.25-0.16797-0.35156-0.25391l-0.20313-0.21094-0.13672-0.24609-0.046875-0.17578-0.011719-0.19922 0.03125-0.20312 0.070312-0.17969 0.16016-0.23438c0.066406-0.078125 0.15234-0.15625 0.25781-0.24219 0.26953-0.21094 0.72656-0.45312 1.3242-0.70703 2.4688-1.0508 7.5234-2.4219 9.6484-2.9766-1.0859-2.3086-3.9219-8.3906-5.0859-11.312-0.30078-0.75781-0.49219-1.3242-0.53906-1.5938l-0.023438-0.22266 0.03125-0.24219 0.074219-0.17969 0.125-0.16406 0.22266-0.15625 0.3125-0.097656c0.84375-0.17578 4.9727-0.59766 5.3711-0.63672 2.0156-0.20312 8.0508 0.57422 10.43 0.88281-0.33594-6.6914 0.023438-7.1719 0.35156-13.438 0.015625-0.28125 0.18359-0.53125 0.4375-0.65234 0.25391-0.12109 0.55469-0.09375 0.78125 0.074218 5.6562 4.1289 6.0781 3.6953 11.133 7.5742 1.1836-2.332 4.375-8.5547 6.0859-11.168 0.49219-0.75 0.91406-1.2305 1.1484-1.375l0.34375-0.13281 0.17969-0.015625 0.20703 0.03125c0.57422 0.16406 1.0781 0.4375 2.0742 1.5859 1.2109 1.3984 3.3438 4.2773 7.9766 10.418 6.2422-3.9141 6.4141-4.0195 12.852-8.4844 0.24219-0.16797 0.55469-0.17969 0.8125-0.039062 0.25781 0.14453 0.40625 0.42187 0.39062 0.71484-0.39844 6.3828-0.36719 6.9609-0.023438 15.062 7.2773-0.52344 7.5117-0.46094 15.309-0.28125 0.28125 0.007813 0.53516 0.16406 0.66406 0.41406 0.12891 0.25 0.10938 0.55078-0.046874 0.78125-3.3086 4.8672-3.3672 5.0234-8.3789 13.148 5.707 1.9219 5.9688 2.0547 12.203 4.3945 0.26172 0.097657 0.44922 0.32813 0.48828 0.60547 0.039062 0.27734-0.070313 0.55078-0.29297 0.72266-4.6016 3.5273-9.6484 6.6914-11.566 7.8711 4.4336 4.8359 4.5898 5.0703 8.8828 10.617 0.15625 0.19922 0.20312 0.46484 0.125 0.70312-0.078125 0.24219-0.26562 0.42578-0.50781 0.5-7.4258 2.2148-8.4062 2.2461-13.461 2.6172 2.8164 4.6445 2.8164 5.5781 5.1094 14.453 0.070312 0.26953-0.011719 0.55469-0.21094 0.74609-0.20312 0.19141-0.48828 0.25781-0.75391 0.17969-7.2695-2.2305-7.625-2.2031-14.031-4.8164-0.28516 4.0234-0.60547 5.2734-2.0312 11.781-0.050781 0.23828-0.21484 0.4375-0.4375 0.53906-0.22266 0.097656-0.48047 0.085937-0.69141-0.035156-5.5195-3.1602-6.7344-4.7227-9.3867-7.8438-1.1172 3.1797-1.4453 3.9062-4.7891 10.688-0.13281 0.26562-0.40625 0.43359-0.70312 0.42578-0.29688-0.003907-0.56641-0.18359-0.6875-0.45312-0.28906-0.64844-1.9219-3.9375-2.8047-7.4062-0.40625-1.5859-0.34375-1.8359-0.82422-3.6172-5.0117 4.1406-5.3594 4.2812-11.273 8.4961-0.22656 0.16406-0.52734 0.1875-0.77734 0.066406s-0.41797-0.37109-0.43359-0.64844c-0.33594-6.3672-0.19531-6.7031-0.81641-12.367-6.6914 3.125-11.105 5.1094-11.961 5.4883l-0.36719 0.125-0.21484-0.003906-0.18359-0.050781-0.21094-0.13281-0.13281-0.15625c-0.035156-0.054687-0.15234-0.35547-0.21094-0.83203-0.09375-0.78125-0.18359-2.2461-0.039062-3.3203 0.17969-1.3477 1.0117-4.0703 2.9336-10.277-6.5234-1.7891-6.6719-2.0156-12.449-4.6406-0.21094-0.09375-0.36719-0.28125-0.42578-0.50391-0.058594-0.22266-0.015626-0.46094 0.12109-0.64844 3.9609-5.4219 4.1367-5.6094 7.8086-9.8906-5.043-4.043-5.6211-4.5703-8.9609-8.2422zm11.641-4.2734c-1.4102 0.36328-5.8359 1.5234-8.7266 2.5625-0.69922 0.25-1.3086 0.49219-1.75 0.71484 3.2266 3.5469 3.8203 4.0898 8.6562 7.9648 0.046876-2.8438 0.44531-5.8984 1.2422-9.168 0.17188-0.71094 0.36719-1.4023 0.57812-2.0742zm-1.7695 13.809c-3.2227 3.7578-3.6172 4.2227-6.9297 8.7461 4.6758 2.1328 5.2656 2.4805 10.742 3.9961-2.1445-3.5664-3.5234-7.8086-3.8125-12.742zm5.4141 15.102c-1.8203 5.875-2.625 8.4727-2.8008 9.7734-0.09375 0.69531-0.046875 1.6992 0.011719 2.4141 1.6875-0.75781 5.5625-2.5156 10.938-5.0234-3.1289-1.8594-5.9219-4.2422-8.1484-7.1602zm10.543 8.4492c0.55859 5.1133 0.48828 5.8477 0.73438 10.895 4.7969-3.4102 5.418-3.7969 10.043-7.6172-3.7305-0.54688-7.4023-1.6367-10.781-3.2773zm13.098 3.5469c0.63672 2.2578 0.52734 2.4102 0.96875 4.1484 0.55859 2.1953 1.4297 4.3125 2.0469 5.6914 2.8633-5.8281 3.0391-6.3047 4.2891-9.8906-1.1953 0.125-2.4062 0.19141-3.6289 0.19922-1.2188 0.007812-2.4492-0.039063-3.6758-0.14844zm9.1484-0.28906c2.7109 3.1719 3.7383 4.6914 8.5586 7.5508 1.2617-5.7461 1.5312-6.918 1.8086-11.039-3.043 1.7305-6.5938 2.9023-10.367 3.4883zm11.973-4.4844c6.375 2.6094 6.9453 2.6992 13.062 4.5625-1.9375-7.5938-2.0195-8.5078-4.793-13.047-1.5625 2.1797-3.4375 4.3242-5.6641 6.4062-0.80469 0.75-1.6719 1.4453-2.6055 2.0781zm9.6055-10.477c4.7148-0.34375 5.8125-0.38672 12.125-2.2461-3.4453-4.4492-3.9375-5.0703-7.5938-9.0625-0.73828 3.7539-2.1953 7.5664-4.5352 11.309zm5.0078-14.637c2.0391-1.2695 5.8984-3.7383 9.6562-6.5312-4.8281-1.8125-5.5547-2.1016-10.402-3.7344 0.76172 3.2539 1.0625 6.7148 0.74609 10.266zm-1.6133-13.316c4.2344-6.8672 4.7266-7.7031 7.2305-11.402-6.2969-0.14844-7-0.17188-13.5 0.29297 0.78906 0.91406 1.543 1.8984 2.25 2.9453 1.6367 2.4258 3.0195 5.1797 4.0234 8.1602zm-8.1914-13.133c-0.29297-6.957-0.33984-8.168-0.046875-13.07-5.0273 3.4844-5.7383 3.9414-10.973 7.2227 1.0703 0.27344 2.1992 0.60547 3.3945 1.0078 2.6094 0.88281 5.2305 2.5547 7.625 4.8359zm-14.238-6.5391c-4.2266-5.6016-6.2188-8.2891-7.3711-9.6211-0.46094-0.53125-0.74219-0.80859-0.99609-0.96875-0.14062 0.17969-0.34375 0.44531-0.51562 0.70703-1.6016 2.4492-4.5195 8.1094-5.8125 10.648 2.6797-0.72656 4.7109-1.0234 5.4844-1.1289 0.023438-0.003906 0.046875-0.007813 0.070312-0.007813 1.3828-0.066406 4.4531-0.4375 9.1406 0.36719zm-17.316 1.5625c-4.5625-3.4883-5.293-3.4062-9.8359-6.6328-0.29688 4.8398-0.57031 5.7812-0.28906 11.617 3.4219-2.3711 7.0156-3.9453 10.121-4.9844zm-12.461 6.7617c-2.625-0.34375-7.6641-0.97656-9.4531-0.79297-0.32031 0.03125-3.1484 0.31641-4.5625 0.50781 0.074219 0.21094 0.16406 0.46094 0.25781 0.69531 1.2031 3.0156 4.2031 9.4297 5.1719 11.488 1.9766-5.1289 5.1016-8.9922 8.5898-11.898zm51.195 13.273c-0.96484-3.4023-2.457-6.5312-4.2812-9.2344-3.0586-4.5391-7.043-7.8711-11.016-9.2109-8.1328-2.7461-13.242-2.0859-15.152-1.9922h-0.015626c-3.0742 0.43359-24.238 3.582-29.023 23.238-2.4727 10.156-0.94531 18.145 2.9141 24.066 5.793 8.8867 16.785 13.094 27.129 13.02 7.3633-0.054687 14.414-2.2734 19.016-6.5859 6.8281-6.3984 10.23-13.379 11.27-20.105-0.039062-0.11328-0.054688-0.23828-0.039062-0.36328 0.015624-0.125 0.066406-0.24609 0.14062-0.34766 0.55469-4.2578 0.17578-8.4023-0.86719-12.215-0.011719-0.023438-0.023437-0.050782-0.03125-0.078125-0.023437-0.0625-0.039063-0.12891-0.042969-0.19531zm-30.445-16.586c1.6797-0.078125 6.25-0.66016 13.559 1.7109 3.6641 1.1875 7.3633 4.1172 10.184 8.1406 6.5195 9.2891 8.418 24.418-5.4922 36.945-4.1875 3.7695-10.582 5.7578-17.281 5.8047-9.3477 0.0625-19.258-3.6484-24.492-11.375-3.5-5.1641-4.9414-12.129-2.6992-20.984 4.3359-17.133 23.535-19.887 26.152-20.242 0.023438 0 0.042969-0.003906 0.066407-0.003906zm0.10547 1.5273-0.015624 0.003906c-2.6523 0.35938-20.734 2.9414-24.824 19.09-2.1094 8.332-0.8125 14.891 2.4844 19.75 4.957 7.3125 14.363 10.762 23.211 10.699 6.2969-0.042969 12.328-1.8672 16.266-5.4102 13.152-11.848 11.426-26.141 5.2617-34.93-2.6133-3.7227-6.0117-6.4609-9.4023-7.5625-6.9609-2.2617-11.34-1.7227-12.98-1.6406zm-15.172 29.16c-0.15625-0.39062 0.03125-0.83984 0.42578-0.99609 0.39062-0.15625 0.83984 0.03125 0.99609 0.42578 0.44141 1.0938 2.9922 7.4727 9.8711 9.4297 6.3164 1.7969 10.684 1.043 13.727-0.78516 4.5781-2.75 6.1484-7.8477 6.918-9.9844 0.14062-0.39844 0.58203-0.60547 0.98047-0.46094 0.39844 0.14453 0.60547 0.58203 0.46094 0.98047-0.83594 2.3164-2.6055 7.7969-7.5703 10.777-3.3164 1.9922-8.0625 2.8984-14.938 0.94531-7.5586-2.1484-10.391-9.1328-10.875-10.332zm23.062-9.0781c-0.14844 0.39453-0.58984 0.59766-0.98438 0.44922-0.39844-0.14844-0.59766-0.59375-0.44922-0.98828 1.5156-4.0312 3.918-5.9023 6.2773-6.2188 3.5547-0.47656 7.2656 2.5898 8.2266 7.7969 0.078125 0.41797-0.19922 0.81641-0.61719 0.89063-0.41406 0.078124-0.81641-0.19922-0.89062-0.61328-0.78125-4.2461-3.6133-6.9453-6.5117-6.5547-1.9414 0.26172-3.7969 1.918-5.0469 5.2383zm-26.125 0.96094c-0.054688 0.42187-0.4375 0.71875-0.85547 0.66797-0.42188-0.050781-0.71875-0.4375-0.66797-0.85547 0.4375-3.5469 3.8047-6.957 7.6758-6.9883 2.5391-0.023437 5.3438 1.3789 7.6289 5.2656 0.21484 0.36719 0.09375 0.83594-0.27344 1.0508-0.36719 0.21484-0.83594 0.09375-1.0508-0.27344-1.9062-3.25-4.1719-4.5273-6.293-4.5078-3.1172 0.023438-5.8125 2.7891-6.1641 5.6445z" fill-rule="evenodd"/>
<text x="0.0" y="117.5" font-size="5.0" font-weight="bold" font-family="Arbeit Regular, Helvetica, Arial-Unicode, Arial, Sans-serif" fill="#000000">Created by Muhammad Ramzan Tohir</text><text x="0.0" y="122.5" font-size="5.0" font-weight="bold" font-family="Arbeit Regular, Helvetica, Arial-Unicode, Arial, Sans-serif" fill="#000000">from Noun Project</text></svg>